<?xml version="1.0" encoding="UTF-8"?><svg id="Layer_1" xmlns="http://www.w3.org/2000/svg" width="532.91" height="807.87" viewBox="0 0 532.91 807.87"><defs><style>.cls-1{fill:#412312;}.cls-1,.cls-2,.cls-3,.cls-4,.cls-5{stroke-width:0px;}.cls-2{fill:#492a1a;}.cls-3{fill:#e6e6e5;}.cls-4{fill:#301a0e;}.cls-5{fill:#010101;opacity:.15;}</style></defs><path class="cls-4" d="m509.54,2.37H23.38C12.19,2.37,3.03,11.53,3.03,22.72v762.43c0,11.19,9.16,20.35,20.35,20.35h486.16c11.19,0,20.35-9.16,20.35-20.35V22.72c0-11.19-9.16-20.35-20.35-20.35ZM176.51,785.3s-13.2,7.35-15.91,7.35H14.39c-2.71,0-4.93-2.05-4.93-4.54v-240.92c0-2.49,2.22-11.54,4.93-11.54h149.18c7.15,0,12.94,5.35,12.94,11.95v237.71Zm0-263.43s-13.2,7.35-15.91,7.35H14.39c-2.71,0-4.93-2.05-4.93-4.54v-240.92c0-2.49,2.22-11.54,4.93-11.54h149.18c7.15,0,12.94,5.35,12.94,11.95v237.71Zm0-263.43s-13.2,7.35-15.91,7.35H14.39c-2.71,0-4.93-2.05-4.93-4.54V20.34c0-2.49,2.22-11.54,4.93-11.54h149.18c7.15,0,12.94,5.35,12.94,11.95v237.71Zm173.48,526.85s-13.2,7.35-15.91,7.35h-146.21c-2.71,0-4.93-2.05-4.93-4.54v-240.92c0-2.49,2.22-11.54,4.93-11.54h149.18c7.15,0,12.94,5.35,12.94,11.95v237.71Zm0-263.43s-13.2,7.35-15.91,7.35h-146.21c-2.71,0-4.93-2.05-4.93-4.54v-240.92c0-2.49,2.22-11.54,4.93-11.54h149.18c7.15,0,12.94,5.35,12.94,11.95v237.71Zm0-263.43s-13.2,7.35-15.91,7.35h-146.21c-2.71,0-4.93-2.05-4.93-4.54V20.34c0-2.49,2.22-11.54,4.93-11.54h149.18c7.15,0,12.94,5.35,12.94,11.95v237.71Zm173.48,526.85s-13.2,7.35-15.91,7.35h-146.21c-2.71,0-4.93-2.05-4.93-4.54v-240.92c0-2.49,2.22-11.54,4.93-11.54h149.18c7.15,0,12.94,5.35,12.94,11.95v237.71Zm0-263.43s-13.2,7.35-15.91,7.35h-146.21c-2.71,0-4.93-2.05-4.93-4.54v-240.92c0-2.49,2.22-11.54,4.93-11.54h149.18c7.15,0,12.94,5.35,12.94,11.95v237.71Zm0-263.43s-13.2,7.35-15.91,7.35h-146.21c-2.71,0-4.93-2.05-4.93-4.54V20.34c0-2.49,2.22-11.54,4.93-11.54h149.18c7.15,0,12.94,5.35,12.94,11.95v237.71Z"/><path class="cls-1" d="m163.56,8.8H14.39c-2.71,0-4.93,9.05-4.93,11.54v240.92c0,2.49,2.22,4.54,4.93,4.54h146.21c2.71,0,15.91-7.35,15.91-7.35V20.74c0-6.59-5.8-11.95-12.94-11.95Zm-6.33,237.58s-10.67,6.57-12.85,6.57H26.28c-2.18,0-3.97-1.83-3.97-4.08V26.8c0,1.27,1.79-4.08,3.97-4.08h120.51c4.02-1.07,10.45,11.78,10.45,10.71v212.95Z"/><path class="cls-1" d="m163.56,272.22H14.39c-2.71,0-4.93,9.05-4.93,11.54v240.92c0,2.49,2.22,4.54,4.93,4.54h146.21c2.71,0,15.91-7.35,15.91-7.35v-237.71c0-6.59-5.8-11.95-12.94-11.95Zm-6.33,237.58s-10.67,6.57-12.85,6.57H26.28c-2.18,0-3.97-1.83-3.97-4.08v-222.07c0,1.27,1.79-4.08,3.97-4.08h120.51c4.02-1.07,10.45,11.78,10.45,10.71v212.95Z"/><path class="cls-1" d="m337.04,272.22h-149.18c-2.71,0-4.93,9.05-4.93,11.54v240.92c0,2.49,2.22,4.54,4.93,4.54h146.21c2.71,0,15.91-7.35,15.91-7.35v-237.71c0-6.59-5.8-11.95-12.94-11.95Zm-6.33,237.58s-10.67,6.57-12.85,6.57h-118.11c-2.18,0-3.97-1.83-3.97-4.08v-222.07c0,1.27,1.79-4.08,3.97-4.08h120.51c4.02-1.07,10.45,11.78,10.45,10.71v212.95Z"/><path class="cls-1" d="m510.51,272.22h-149.18c-2.71,0-4.93,9.05-4.93,11.54v240.92c0,2.49,2.22,4.54,4.93,4.54h146.21c2.71,0,15.91-7.35,15.91-7.35v-237.71c0-6.59-5.8-11.95-12.94-11.95Zm-6.33,237.58s-10.67,6.57-12.85,6.57h-118.11c-2.18,0-3.97-1.83-3.97-4.08v-222.07c0,1.27,1.79-4.08,3.97-4.08h120.51c4.02-1.07,10.45,11.78,10.45,10.71v212.95Z"/><path class="cls-1" d="m163.56,535.65H14.39c-2.71,0-4.93,9.05-4.93,11.54v240.92c0,2.49,2.22,4.54,4.93,4.54h146.21c2.71,0,15.91-7.35,15.91-7.35v-237.71c0-6.59-5.8-11.95-12.94-11.95Zm-6.33,237.58s-10.67,6.57-12.85,6.57H26.28c-2.18,0-3.97-1.83-3.97-4.08v-222.07c0,1.27,1.79-4.08,3.97-4.08h120.51c4.02-1.07,10.45,11.78,10.45,10.71v212.95Z"/><path class="cls-1" d="m337.04,535.65h-149.18c-2.71,0-4.93,9.05-4.93,11.54v240.92c0,2.49,2.22,4.54,4.93,4.54h146.21c2.71,0,15.91-7.35,15.91-7.35v-237.71c0-6.59-5.8-11.95-12.94-11.95Zm-6.33,237.58s-10.67,6.57-12.85,6.57h-118.11c-2.18,0-3.97-1.83-3.97-4.08v-222.07c0,1.27,1.79-4.08,3.97-4.08h120.51c4.02-1.07,10.45,11.78,10.45,10.71v212.95Z"/><path class="cls-1" d="m510.51,535.65h-149.18c-2.71,0-4.93,9.05-4.93,11.54v240.92c0,2.49,2.22,4.54,4.93,4.54h146.21c2.71,0,15.91-7.35,15.91-7.35v-237.71c0-6.59-5.8-11.95-12.94-11.95Zm-6.33,237.58s-10.67,6.57-12.85,6.57h-118.11c-2.18,0-3.97-1.83-3.97-4.08v-222.07c0,1.27,1.79-4.08,3.97-4.08h120.51c4.02-1.07,10.45,11.78,10.45,10.71v212.95Z"/><path class="cls-1" d="m337.04,8.8h-149.18c-2.71,0-4.93,9.05-4.93,11.54v240.92c0,2.49,2.22,4.54,4.93,4.54h146.21c2.71,0,15.91-7.35,15.91-7.35V20.74c0-6.59-5.8-11.95-12.94-11.95Zm-6.33,237.58s-10.67,6.57-12.85,6.57h-118.11c-2.18,0-3.97-1.83-3.97-4.08V26.8c0,1.27,1.79-4.08,3.97-4.08h120.51c4.02-1.07,10.45,11.78,10.45,10.71v212.95Z"/><path class="cls-1" d="m510.51,8.8h-149.18c-2.71,0-4.93,9.05-4.93,11.54v240.92c0,2.49,2.22,4.54,4.93,4.54h146.21c2.71,0,15.91-7.35,15.91-7.35V20.74c0-6.59-5.8-11.95-12.94-11.95Zm-6.33,237.58s-10.67,6.57-12.85,6.57h-118.11c-2.18,0-3.97-1.83-3.97-4.08V26.8c0,1.27,1.79-4.08,3.97-4.08h120.51c4.02-1.07,10.45,11.78,10.45,10.71v212.95Z"/><path class="cls-2" d="m146.78,22.72H26.28c-2.19,0-3.98,5.35-3.98,4.07v222.09c0,2.24,1.79,4.07,3.98,4.07h118.1c2.19,0,12.85-6.58,12.85-6.58V33.42c0,1.08-6.43-11.77-10.45-10.7Z"/><path class="cls-2" d="m146.78,286.14H26.28c-2.19,0-3.98,5.35-3.98,4.07v222.09c0,2.24,1.79,4.07,3.98,4.07h118.1c2.19,0,12.85-6.58,12.85-6.58v-212.95c0,1.08-6.43-11.77-10.45-10.7Z"/><path class="cls-2" d="m320.25,286.14h-120.49c-2.19,0-3.98,5.35-3.98,4.07v222.09c0,2.24,1.79,4.07,3.98,4.07h118.1c2.19,0,12.85-6.58,12.85-6.58v-212.95c0,1.08-6.43-11.77-10.45-10.7Z"/><path class="cls-2" d="m493.73,286.14h-120.49c-2.19,0-3.98,5.35-3.98,4.07v222.09c0,2.24,1.79,4.07,3.98,4.07h118.1c2.19,0,12.85-6.58,12.85-6.58v-212.95c0,1.08-6.43-11.77-10.45-10.7Z"/><path class="cls-2" d="m146.78,549.57H26.28c-2.19,0-3.98,5.35-3.98,4.07v222.09c0,2.24,1.79,4.07,3.98,4.07h118.1c2.19,0,12.85-6.58,12.85-6.58v-212.95c0,1.08-6.43-11.77-10.45-10.7Z"/><path class="cls-2" d="m320.25,549.57h-120.49c-2.19,0-3.98,5.35-3.98,4.07v222.09c0,2.24,1.79,4.07,3.98,4.07h118.1c2.19,0,12.85-6.58,12.85-6.58v-212.95c0,1.08-6.43-11.77-10.45-10.7Z"/><path class="cls-2" d="m493.73,549.57h-120.49c-2.19,0-3.98,5.35-3.98,4.07v222.09c0,2.24,1.79,4.07,3.98,4.07h118.1c2.19,0,12.85-6.58,12.85-6.58v-212.95c0,1.08-6.43-11.77-10.45-10.7Z"/><path class="cls-2" d="m320.25,22.72h-120.49c-2.19,0-3.98,5.35-3.98,4.07v222.09c0,2.24,1.79,4.07,3.98,4.07h118.1c2.19,0,12.85-6.58,12.85-6.58V33.42c0,1.08-6.43-11.77-10.45-10.7Z"/><path class="cls-2" d="m493.73,22.72h-120.49c-2.19,0-3.98,5.35-3.98,4.07v222.09c0,2.24,1.79,4.07,3.98,4.07h118.1c2.19,0,12.85-6.58,12.85-6.58V33.42c0,1.08-6.43-11.77-10.45-10.7Z"/><path class="cls-3" d="m36.23,36.74c.5-6.08,3.91-6.34,4.13-.16.64,17.74,1.16,38.18,1.22,58.41.07,23.8-.51,48.54-1.23,69.57-.22,6.53-4.19,6.48-4.37-.06-.56-21.13-.98-42.84-.79-66.41.16-19.55.05-49.4,1.04-61.35Z"/><path class="cls-3" d="m29.8,338.72c.5-6.08,3.91-6.34,4.13-.16.64,17.74,1.16,38.18,1.22,58.41.07,23.8-.51,48.54-1.23,69.57-.22,6.53-4.19,6.48-4.37-.06-.56-21.13-.98-42.84-.79-66.41.16-19.55.05-49.4,1.04-61.35Z"/><path class="cls-3" d="m29.8,576.44c.5-6.08,3.91-6.34,4.13-.16.64,17.74,1.16,38.18,1.22,58.41.07,23.8-.51,48.54-1.23,69.57-.22,6.53-4.19,6.48-4.37-.06-.56-21.13-.98-42.84-.79-66.41.16-19.55.05-49.4,1.04-61.35Z"/><path class="cls-3" d="m212.96,177.25c-.68,6.53-5.38,6.81-5.7.18-.92-19.05-1.69-41-1.82-62.71-.15-25.55.59-52.12,1.54-74.7.29-7.01,5.77-6.96,6.03.06.83,22.69,1.46,45.99,1.25,71.3-.18,20.99.05,53.04-1.29,65.87Z"/><path class="cls-3" d="m381.72,749.07c-.26,6.53-2.01,6.81-2.13.18-.34-19.05-.63-41-.68-62.71-.06-25.55.22-52.12.57-74.7.11-7.01,2.16-6.96,2.26.06.31,22.69.55,45.99.47,71.3-.07,20.99.02,53.04-.48,65.87Z"/><path class="cls-3" d="m224.47,710.88c-.43,3.9-3.38,4.06-3.58.11-.58-11.36-1.06-24.46-1.14-37.41-.1-15.24.37-31.09.96-44.56.18-4.18,3.63-4.15,3.79.03.52,13.54.92,27.44.78,42.54-.11,12.52.03,31.64-.81,39.3Z"/><path class="cls-3" d="m211.62,690.28c-.43,5.61-3.38,5.86-3.58.16-.58-16.38-1.06-35.25-1.14-53.93-.1-21.97.37-44.82.96-64.23.18-6.03,3.63-5.99,3.79.05.52,19.51.92,39.55.78,61.31-.11,18.05.03,45.61-.81,56.64Z"/><path class="cls-3" d="m211.62,505.58c-.43,5.68-3.38,5.92-3.58.16-.58-16.56-1.06-35.64-1.14-54.52-.1-22.21.37-45.31.96-64.94.18-6.1,3.63-6.05,3.79.05.52,19.72.92,39.98.78,61.98-.11,18.25.03,46.11-.81,57.26Z"/><path class="cls-3" d="m381.62,244.33c-.25,2.84-1.94,2.97-2.06.08-.33-8.3-.61-17.86-.66-27.32-.05-11.13.21-22.7.55-32.54.11-3.06,2.09-3.03,2.18.02.3,9.88.53,20.04.45,31.06-.06,9.14.02,23.11-.47,28.7Z"/><path class="cls-3" d="m380.93,409.85c-.18,4.84-1.45,5.04-1.54.14-.25-14.11-.45-30.36-.49-46.44-.04-18.92.16-38.6.41-55.32.08-5.19,1.56-5.16,1.62.04.22,16.8.39,34.06.34,52.8-.05,15.55.01,39.28-.35,48.78Z"/><path class="cls-3" d="m387.36,435.55c-.18,4.84-1.45,5.04-1.54.14-.25-14.11-.45-30.36-.49-46.44-.04-18.92.16-38.6.41-55.32.08-5.19,1.56-5.16,1.62.04.22,16.8.39,34.06.34,52.8-.05,15.55.01,39.28-.35,48.78Z"/><path class="cls-3" d="m388.05,238.57c-.25,1.99-1.94,2.08-2.06.06-.33-5.81-.61-12.5-.66-19.12-.05-7.79.21-15.89.55-22.78.11-2.14,2.09-2.12,2.18.02.3,6.92.53,14.03.45,21.74-.06,6.4.02,16.18-.47,20.09Z"/><path class="cls-3" d="m394.47,238.35c-.25,2.28-1.94,2.37-2.06.06-.33-6.64-.61-14.29-.66-21.86-.05-8.91.21-18.16.55-26.03.11-2.44,2.09-2.43,2.18.02.3,7.91.53,16.03.45,24.85-.06,7.32.02,18.49-.47,22.96Z"/><path class="cls-3" d="m224.47,507.32c-.43,3.41-3.38,3.56-3.58.1-.58-9.96-1.06-21.43-1.14-32.78-.1-13.36.37-27.25.96-39.05.18-3.67,3.63-3.64,3.79.03.52,11.86.92,24.04.78,37.27-.11,10.97.03,27.73-.81,34.43Z"/><path class="cls-3" d="m52.33,110.74c-.43,3.04-3.46,3.19-3.68.1-.62-8.87-1.16-19.1-1.28-29.22-.14-11.91.3-24.29.87-34.82.18-3.27,3.71-3.26,3.89.01.57,10.57,1.02,21.43.92,33.23-.08,9.78.12,24.72-.72,30.7Z"/><path class="cls-3" d="m45.9,412.71c-.43,3.04-3.46,3.19-3.68.1-.62-8.87-1.16-19.1-1.28-29.22-.14-11.91.3-24.29.87-34.82.18-3.27,3.71-3.26,3.89.01.57,10.57,1.02,21.43.92,33.23-.08,9.78.12,24.72-.72,30.7Z"/><path class="cls-5" d="m529.88,22.72v762.43c0,11.19-9.16,20.35-20.35,20.35h-242.49V2.37h242.49c11.19,0,20.35,9.16,20.35,20.35Z"/></svg>