<?xml version="1.0" encoding="UTF-8"?><svg id="Layer_1" xmlns="http://www.w3.org/2000/svg" width="641.13" height="605" viewBox="0 0 641.13 605"><defs><style>.cls-1{fill:#49220c;stroke-width:0px;}</style></defs><path class="cls-1" d="m444.71,604.87c-.97,0-1.92-.09-2.83-.27L7.23,517.46c-3.26-.65-5.63-2.45-6.67-5.07-1.18-2.96-.47-6.61,1.93-10.02l139.21-197.41c4.44-6.29,13.22-10.16,19.99-8.8l434.65,87.13c3.26.65,5.63,2.45,6.67,5.07,1.18,2.96.47,6.61-1.93,10.02l-139.21,197.41c-3.84,5.45-10.93,9.08-17.16,9.08Zm-2.2-3.42c5.44,1.09,13.1-2.35,16.74-7.51l139.21-197.41c1.77-2.51,2.34-5.05,1.57-6.98-.64-1.59-2.13-2.67-4.32-3.11l-434.65-87.13c-5.43-1.09-13.1,2.35-16.74,7.51L5.12,504.23c-1.77,2.51-2.34,5.05-1.57,6.98.63,1.59,2.13,2.67,4.32,3.11l434.65,87.13Z"/><path class="cls-1" d="m598.17,386.03c-.68,0-1.35-.07-2.03-.2l-434.83-86.24c-6.9-1.37-11.72-9.45-10.75-18.03L180.87,13.61c.54-4.76,2.75-8.88,6.07-11.31,2.54-1.85,5.55-2.55,8.48-1.97l434.83,86.24c6.9,1.37,11.72,9.45,10.75,18.03l-30.31,267.96c-.54,4.76-2.75,8.88-6.07,11.31-1.95,1.43-4.19,2.17-6.46,2.17ZM193.38,3.34c-1.58,0-3.13.53-4.54,1.55-2.6,1.9-4.34,5.21-4.78,9.08l-30.31,267.96c-.79,6.95,2.88,13.46,8.18,14.51l434.83,86.24c2.08.41,4.14-.08,5.96-1.41,2.6-1.9,4.34-5.21,4.78-9.08l30.31-267.96c.79-6.95-2.88-13.46-8.18-14.51L194.81,3.49c-.48-.09-.95-.14-1.43-.14Z"/><path class="cls-1" d="m592.49,375.06c-.67,0-1.35-.07-2.02-.2l-420.24-83.34c-6.69-1.33-11.4-8.99-10.51-17.08l27.8-251.45c.49-4.42,2.56-8.27,5.69-10.56,2.48-1.82,5.45-2.5,8.36-1.93l420.24,83.34c6.69,1.33,11.4,8.99,10.51,17.08l-27.8,251.45c-.49,4.42-2.56,8.27-5.69,10.56-1.91,1.4-4.1,2.13-6.34,2.13ZM199.53,13.5c-1.55,0-3.06.51-4.42,1.51-2.41,1.76-4.01,4.8-4.4,8.32l-27.8,251.45c-.72,6.48,2.85,12.57,7.94,13.58l420.24,83.34c2.05.4,4.07-.07,5.84-1.37,2.41-1.76,4.01-4.8,4.4-8.33l27.8-251.45c.72-6.48-2.85-12.57-7.94-13.58L200.95,13.64c-.48-.09-.95-.14-1.42-.14Z"/><path class="cls-1" d="m278.73,560.01c-.33,0-.67-.03-.99-.09l-100.53-19.94c-1.24-.25-2.19-.97-2.59-1.98-.39-.97-.22-2.08.47-3.05l27.22-38.32c1.16-1.63,3.57-2.55,5.61-2.15l100.53,19.94c1.24.25,2.19.97,2.59,1.98.39.97.22,2.08-.47,3.05l-27.22,38.32c-.98,1.37-2.84,2.25-4.62,2.25Zm-100.89-23.18l100.53,19.94c.79.16,1.94-.26,2.36-.86l27.21-38.31s-.07-.02-.12-.03l-100.53-19.94c-.79-.16-1.94.26-2.36.86l-27.21,38.31s.07.02.12.03h0Z"/><path class="cls-1" d="m436.5,71.22c-.37,0-.74-.05-1.06-.11l-58.15-11.53c-1.79-.35-2.83-1.33-2.72-2.53l.93-9.73c.05-.51.31-.97.73-1.29.78-.58,1.9-.51,2.7-.36l58.15,11.53c1.79.36,2.83,1.33,2.72,2.53l-.93,9.74c-.05.51-.31.97-.73,1.28-.47.35-1.07.47-1.65.47Zm-58.63-14.81s.04,0,.05.01h0l57.88,11.48.72-7.54s-.04,0-.05-.01l-57.88-11.48-.72,7.54Z"/><path class="cls-1" d="m466.84,528.76c-1.14,0-2.28-.1-3.39-.31l-392.75-75.64c-3.63-.7-6.27-2.51-7.25-4.98-.77-1.93-.43-4.04.95-5.95l89.77-124.43c3-4.16,10.21-6.48,16.42-5.28l395.76,76.18c3.63.7,6.26,2.51,7.22,4.98.76,1.96.38,4.11-1.07,6.05l-92.64,123.92c-2.5,3.34-7.8,5.47-13.03,5.47Zm-395.53-79.11l392.75,75.64c4.88.94,10.94-.86,13.23-3.92l92.64-123.92c.54-.72,1.09-1.83.65-2.97-.54-1.39-2.34-2.51-4.83-2.99l-395.76-76.18c-4.91-.94-10.95.89-13.2,4.01l-89.77,124.43c-.73,1.02-.93,1.99-.57,2.89.56,1.4,2.38,2.53,4.87,3.01Z"/><path class="cls-1" d="m459.62,598.36l-2.64-1.84,144.79-211.49,2.89,8.66-.47.66-144.57,204Zm141.15-206.18l-29.04,42.41,29.36-41.44-.33-.98Z"/></svg>