<?xml version="1.0" encoding="UTF-8"?><svg id="Layer_1" xmlns="http://www.w3.org/2000/svg" width="334.86" height="221" viewBox="0 0 334.86 221"><defs><style>.cls-1{fill:#49220c;stroke-width:0px;}</style></defs><path class="cls-1" d="m73.98,19.63l-1.34-3.76c7.31-2.95,14.32-3.68,20.81-2.17l-.53,3.95c-7.72-.29-13.57.32-18.94,1.99Z"/><path class="cls-1" d="m221.54,19.94l19.09-5.05c5.2-1.37,10.78-1.28,16.58.29l-.78,3.91c-4.11-.54-8.93-.63-15.17-.28l-19.71,1.12Z"/><path class="cls-1" d="m297.55,220.86c-9.32,0-19.41-4.17-29.67-12.36-13.07-10.42-25.7-27.08-35.58-46.91-1.49-2.98-5.03-4.29-8.07-2.97-17.93,7.75-36.42,12.02-52.08,12.02-17.35,0-39.7-5.04-61.32-13.84-2.98-1.21-6.45.13-7.9,3.07-9.88,20.04-22.56,36.89-35.71,47.45-13.9,11.16-27.49,14.98-39.29,11.03-14.06-4.7-23.56-19.86-26.77-42.69-3.13-22.34.11-49.52,9.13-76.54,7.9-23.64,19.73-45.26,33.32-60.89l.06-.07c9.21-10.56,19.06-18.2,28.5-22.1.36-.15.73-.28,1.1-.39,5.63-1.68,11.92-2.32,19.79-2.02,6.72.26,14.02,1.16,22.47,2.19,13.8,1.7,30.98,3.8,52.6,3.8s39.79-1.77,54.06-3.19c7.08-.71,13.2-1.32,18.82-1.63,6.18-.35,11.02-.28,15.22.22.56.07,1.11.18,1.64.33,7.34,2.09,14.87,6.43,22.4,12.89,18.06,15.5,34.21,41.69,44.29,71.86,9.02,27.01,12.26,54.2,9.12,76.54-3.2,22.83-12.71,38-26.77,42.69h0c-3.02,1.01-6.15,1.51-9.38,1.51Zm-70.87-66.75c3.78,0,7.4,2.1,9.19,5.7,19.88,39.91,48.58,62.82,69.79,55.75h0c26.41-8.83,33.19-60.04,15.12-114.17-9.86-29.5-25.56-55.05-43.1-70.1-7.09-6.08-14.12-10.14-20.89-12.07-.33-.09-.66-.16-1.02-.2-3.96-.47-8.58-.53-14.53-.2-5.54.31-11.61.91-18.65,1.61-14.36,1.43-32.23,3.21-54.46,3.21s-39.18-2.13-53.09-3.83c-8.36-1.03-15.58-1.91-22.13-2.17-7.43-.28-13.3.31-18.5,1.86-.24.07-.48.16-.72.26-8.84,3.65-18.15,10.89-26.92,20.93l-.14.21-.13.1c-13.2,15.23-24.71,36.31-32.42,59.39-18.08,54.13-11.3,105.34,15.11,114.17,21.39,7.14,50.23-16.07,70.14-56.46,2.37-4.81,8.08-7,12.99-5,21.16,8.61,42.96,13.55,59.81,13.55,15.12,0,33.05-4.15,50.49-11.7,1.32-.57,2.69-.84,4.05-.84Z"/><path class="cls-1" d="m46.69,40.79l-3.08-2.55c2.65-3.36,5.72-6.73,9.14-10.03h0c6.47-6.23,12.84-10.17,20.04-12.39l1.33,3.77c-9,3.61-18.49,10.94-27.44,21.21Z"/><path class="cls-1" d="m277.68,31.29c-7.31-6.27-14.55-10.39-21.51-12.25l.78-3.92c9.24,1.23,15.93,4.68,21.69,11.19.64.72,1.26,1.44,1.87,2.17l-2.83,2.81Z"/><path class="cls-1" d="m123.06,19.79c-.44,0-.87-.04-1.27-.07-.38-.03-.76-.06-1.15-.06h-.12s-31.05-2.46-31.05-2.46c-1.38-.11-2.62-.11-3.81,0-1.6.14-3.42.18-4.81-1.09-1.16-1.06-1.72-2.81-1.72-5.33v-4.34c0-3.47,3.14-6.29,7-6.29h.11s33,2.5,33,2.5c1.45.11,2.73.3,3.92.59,3.62.88,4.96,2.33,4.96,5.36v2.17c0,4.23-.62,6.68-2.01,7.97-.94.86-2.04,1.06-3.07,1.06Zm-2.35-3.13c.45,0,.89.04,1.33.07,1.05.09,1.71.12,2.06-.2.39-.36,1.05-1.59,1.05-5.76v-2.17c0-1.31,0-1.8-2.67-2.45-1.03-.25-2.15-.42-3.44-.52l-32.94-2.49c-2.15.02-3.95,1.52-3.95,3.29v4.34c0,1.57.27,2.68.75,3.12.44.41,1.29.42,2.52.32,1.36-.12,2.76-.12,4.31,0l30.99,2.45Z"/><path class="cls-1" d="m209.23,19.79c-1.03,0-2.13-.19-3.07-1.06-1.39-1.28-2.01-3.74-2.01-7.97v-2.17c0-3.03,1.35-4.48,4.96-5.36,1.19-.29,2.47-.48,3.92-.59L246.14.14c3.86,0,7,2.82,7,6.29v4.34c0,2.53-.56,4.27-1.72,5.33-1.39,1.27-3.21,1.23-4.81,1.09-1.19-.1-2.44-.1-3.81,0l-31.16,2.46c-.39,0-.77.03-1.15.06-.4.03-.83.07-1.27.07ZM246.19,3.14l-32.94,2.49c-1.29.1-2.41.27-3.44.52-2.67.65-2.67,1.14-2.67,2.45v2.17c0,4.17.66,5.4,1.05,5.76.35.33,1.01.29,2.06.2.44-.04.88-.07,1.33-.07l30.99-2.45c1.54-.12,2.95-.12,4.31,0,1.22.11,2.07.09,2.52-.32.48-.44.75-1.55.75-3.12v-4.34c0-1.77-1.8-3.26-3.95-3.29Z"/><path class="cls-1" d="m238.38,141.31c-2.25-9.81-5.56-18.93-9.21-27.91-3.63-8.96-7.32-17.92-9.31-27.85-2-9.95-2.49-20.28-2.62-30.55-.15-11.75.16-23.53-.61-35.26-.14-2.15-2.63-2.17-2.49,0,1.34,20.61-.69,41.59,2.48,61.99,1.56,10.07,4.73,19.28,8.33,28.28,3.61,9,7.32,17.86,9.87,27.54,2.92,11.08,4.6,22.72,4.98,34.47.07,2.16,2.56,2.18,2.49,0-.34-10.41-1.64-20.76-3.92-30.71Z"/><path class="cls-1" d="m94.52,144.47c2.38-10.07,5.88-19.42,9.74-28.63,3.84-9.19,7.74-18.38,9.84-28.57,2.11-10.2,2.63-20.81,2.77-31.34.16-12.06-.17-24.14.64-36.17.15-2.2,2.84-2.22,2.63,0-1.99,20.87.73,42.66-2.62,63.58-1.65,10.33-5,19.78-8.81,29.01-3.81,9.23-7.74,18.32-10.44,28.25-3.09,11.37-4.86,23.3-5.26,35.36-.07,2.22-2.71,2.23-2.63,0,.36-10.68,1.73-21.29,4.14-31.5Z"/><path class="cls-1" d="m131.14,143.64c-8.82,0-16-7.18-16-16s7.18-16,16-16,16,7.18,16,16-7.18,16-16,16Zm0-30c-7.72,0-14,6.28-14,14s6.28,14,14,14,14-6.28,14-14-6.28-14-14-14Z"/><path class="cls-1" d="m200.14,143.64c-8.82,0-16-7.18-16-16s7.18-16,16-16,16,7.18,16,16-7.18,16-16,16Zm0-30c-7.72,0-14,6.28-14,14s6.28,14,14,14,14-6.28,14-14-6.28-14-14-14Z"/><path class="cls-1" d="m262.64,74.64c-3.58,0-6.5-2.92-6.5-6.5s2.92-6.5,6.5-6.5,6.5,2.92,6.5,6.5-2.92,6.5-6.5,6.5Zm0-12c-3.03,0-5.5,2.47-5.5,5.5s2.47,5.5,5.5,5.5,5.5-2.47,5.5-5.5-2.47-5.5-5.5-5.5Z"/><path class="cls-1" d="m276.64,88.64c-3.58,0-6.5-2.92-6.5-6.5s2.92-6.5,6.5-6.5,6.5,2.92,6.5,6.5-2.92,6.5-6.5,6.5Zm0-12c-3.03,0-5.5,2.47-5.5,5.5s2.47,5.5,5.5,5.5,5.5-2.47,5.5-5.5-2.47-5.5-5.5-5.5Z"/><path class="cls-1" d="m262.64,102.64c-3.58,0-6.5-2.92-6.5-6.5s2.92-6.5,6.5-6.5,6.5,2.92,6.5,6.5-2.92,6.5-6.5,6.5Zm0-12c-3.03,0-5.5,2.47-5.5,5.5s2.47,5.5,5.5,5.5,5.5-2.47,5.5-5.5-2.47-5.5-5.5-5.5Z"/><path class="cls-1" d="m248.64,88.64c-3.58,0-6.5-2.92-6.5-6.5s2.92-6.5,6.5-6.5,6.5,2.92,6.5,6.5-2.92,6.5-6.5,6.5Zm0-12c-3.03,0-5.5,2.47-5.5,5.5s2.47,5.5,5.5,5.5,5.5-2.47,5.5-5.5-2.47-5.5-5.5-5.5Z"/><path class="cls-1" d="m128,67.75c-4.46,0-7.24-.77-8.81-2.4-1.86-1.94-1.58-4.62-1.28-7.45.11-1.07.23-2.18.23-3.27v-24c0-1.92-.08-3.6-.15-5.08-.18-3.85-.29-6.39,1.37-7.73s4.56-1.14,11.92.81l71.71,1c7.1-2.35,10.46-2.7,12.37-1.29,1.99,1.47,1.93,4.4,1.83,8.83-.02,1.06-.05,2.21-.05,3.46v24c0,.95.06,1.88.13,2.79.19,2.77.37,5.38-1.45,7.33-1.86,2-5.46,2.88-11.68,2.88h-73c-1.13.07-2.17.11-3.14.11Zm-5.59-48.78c-.82,0-1.43.13-1.8.42-.87.7-.77,2.96-.62,6.08.07,1.5.15,3.21.15,5.17v24c0,1.19-.12,2.35-.24,3.48-.26,2.46-.48,4.58.74,5.85,1.42,1.48,4.83,2.03,10.44,1.67h73.06c5.46,0,8.81-.74,10.22-2.25,1.23-1.32,1.09-3.31.92-5.83-.07-.94-.13-1.91-.13-2.92v-24c0-1.26.03-2.43.05-3.5.08-3.67.14-6.33-1.02-7.18-1.25-.93-4.56-.42-10.71,1.63l-.16.05h-.17s-72.12-1-72.12-1l-.12-.03c-3.68-.98-6.62-1.64-8.47-1.64Z"/><path class="cls-1" d="m64.11,113.14h-3.94c-3.05,0-5.53-2.48-5.53-5.53v-9.97h-10.97c-3.05,0-5.53-2.48-5.53-5.53v-3.94c0-3.05,2.48-5.53,5.53-5.53h10.97v-10.97c0-3.05,2.48-5.53,5.53-5.53h3.94c3.05,0,5.53,2.48,5.53,5.53v10.97h9.97c3.05,0,5.53,2.48,5.53,5.53v3.94c0,3.05-2.48,5.53-5.53,5.53h-9.97v9.97c0,3.05-2.48,5.53-5.53,5.53Zm-20.44-29.5c-2.5,0-4.53,2.03-4.53,4.53v3.94c0,2.5,2.03,4.53,4.53,4.53h11.97v10.97c0,2.5,2.03,4.53,4.53,4.53h3.94c2.5,0,4.53-2.03,4.53-4.53v-10.97h10.97c2.5,0,4.53-2.03,4.53-4.53v-3.94c0-2.5-2.03-4.53-4.53-4.53h-10.97v-11.97c0-2.5-2.03-4.53-4.53-4.53h-3.94c-2.5,0-4.53,2.03-4.53,4.53v11.97h-11.97Z"/></svg>