<?xml version="1.0" encoding="UTF-8"?><svg id="Layer_1" xmlns="http://www.w3.org/2000/svg" width="663.31" height="997.8" viewBox="0 0 663.31 997.8"><defs><style>.cls-1{fill:#231f20;opacity:.2;}.cls-1,.cls-2,.cls-3{stroke-width:0px;}.cls-2{fill:#e6e6e5;}.cls-3{fill:#cc9a6f;}</style></defs><path class="cls-3" d="m331.3,625.69c241.54-150.61,234.78-349.7,213.76-445.74C486.03,77.23,408.87,2.05,323.3,2.21,132.05,2.63,1.79,381.42,1.79,595.76c0,36.35,3.71,71.88,10.88,105.77h.08c85.4,14.76,193.15,2.31,318.54-75.84ZM167.48,165.73c25.79-40.25,60.18-75.88,88.5-96.29,8.4-6.05-.04,13.95-6.36,21.77-24.91,30.82-32.1,43.17-57.54,77.02-28.88,38.42-45.42,88.52-60.87,109.82-4.19,5.77-17.39,16.27-15.97,9.02,6.19-31.63,27.38-82.54,52.24-121.34Z"/><path class="cls-2" d="m131.22,278.05c15.46-21.31,32-71.41,60.87-109.82,25.44-33.84,32.63-46.2,57.54-77.02,6.31-7.81,14.76-27.82,6.36-21.77-28.32,20.41-62.72,56.04-88.5,96.29-24.86,38.8-46.04,89.71-52.24,121.34-1.42,7.26,11.78-3.24,15.97-9.02Z"/><path class="cls-3" d="m545.06,179.95c21.02,96.04,27.78,295.13-213.76,445.74-125.39,78.15-233.13,90.6-318.54,75.84,34.95,166.11,151.68,294.05,310.54,294.05,191.25,0,331.15-177.4,337.99-391.58,3.79-120.36-41.63-294.22-116.24-424.06Z"/><path class="cls-1" d="m545.06,179.95c21.02,96.04,27.78,295.13-213.76,445.74-125.39,78.15-233.13,90.6-318.54,75.84,34.95,166.11,151.68,294.05,310.54,294.05,191.25,0,331.15-177.4,337.99-391.58,3.79-120.36-41.63-294.22-116.24-424.06Z"/></svg>