<svg width="110" height="125" viewBox="0 0 110 125" fill="none" xmlns="http://www.w3.org/2000/svg">
<path fill-rule="evenodd" clip-rule="evenodd" d="M48.1022 8.52619C48.6876 9.11234 48.6871 10.0621 48.1009 10.6475C40.8517 17.8876 33.8772 30.3781 29.7028 40.0049C27.6113 44.8284 25.3872 49.5892 23.1695 54.3363C19.3659 62.4782 15.5813 70.5795 12.5167 78.8869C12.23 79.6642 11.3675 80.0618 10.5903 79.7751C9.81304 79.4884 9.4154 78.6259 9.70212 77.8486C12.8015 69.4469 16.6914 61.1156 20.5378 52.8777C22.742 48.1568 24.9318 43.4667 26.9504 38.8114C31.1784 29.061 38.3338 16.1623 45.9809 8.52486C46.5671 7.93944 47.5168 7.94003 48.1022 8.52619Z" fill="#49220C"/>
<path fill-rule="evenodd" clip-rule="evenodd" d="M20.7541 71.3784C17.5416 69.5459 13.1333 69.1753 9.99337 70.7182C9.1874 71.1142 8.09199 71.9001 7.00606 72.848C6.61142 73.1925 6.2326 73.5457 5.88317 73.8928C6.61717 73.5422 7.50029 73.8413 7.86835 74.5712C8.24137 75.3109 7.94413 76.2129 7.20443 76.5859C6.07886 77.1536 5.15629 77.5472 4.41941 77.7722C4.05122 77.8846 3.6875 77.9681 3.34191 77.9987C3.01641 78.0276 2.57588 78.0223 2.13958 77.8343C1.62937 77.6146 1.23175 77.1867 1.07597 76.6194C0.943388 76.1365 1.02523 75.6956 1.1077 75.4113C1.27275 74.8423 1.62946 74.2738 1.98196 73.7931C2.72185 72.7841 3.85594 71.6157 5.03318 70.588C6.20347 69.5664 7.52569 68.5881 8.67037 68.0256C12.85 65.9719 18.3164 66.5341 22.2405 68.7725C24.2277 69.9061 25.9313 71.5308 26.861 73.6051C27.8071 75.7161 27.8908 78.163 26.8384 80.7575C26.5943 81.3594 26.3552 81.8562 26.1553 82.2507C26.3262 82.2818 26.5176 82.3157 26.733 82.3538C26.9978 82.4007 27.299 82.4541 27.6433 82.5166C34.2787 83.7212 40.7743 86.1529 46.0611 90.8185C47.9679 92.5012 49.2185 94.1159 49.909 95.7809C50.6104 97.4725 50.6841 99.0965 50.4344 100.697C50.1921 102.25 49.6354 103.823 49.0696 105.395C49.0382 105.482 49.0067 105.569 48.975 105.657C48.4241 107.185 47.8492 108.78 47.4003 110.591C47.201 111.395 46.3876 111.885 45.5835 111.686C44.7794 111.486 44.2891 110.673 44.4885 109.869C44.9758 107.903 45.5988 106.176 46.1439 104.665C46.1786 104.568 46.213 104.473 46.247 104.378C46.8287 102.763 47.2795 101.457 47.4703 100.235C47.6536 99.0595 47.5862 98.0113 47.1378 96.93C46.6784 95.8222 45.7706 94.5633 44.076 93.0678C39.3266 88.8765 33.401 86.6109 27.1074 85.4683C26.8346 85.4188 26.5747 85.3728 26.3296 85.3294C25.6262 85.2049 25.0449 85.102 24.6286 84.999C24.3492 84.9298 23.9982 84.8282 23.683 84.6475C23.3273 84.4436 22.8969 84.0654 22.7473 83.4304C22.6199 82.8896 22.7667 82.4216 22.8527 82.1868C22.9469 81.9296 23.0828 81.6627 23.195 81.4454C23.2234 81.3902 23.2526 81.334 23.2826 81.2763C23.5088 80.8409 23.7757 80.3269 24.0584 79.6299C24.8225 77.7462 24.7148 76.1517 24.1233 74.832C23.5154 73.4756 22.3352 72.2803 20.7541 71.3784ZM25.6698 83.2183C25.6701 83.2173 25.6705 83.2163 25.6709 83.2152C25.6646 83.2377 25.6618 83.2401 25.6698 83.2183ZM3.04909 75.0118C3.04922 75.0116 3.0533 75.0114 3.06093 75.0116C3.05277 75.012 3.04895 75.0119 3.04909 75.0118Z" fill="#49220C"/>
<path fill-rule="evenodd" clip-rule="evenodd" d="M36.3382 86.4771C37.1666 86.4771 37.8382 87.1486 37.8382 87.9771C37.8382 88.5427 37.6281 89.0338 37.4316 89.386C37.2247 89.7569 36.9545 90.1111 36.6743 90.4337C36.1134 91.0794 35.3864 91.7409 34.6745 92.3398C33.9547 92.9453 33.2063 93.5233 32.5836 93.9984C32.4588 94.0937 32.3411 94.1832 32.2309 94.2671C31.7643 94.6222 31.431 94.8759 31.248 95.033C30.7735 95.4405 29.7358 96.1606 28.6219 96.9184C28.0797 97.2874 27.5151 97.6679 26.9482 98.05C26.3161 98.4761 25.6811 98.904 25.0712 99.3199C25.0943 99.3404 25.1171 99.3612 25.1396 99.3821C25.9375 100.125 26.4482 101.164 26.6703 102.056C27.2155 104.247 27.7524 105.664 28.5692 106.798C29.3742 107.916 30.5416 108.88 32.5673 109.976C34.806 111.187 37.8325 111.466 41.0747 111.122C44.2866 110.782 47.522 109.849 50.0242 108.844C50.793 108.535 51.6665 108.908 51.9753 109.676C52.2842 110.445 51.9114 111.319 51.1427 111.627C48.4379 112.714 44.931 113.73 41.3911 114.105C37.8814 114.478 34.1465 114.241 31.1401 112.615C28.8957 111.401 27.3024 110.172 26.135 108.552C24.9792 106.947 24.3317 105.081 23.7591 102.781C23.646 102.326 23.3818 101.844 23.0956 101.578C22.9639 101.455 22.8772 101.424 22.8479 101.417C22.8475 101.417 22.847 101.417 22.8465 101.417C22.8366 101.414 22.8013 101.404 22.7045 101.448C22.4455 101.563 22.2119 101.66 22.0138 101.728C21.9165 101.762 21.7978 101.799 21.672 101.826L21.6694 101.827C21.5899 101.844 21.3113 101.904 20.9825 101.842C20.8007 101.807 20.4502 101.707 20.1478 101.388C19.8065 101.027 19.7137 100.588 19.7336 100.249C19.7509 99.9549 19.8485 99.7361 19.9011 99.632C19.9605 99.5142 20.0244 99.4232 20.0682 99.3652C20.2188 99.166 20.4132 98.9955 20.5316 98.8947C21.0662 98.4395 22.1376 97.6902 23.2817 96.9091C23.9081 96.4814 24.6062 96.0108 25.2916 95.5487C25.8645 95.1625 26.4285 94.7823 26.9344 94.4381C28.1111 93.6375 28.9781 93.0279 29.2937 92.7569C29.5508 92.5361 29.9828 92.2076 30.4532 91.8498C30.5554 91.7721 30.6595 91.693 30.7639 91.6133C31.38 91.1433 32.081 90.6012 32.7432 90.0441C33.4134 89.4803 34.0011 88.9364 34.4094 88.4664C34.6137 88.2312 34.7417 88.0499 34.8119 87.9242C34.8256 87.8995 34.8355 87.8801 34.8423 87.8656C34.8993 87.0892 35.5473 86.4771 36.3382 86.4771ZM34.856 87.8329C34.8561 87.8329 34.8557 87.8341 34.8548 87.8367C34.8555 87.8342 34.856 87.8329 34.856 87.8329Z" fill="#49220C"/>
<path fill-rule="evenodd" clip-rule="evenodd" d="M20.9844 71.5636C21.2372 71.7087 21.4552 71.8996 21.6296 72.0708C22.2209 72.651 22.23 73.6007 21.6498 74.192C21.6223 74.2199 21.5941 74.2466 21.5651 74.2719C21.6433 74.5878 21.7443 74.9618 21.8676 75.3902C22.0515 76.0293 22.2564 76.6965 22.4631 77.3698C22.6011 77.8193 22.74 78.2715 22.874 78.7199C23.1845 79.7585 23.4911 80.8442 23.5723 81.5614C24.1456 86.6254 23.1655 92.3241 22.2269 97.0319C22.1765 97.2848 22.0511 97.5713 21.9839 97.7231C21.8891 97.9371 21.7652 98.1945 21.6225 98.4709C21.3395 99.0189 20.9563 99.6917 20.5391 100.288C20.3306 100.585 20.0972 100.887 19.8477 101.153C19.6143 101.4 19.2888 101.701 18.8845 101.899C18.458 102.108 17.7357 102.287 17.0114 101.863C16.3832 101.495 16.1221 100.872 16.0006 100.455C15.7744 99.6778 15.4536 99.4572 15.2111 99.3552C14.8675 99.2105 14.3497 99.1766 13.5907 99.2772C13.2273 99.3253 12.8558 99.3968 12.4621 99.4754C12.4211 99.4836 12.3796 99.492 12.3375 99.5004C11.9957 99.569 11.6223 99.6439 11.2779 99.694C10.9032 99.7485 10.4338 99.7951 9.97337 99.7319C9.49348 99.6659 8.84387 99.452 8.39615 98.8243C8.17812 98.5186 8.12463 98.2129 8.10685 98.0751C8.08593 97.9129 8.08984 97.7694 8.0965 97.6699C8.1099 97.4695 8.14783 97.2682 8.18561 97.0989C8.26344 96.7502 8.38976 96.3254 8.53504 95.878C8.82883 94.9734 9.25176 93.8206 9.67902 92.6768C9.80863 92.3298 9.93862 91.9837 10.0663 91.6436C10.3652 90.8478 10.6516 90.0852 10.8916 89.4222C11.0624 88.9502 11.2035 88.5458 11.3047 88.2295C11.398 87.9382 11.4321 87.7974 11.4409 87.7613C11.4429 87.7528 11.4436 87.7501 11.4433 87.7525C11.8985 84 10.967 80.4202 9.95468 76.5303C9.82962 76.0497 9.70332 75.5643 9.57825 75.0734C9.37376 74.2706 9.85877 73.454 10.6616 73.2495C11.4644 73.045 12.2809 73.53 12.4854 74.3328C12.6062 74.8069 12.7318 75.2867 12.8589 75.7719C13.8604 79.5953 14.9502 83.7558 14.4215 88.1138C14.3836 88.4259 14.2665 88.8174 14.1619 89.1442C14.0435 89.5139 13.8876 89.9594 13.7125 90.4432C13.4661 91.124 13.1693 91.9142 12.8673 92.7183C12.7411 93.0543 12.6141 93.3927 12.4894 93.7265C12.0919 94.7907 11.718 95.8102 11.4496 96.6182C11.5456 96.5994 11.6466 96.5792 11.7538 96.5577C11.7931 96.5498 11.8333 96.5418 11.8743 96.5336C12.2692 96.4547 12.7262 96.3655 13.1968 96.3031C14.106 96.1827 15.279 96.1286 16.3754 96.5903C17.1675 96.9238 17.8156 97.4797 18.2908 98.2543C18.5339 97.8761 18.7669 97.4624 18.9569 97.0944C19.0777 96.8605 19.1747 96.6576 19.2409 96.5081C19.2729 96.4358 19.2912 96.3905 19.3004 96.3673C20.2373 91.6577 21.1028 86.417 20.5913 81.8989C20.5463 81.5011 20.332 80.6909 19.9997 79.579C19.8801 79.1791 19.7468 78.7444 19.6103 78.2997C19.3953 77.5988 19.1726 76.8732 18.9846 76.22C18.6904 75.1979 18.3967 74.082 18.3685 73.3323C18.3612 73.1378 18.3641 72.8379 18.4573 72.5264C18.5497 72.2174 18.8359 71.5948 19.5879 71.3724C20.243 71.1786 20.778 71.445 20.9844 71.5636ZM18.896 99.6595C18.8958 99.6599 18.893 99.6538 18.8883 99.6397C18.8939 99.6519 18.8963 99.659 18.896 99.6595ZM21.3663 73.1941C21.3664 73.1943 21.3665 73.1984 21.3661 73.2059C21.366 73.1978 21.3662 73.194 21.3663 73.1941Z" fill="#49220C"/>
<path fill-rule="evenodd" clip-rule="evenodd" d="M75.8649 22.6848C76.4516 22.0999 77.4014 22.1014 77.9862 22.6882C79.7298 24.4372 80.1094 26.7631 79.8375 29.0489C79.5677 31.3177 78.6418 33.7446 77.5104 36.0255C75.4423 40.195 72.4991 44.2372 70.8625 46.4848C70.7055 46.7004 70.5606 46.8995 70.4295 47.0806C65.7846 53.5014 60.4831 59.5502 55.2362 65.5368C54.4133 66.4756 53.5918 67.4128 52.7744 68.3498C46.7207 75.2889 40.8736 82.2277 36.1682 89.7816C35.7302 90.4848 34.8051 90.6997 34.1019 90.2617C33.3987 89.8237 33.1838 88.8986 33.6218 88.1954C38.4667 80.4177 44.4567 73.3205 50.5138 66.3776C51.3393 65.4314 52.1656 64.4884 52.9907 63.547C58.2439 57.5527 63.4429 51.6202 67.9989 45.3223C68.1325 45.1376 68.278 44.9376 68.4337 44.7235C70.0816 42.4587 72.8754 38.6187 74.8229 34.6924C75.8906 32.5398 76.6475 30.4691 76.8585 28.6945C77.0676 26.9368 76.7263 25.6736 75.8616 24.8061C75.2767 24.2194 75.2782 23.2696 75.8649 22.6848Z" fill="#49220C"/>
<path fill-rule="evenodd" clip-rule="evenodd" d="M68.2962 16.1782C69.1246 16.1782 69.7962 16.8497 69.7962 17.6782C69.7962 18.5385 69.3243 19.2392 68.9782 19.6668C68.5927 20.1432 68.1058 20.5875 67.6567 20.963C67.2343 21.3161 66.7944 21.6498 66.4339 21.9231C66.4058 21.9444 66.3783 21.9653 66.3512 21.9859C65.9308 22.3049 65.7105 22.4791 65.6243 22.5654C62.0566 26.139 58.9105 30.0871 55.7031 34.1122C55.4376 34.4453 55.1718 34.7789 54.9052 35.1129C51.4387 39.4564 47.8634 43.8487 43.6638 47.7281C43.5247 47.8566 43.3045 48.0562 43.0144 48.319C40.7447 50.3753 34.1973 56.3074 28.7281 62.4443C25.6281 65.9227 22.9756 69.3575 21.6214 72.1222C20.9368 73.5197 20.6727 74.5721 20.7101 75.287C20.7401 75.8612 20.9491 76.2286 21.5327 76.5208C22.2735 76.8917 22.5733 77.7929 22.2023 78.5337C21.8314 79.2744 20.9302 79.5742 20.1895 79.2033C18.6076 78.4112 17.7985 77.0583 17.7142 75.4435C17.6371 73.9694 18.1624 72.3641 18.9272 70.8025C20.4718 67.6492 23.3585 63.9604 26.4885 60.4483C32.0829 54.1708 38.778 48.1079 41.0117 46.085C41.2901 45.833 41.4992 45.6436 41.6282 45.5244C45.641 41.8176 49.0891 37.5911 52.5604 33.2415C52.8314 32.902 53.1026 32.5617 53.3742 32.2207C56.5612 28.2206 59.809 24.1442 63.5012 20.4459C63.7617 20.1849 64.1702 19.875 64.511 19.6163L64.6111 19.5403C64.9808 19.2599 65.3671 18.9668 65.7325 18.6614C66.1284 18.3304 66.4422 18.0317 66.6462 17.7795C66.7378 17.6664 66.7817 17.594 66.8008 17.5589C66.8616 16.7862 67.5079 16.1782 68.2962 16.1782Z" fill="#49220C"/>
<path fill-rule="evenodd" clip-rule="evenodd" d="M54.4549 7.31745C51.4307 9.95627 48.6618 13.3655 47.3679 15.9306C46.9948 16.6703 46.0928 16.9675 45.3531 16.5944C44.6135 16.2213 44.3163 15.3192 44.6894 14.5796C46.203 11.5788 49.2531 7.87486 52.4824 5.05702C54.1048 3.64135 55.83 2.39818 57.4937 1.57253C59.111 0.769912 60.9059 0.244039 62.5524 0.628138C66.6727 1.58931 69.8787 4.03901 72.6957 6.63974C73.6216 7.49455 74.5407 8.40032 75.4357 9.28242C75.8896 9.72967 76.3372 10.1708 76.7765 10.5962C78.109 11.8865 79.4142 13.0826 80.781 14.0922C84.0843 16.5323 87.6453 18.1901 91.29 19.8868C92.841 20.6089 94.4072 21.338 95.9751 22.1374C101.125 24.7633 106.011 28.0548 109.109 34.1981C109.482 34.9378 109.185 35.8398 108.446 36.2129C107.706 36.5859 106.804 36.2887 106.431 35.549C103.755 30.2441 99.5399 27.3225 94.6124 24.8101C93.2439 24.1123 91.7953 23.4375 90.3087 22.745C86.5542 20.996 82.5576 19.1343 78.9985 16.5052C77.4678 15.3745 76.048 14.0669 74.6895 12.7513C74.2091 12.2861 73.7417 11.8254 73.2791 11.3694C72.4076 10.5103 71.5532 9.66797 70.6606 8.84399C67.9544 6.34554 65.2188 4.3307 61.8709 3.5497C61.245 3.40371 60.2318 3.56282 58.8273 4.2598C57.4693 4.93375 55.9592 6.00479 54.4549 7.31745Z" fill="#49220C"/>
<path fill-rule="evenodd" clip-rule="evenodd" d="M90.5188 47.4268C89.7617 48.2051 89.2479 48.7554 89.0486 49.0559C87.9713 50.6809 86.9621 52.3341 85.9363 54.0145C85.6367 54.5053 85.3356 54.9984 85.0311 55.4938C83.6939 57.669 82.3017 59.8662 80.7257 61.9791C76.4444 67.7189 71.9213 73.3219 67.4168 78.9019C66.1525 80.468 64.8896 82.0324 63.634 83.5974C57.8923 90.754 52.2853 97.9449 47.2789 105.496C46.8211 106.186 45.8903 106.375 45.1998 105.917C44.5094 105.459 44.3208 104.528 44.7786 103.838C49.864 96.1678 55.5424 88.8891 61.294 81.7201C62.5627 80.1388 63.8341 78.5638 65.1036 76.9911C69.6024 71.4182 74.0775 65.8745 78.3209 60.1855C79.813 58.1851 81.1475 56.0827 82.4754 53.9227C82.7688 53.4454 83.0625 52.9642 83.3577 52.4807C84.3885 50.792 85.4368 49.0746 86.5482 47.3982C86.9395 46.808 87.6967 46.0255 88.3685 45.3349C88.4497 45.2514 88.5311 45.1678 88.6125 45.0843C89.1852 44.4967 89.7535 43.9134 90.2267 43.3773C89.8539 43.1716 89.5708 42.8094 89.4802 42.3593C89.3169 41.5472 89.8429 40.7564 90.6551 40.593C91.2802 40.4673 91.9462 40.3912 92.5312 40.5238C92.8465 40.5952 93.2461 40.7513 93.5765 41.0991C93.9293 41.4704 94.0712 41.9208 94.0864 42.3249C94.1118 42.9993 93.7898 43.5875 93.5895 43.9152C93.3481 44.31 93.0305 44.7161 92.7046 45.0989C92.1269 45.7773 91.4023 46.5204 90.7611 47.1781C90.6788 47.2625 90.5979 47.3455 90.5188 47.4268ZM91.1182 42.1847C91.1182 42.1847 91.1175 42.1868 91.1158 42.1911C91.1172 42.1869 91.1181 42.1848 91.1182 42.1847Z" fill="#49220C"/>
<path fill-rule="evenodd" clip-rule="evenodd" d="M40.2811 104.43C40.9706 104.889 41.1573 105.82 40.6981 106.51C38.9753 109.096 36.1433 110.483 33.2094 111.408C31.2383 112.029 29.0227 112.493 26.8906 112.94C25.8885 113.15 24.9048 113.356 23.9736 113.573C20.9325 114.281 18.333 115.119 16.4945 116.522C14.7634 117.843 13.6215 119.731 13.6215 122.874C13.6215 123.702 12.9499 124.374 12.1215 124.374C11.293 124.374 10.6215 123.702 10.6215 122.874C10.6215 118.823 12.1782 116.042 14.6744 114.137C17.0633 112.314 20.2198 111.367 23.2934 110.651C24.3728 110.4 25.4347 110.178 26.4741 109.961C28.5181 109.533 30.4751 109.124 32.3078 108.546C35.0359 107.687 37.0546 106.568 38.2012 104.847C38.6604 104.157 39.5916 103.97 40.2811 104.43Z" fill="#49220C"/>
<path fill-rule="evenodd" clip-rule="evenodd" d="M7.32634 73.9679C7.51887 74.5503 7.74442 75.2468 7.85394 75.8691C9.10659 82.987 10.079 91.0636 10.079 98.3581C10.079 100.252 9.40157 102.029 8.569 103.628C7.95122 104.815 7.1854 106.013 6.46715 107.137C6.22892 107.51 5.99591 107.875 5.77528 108.228C3.8552 111.302 2.89373 113.535 3.91507 115.645C4.27593 116.391 3.96396 117.288 3.21826 117.649C2.47256 118.01 1.57551 117.698 1.21465 116.952C-0.614399 113.173 1.4312 109.52 3.2308 106.639C3.48977 106.224 3.74725 105.821 3.99981 105.426C4.69716 104.334 5.3571 103.301 5.90793 102.243C6.64839 100.821 7.07901 99.5493 7.07901 98.3581C7.07901 91.3 6.13487 83.4097 4.89934 76.3891C4.83377 76.0165 4.68131 75.5247 4.47793 74.9095C4.45543 74.8414 4.43223 74.7716 4.40856 74.7004C4.23646 74.1827 4.03996 73.5916 3.91498 73.0684C3.84291 72.7666 3.77839 72.4244 3.76442 72.0836C3.75151 71.7688 3.77228 71.2794 4.02999 70.8065C4.34031 70.237 4.87964 69.8963 5.48274 69.8101C5.99201 69.7372 6.47917 69.8521 6.86509 69.985C7.64837 70.2547 8.06467 71.1084 7.79493 71.8917C7.64879 72.316 7.33126 72.6327 6.9464 72.7909C7.03135 73.0781 7.13724 73.3974 7.25532 73.7535C7.27855 73.8235 7.30224 73.895 7.32634 73.9679ZM6.762 71.9335C6.76223 71.9337 6.76231 71.939 6.76155 71.9486C6.76139 71.9381 6.76177 71.9333 6.762 71.9335Z" fill="#49220C"/>
</svg>
