<svg width="193" height="193" viewBox="0 0 193 193" fill="none" xmlns="http://www.w3.org/2000/svg">
<circle cx="96.5" cy="96.5" r="96.5" fill="url(#paint0_linear_173_618)"/>
<path d="M129.512 92.0576C126.908 92.4971 124.637 94.2061 122.701 97.1846C120.813 100.082 119.82 102.946 119.722 105.778C123.449 100.863 126.713 96.2894 129.512 92.0576ZM128.389 89.9824L129.829 90.1777C130.057 90.1777 130.293 90.0475 130.537 89.7871C130.798 89.5267 131.123 89.3965 131.514 89.3965C131.921 89.3965 132.238 89.5023 132.466 89.7139C132.71 89.9255 132.832 90.1126 132.832 90.2754C132.832 90.4219 132.751 90.6742 132.588 91.0322C132.426 91.3903 132.328 91.6263 132.295 91.7402C130.131 98.5273 129.048 102.857 129.048 104.729C129.065 105.38 129.211 105.713 129.488 105.729C130.481 105.729 132.035 104.427 134.151 101.823C135.567 100.082 136.478 98.804 136.885 97.9902C137.308 97.1764 137.642 96.7451 137.886 96.6963C137.935 96.6963 137.976 96.6882 138.008 96.6719C138.301 96.7044 138.456 96.8753 138.472 97.1846C138.472 97.7705 137.797 99.0889 136.446 101.14C133.565 105.534 131.075 107.731 128.975 107.731C127.461 107.731 126.704 106.674 126.704 104.558C126.704 103.549 126.908 102.295 127.315 100.798C127.722 99.2842 127.966 98.3402 128.047 97.9658C127.673 98.4541 126.42 100.228 124.287 103.288C122.155 106.348 120.625 108.155 119.698 108.708C119.405 108.871 119.152 108.96 118.941 108.977C118.013 108.977 117.338 108.61 116.914 107.878C116.719 107.52 116.621 107.007 116.621 106.34C116.605 105.656 117.102 104.094 118.111 101.652C119.738 97.7135 121.586 94.6781 123.653 92.5459C125.28 90.8857 126.859 90.0312 128.389 89.9824Z" fill="#49220C"/>
<path d="M106.709 90.2266L107.051 90.1777C107.897 90.194 108.312 90.43 108.296 90.8857C108.28 91.0811 108.231 91.2845 108.149 91.4961C108.068 91.6914 107.791 92.2936 107.319 93.3027C106.733 94.556 106.497 95.4186 106.611 95.8906V96.0371L108.418 93.3027C109.59 91.5286 110.461 90.2428 111.03 89.4453C111.193 89.2337 111.47 89.1279 111.86 89.1279C112.251 89.1279 112.568 89.2337 112.813 89.4453C113.073 89.6406 113.211 89.7952 113.228 89.9092L113.081 90.2754C110.151 97.388 108.687 102.466 108.687 105.51C108.687 106.779 109.102 107.536 109.932 107.78C110.697 107.992 111.478 107.764 112.275 107.097C114.505 105.306 116.499 102.987 118.257 100.139L118.721 99.3574C118.883 99.097 119.136 98.9424 119.478 98.8936C119.917 98.8936 120.137 99.1296 120.137 99.6016C120.137 100.448 119.201 101.97 117.329 104.167C115.474 106.348 114.09 107.78 113.179 108.464C112.284 109.147 111.299 109.489 110.225 109.489C109.167 109.489 108.296 108.854 107.612 107.585C107.14 106.706 106.904 105.689 106.904 104.533C106.904 103.378 107.173 101.84 107.71 99.9189C108.263 97.9821 108.564 96.8184 108.613 96.4277C108.662 96.0371 108.678 95.8174 108.662 95.7686C107.897 96.7614 107.018 98.153 106.025 99.9434L104.072 103.386C103.779 103.858 103.486 104.094 103.193 104.094C102.38 104.094 101.973 103.597 101.973 102.604C101.973 102.149 102.29 101.278 102.925 99.9922C103.56 98.7064 103.877 97.7786 103.877 97.209C103.649 97.5833 103.258 98.2913 102.705 99.333C101.501 101.595 99.9137 103.711 97.9443 105.681C97.1956 106.413 96.4958 106.853 95.8447 106.999C94.8845 106.885 94.6078 106.633 95.0147 106.242C96.1214 105.168 97.0166 104.208 97.7002 103.361C99.1325 101.587 100.158 99.5527 100.776 97.2578C101.411 94.9466 101.769 93.5957 101.851 93.2051C101.932 92.8145 102.087 92.1797 102.314 91.3008L102.803 89.5674C103.047 88.5257 103.324 87.8665 103.633 87.5898C103.958 87.3132 104.333 87.1748 104.756 87.1748C105.553 87.1748 105.952 87.4352 105.952 87.9561C105.952 88.4443 105.334 89.958 104.097 92.4971C102.86 95.0199 102.103 96.6719 101.826 97.4531C101.924 97.3392 102.209 96.9079 102.681 96.1592C103.153 95.4105 103.429 94.971 103.511 94.8408C103.608 94.7106 103.787 94.4176 104.048 93.9619C105.431 91.4717 106.318 90.2266 106.709 90.2266Z" fill="#49220C"/>
<path d="M98.0422 93.0831C97.798 92.5297 97.4806 92.253 97.09 92.253C96.9761 92.253 96.8866 92.2693 96.8215 92.3018C95.4054 92.8552 93.436 93.9701 90.9133 95.6465C88.4067 97.323 87.1128 98.5355 87.0314 99.2842C87.0477 99.4307 87.1454 99.5202 87.3244 99.5528C87.8127 99.5528 88.7404 99.1622 90.1076 98.3809C91.4911 97.5834 92.2479 97.1521 92.3781 97.087C92.5083 97.0381 92.7362 96.9161 93.0617 96.7207L93.7697 96.3057C96.4878 94.792 97.912 93.7178 98.0422 93.0831ZM93.5744 101.433V101.359C93.7046 100.546 93.7697 100.106 93.7697 100.041C93.7534 99.7806 93.5174 99.6504 93.0617 99.6504C92.606 99.6342 92.1014 99.7481 91.548 99.9922C91.0109 100.236 89.8146 100.887 87.9592 101.945C86.1037 102.987 84.5575 103.508 83.3205 103.508C82.9299 103.508 82.4497 103.329 81.8801 102.971C80.7733 102.255 80.7489 101.254 81.8068 99.9678C82.6206 99.0401 83.9959 97.8601 85.9328 96.4278L90.3761 93.1075C93.55 90.7637 95.6333 89.6 96.6261 89.6163C97.619 89.6325 98.5955 90.2103 99.5558 91.3497C99.1489 91.5775 98.8804 92.1635 98.7502 93.1075C98.7664 93.0912 98.8641 93.0831 99.0431 93.0831C99.2222 93.0831 99.3931 93.1319 99.5558 93.2295C99.7349 93.3109 99.8244 93.6853 99.8244 94.3526C99.8244 95.0036 99.7593 95.3373 99.6291 95.3536C99.4012 95.3536 98.9373 95.6709 98.2375 96.3057C97.5376 96.9242 97.0168 97.502 96.675 98.0391C96.3657 100.562 95.8286 103.524 95.0636 106.926C93.436 114.136 91.7108 119.165 89.8879 122.014C89.3345 122.86 88.659 123.682 87.8615 124.48C86.0711 126.205 84.4273 127.067 82.9299 127.067C82.2137 127.067 81.8556 126.897 81.8556 126.555C81.8719 126.425 82.0998 126.302 82.5392 126.189C82.995 126.091 83.4995 125.879 84.0529 125.554C85.2085 124.854 86.1525 123.918 86.8849 122.746C88.2358 120.598 89.3914 117.969 90.3517 114.86C91.3283 111.752 92.4025 107.276 93.5744 101.433Z" fill="#49220C"/>
<path d="M78.6088 85.4902C78.5274 85.4576 78.324 85.3274 77.9984 85.0996C77.6078 84.8229 77.4125 84.6194 77.4125 84.4892C77.4125 84.0498 78.0229 83.0162 79.2436 81.3886C80.4643 79.761 81.156 78.7845 81.3188 78.4589C81.7257 78.052 82.2872 78.2555 83.0033 79.0693C83.573 79.7529 83.752 80.3063 83.5404 80.7295C83.4265 81.1526 82.7348 82.0478 81.4652 83.415C80.1957 84.7822 79.2436 85.4739 78.6088 85.4902ZM84.4438 100.822C83.8415 102.515 82.6453 104.24 80.8549 105.998C78.739 108.081 76.9649 109.123 75.5326 109.123C73.5958 109.123 72.3832 108.024 71.8949 105.827C71.7484 105.16 71.6752 104.436 71.6752 103.654C71.6589 101.131 72.1391 98.2099 73.1156 94.8896C74.3363 90.6904 75.4919 88.5908 76.5824 88.5908C77.1195 88.5908 77.5102 88.721 77.7543 88.9814C78.0147 89.2255 78.1449 89.4046 78.1449 89.5185C78.1449 90.0393 77.616 91.3252 76.558 93.3759C75.5001 95.4104 74.8409 96.8916 74.5805 97.8193C74.3363 98.7308 74.1492 99.927 74.019 101.408C73.905 102.873 73.8481 103.817 73.8481 104.24C73.8481 105.672 74.019 106.568 74.3608 106.926C74.7188 107.284 75.1501 107.471 75.6547 107.487C77.087 107.487 78.796 106.242 80.7817 103.752C81.7419 102.531 82.4906 101.408 83.0277 100.383C83.2719 99.9921 83.5242 99.7968 83.7846 99.7968C84.224 99.8619 84.4682 100.082 84.517 100.456C84.517 100.505 84.4926 100.627 84.4438 100.822Z" fill="#49220C"/>
<path d="M59.1504 107.341C58.1087 108.952 56.9287 110.197 55.6104 111.076C54.292 111.971 53.2178 112.419 52.3877 112.419C51.5576 112.419 51.1426 112.248 51.1426 111.906C51.1426 111.792 51.2484 111.711 51.46 111.662C51.6553 111.613 51.7611 111.581 51.7773 111.564C54.9674 110.865 57.4495 107.691 59.2236 102.043C59.6143 100.806 60.0944 98.9749 60.6641 96.5498L62.3486 89.3721H61.7627C61.5186 89.3558 61.3883 89.2256 61.3721 88.9814C61.3721 88.2816 61.6569 87.6956 62.2266 87.2236C62.4544 87.0446 62.6904 86.9307 62.9346 86.8818C63.9437 82.6501 64.5866 80.2656 64.8633 79.7285C65.1562 79.1751 65.4818 78.8659 65.8398 78.8008C66.1979 78.7357 66.5723 78.7031 66.9629 78.7031C67.4186 78.7031 67.6383 78.9229 67.6221 79.3623C67.6221 79.7204 67.5895 80.0133 67.5244 80.2412C70.8122 80.1436 74.1406 80.0703 77.5098 80.0215C78.0143 80.0215 78.4049 80.3633 78.6816 81.0469C78.763 81.2585 78.8118 81.4375 78.8281 81.584C78.8118 81.9258 78.1934 82.0967 76.9727 82.0967C74.3848 82.1292 71.0156 82.292 66.8652 82.585L65.8154 86.7842C69.3311 86.6865 72.1224 86.6377 74.1895 86.6377C74.694 86.6377 75.0765 86.9714 75.3369 87.6387C75.4183 87.8665 75.4671 88.0537 75.4834 88.2002C75.4671 88.542 74.7347 88.7292 73.2861 88.7617C71.8376 88.778 69.1439 88.9245 65.2051 89.2012L64.0332 93.8887C62.3893 100.35 60.7617 104.834 59.1504 107.341Z" fill="#49220C"/>
<defs>
<linearGradient id="paint0_linear_173_618" x1="96.5" y1="0" x2="96.5" y2="193" gradientUnits="userSpaceOnUse">
<stop stop-color="#B0C9D9"/>
<stop stop-color="#B0C9D9"/>
<stop offset="0.26" stop-color="#A4B5BF"/>
<stop offset="0.51" stop-color="#F2CEAE"/>
<stop offset="0.765" stop-color="#D9CAC1"/>
<stop offset="1" stop-color="#BFBCBA"/>
</linearGradient>
</defs>
</svg>
