<svg width="193" height="193" viewBox="0 0 193 193" fill="none" xmlns="http://www.w3.org/2000/svg">
<circle cx="96.5" cy="96.5" r="96.5" fill="url(#paint0_linear_176_630)"/>
<path d="M161.156 91.501L161.107 91.8184L161.059 92.1113C161.059 92.502 160.489 94.0645 159.35 96.7988C158.194 99.5332 157.624 101.47 157.641 102.609C157.673 104.546 158.145 105.523 159.057 105.539C159.968 105.539 161.303 104.522 163.061 102.487C165.176 100.046 166.47 98.2067 166.942 96.9697C167.414 95.749 167.781 95.1387 168.041 95.1387C168.253 95.1549 168.367 95.3828 168.383 95.8223C168.383 96.2454 168.334 96.571 168.236 96.7988L167.992 97.458C167.292 99.2484 166.194 101.112 164.696 103.049C162.532 105.897 160.603 107.321 158.91 107.321C158.373 107.321 157.885 107.183 157.445 106.906C156.339 106.206 155.785 104.888 155.785 102.951C155.785 102.316 155.924 101.34 156.2 100.021C156.493 98.7031 156.632 97.9951 156.615 97.8975C156.615 97.7835 156.469 97.6615 156.176 97.5312C155.59 97.2708 155.199 97.2383 155.004 97.4336C154.841 97.6615 154.117 99.4193 152.831 102.707C151.562 105.995 150.691 107.639 150.219 107.639C150.072 107.639 149.796 107.541 149.389 107.346C148.965 107.15 148.754 106.882 148.754 106.54C148.754 106.475 148.965 105.979 149.389 105.051L150.731 101.95C151.675 99.7692 152.782 96.8639 154.052 93.2344L157.299 84.0547C157.38 83.8268 157.641 83.7048 158.08 83.6885L158.715 83.6641C159.496 83.6641 159.887 83.9489 159.887 84.5186C159.887 84.7952 159.464 86.016 158.617 88.1807C157.771 90.3454 157.226 92.0137 156.981 93.1855L156.908 93.918C156.908 94.1296 156.949 94.2516 157.03 94.2842C157.079 94.2679 157.283 93.9098 157.641 93.21L158.275 91.9648C158.373 91.8184 158.471 91.623 158.568 91.3789C158.926 90.7116 159.35 90.3779 159.838 90.3779C160.684 90.3942 161.124 90.7441 161.156 91.4277V91.501Z" fill="#49220C"/>
<path d="M147.851 89.7188C147.037 89.849 145.987 91.8835 144.701 95.8223C143.415 99.7611 142.772 102.089 142.772 102.805C142.772 103.521 142.838 103.879 142.968 103.879C143.651 103.879 144.717 102.414 146.166 99.4844C147.615 96.5384 148.339 93.8447 148.339 91.4033C148.339 90.2965 148.176 89.735 147.851 89.7188ZM147.46 86.6914C147.916 86.6914 148.306 86.8216 148.632 87.082C149.201 87.5703 149.486 88.5143 149.486 89.9141C149.486 96.3105 148.347 101.104 146.068 104.294L145.727 104.807C144.311 106.857 143.171 107.883 142.309 107.883C141.251 107.769 140.64 106.996 140.478 105.563C140.478 104.375 140.958 101.966 141.918 98.3369C142.895 94.7074 144.009 91.5661 145.263 88.9131C145.979 87.4482 146.711 86.7077 147.46 86.6914Z" fill="#49220C"/>
<path d="M136.522 87.9854L145.287 87.79C145.466 87.79 145.661 87.9528 145.873 88.2783C146.085 88.5876 146.199 89.0107 146.215 89.5479C146.199 89.9059 145.735 90.0931 144.823 90.1094C142.121 90.1745 138.85 90.5 135.009 91.0859C134.732 91.8835 134.285 93.0309 133.666 94.5283C130.948 101.104 129.589 105.718 129.589 108.371C129.589 109.689 129.841 110.959 130.346 112.18C131.225 114.23 132.535 115.256 134.276 115.256C135.627 115.256 136.758 114.906 137.67 114.206C138.598 113.522 139.688 112.391 140.941 110.812C141.332 110.308 141.739 110.129 142.162 110.275C142.569 110.454 142.772 110.804 142.772 111.325C142.772 112.823 141.91 114.068 140.185 115.061C138.459 116.07 136.604 116.574 134.618 116.574C132.649 116.574 130.94 115.85 129.491 114.401C128.059 112.953 127.343 111.024 127.343 108.615C127.343 107.004 127.546 105.279 127.953 103.439C128.36 101.6 129.101 99.3135 130.175 96.5791C131.249 93.8285 131.949 91.9974 132.274 91.0859C128.905 91.0859 127.025 91.0452 126.635 90.9639C125.43 90.7035 124.82 90.1908 124.804 89.4258C124.82 89.1816 125.007 89.027 125.365 88.9619L133.3 88.3027L138.524 79.5137C139.127 78.5046 139.672 78 140.16 78C140.355 78 140.583 78.0326 140.844 78.0977C141.804 78.3092 142.284 78.6592 142.284 79.1475C142.284 79.6195 141.796 80.3519 140.819 81.3447C139.843 82.3376 139.241 82.9723 139.013 83.249C138.248 84.193 137.418 85.7718 136.522 87.9854Z" fill="#49220C"/>
<path d="M122.68 90.915C120.076 91.3545 117.805 93.0635 115.869 96.042C113.981 98.9391 112.988 101.804 112.89 104.636C116.617 99.7204 119.881 95.1468 122.68 90.915ZM121.557 88.8398L122.997 89.0352C123.225 89.0352 123.461 88.9049 123.705 88.6445C123.966 88.3841 124.291 88.2539 124.682 88.2539C125.089 88.2539 125.406 88.3597 125.634 88.5713C125.878 88.7829 126 88.9701 126 89.1328C126 89.2793 125.919 89.5316 125.756 89.8896C125.593 90.2477 125.496 90.4837 125.463 90.5977C123.299 97.3848 122.216 101.714 122.216 103.586C122.232 104.237 122.379 104.571 122.656 104.587C123.648 104.587 125.203 103.285 127.319 100.681C128.735 98.9391 129.646 97.6615 130.053 96.8477C130.476 96.0339 130.81 95.6025 131.054 95.5537C131.103 95.5537 131.144 95.5456 131.176 95.5293C131.469 95.5618 131.624 95.7327 131.64 96.042C131.64 96.6279 130.965 97.9463 129.614 99.9971C126.733 104.392 124.243 106.589 122.143 106.589C120.629 106.589 119.872 105.531 119.872 103.415C119.872 102.406 120.076 101.153 120.483 99.6553C120.89 98.1416 121.134 97.1976 121.215 96.8232C120.841 97.3115 119.588 99.0856 117.455 102.146C115.323 105.205 113.793 107.012 112.866 107.565C112.573 107.728 112.32 107.818 112.109 107.834C111.181 107.834 110.506 107.468 110.082 106.735C109.887 106.377 109.789 105.865 109.789 105.197C109.773 104.514 110.27 102.951 111.279 100.51C112.906 96.571 114.754 93.5355 116.821 91.4033C118.448 89.7432 120.027 88.8887 121.557 88.8398Z" fill="#49220C"/>
<path d="M106.127 91.501L106.078 91.8184L106.029 92.1113C106.029 92.502 105.46 94.0645 104.32 96.7988C103.165 99.5332 102.595 101.47 102.611 102.609C102.644 104.546 103.116 105.523 104.027 105.539C104.939 105.539 106.273 104.522 108.031 102.487C110.147 100.046 111.441 98.2067 111.913 96.9697C112.385 95.749 112.751 95.1387 113.012 95.1387C113.223 95.1549 113.337 95.3828 113.354 95.8223C113.354 96.2454 113.305 96.571 113.207 96.7988L112.963 97.458C112.263 99.2484 111.164 101.112 109.667 103.049C107.502 105.897 105.574 107.321 103.881 107.321C103.344 107.321 102.855 107.183 102.416 106.906C101.309 106.206 100.756 104.888 100.756 102.951C100.756 102.316 100.894 101.34 101.171 100.021C101.464 98.7031 101.602 97.9951 101.586 97.8975C101.586 97.7835 101.439 97.6615 101.146 97.5312C100.561 97.2708 100.17 97.2383 99.9746 97.4336C99.8118 97.6615 99.0876 99.4193 97.8018 102.707C96.5322 105.995 95.6615 107.639 95.1895 107.639C95.043 107.639 94.7663 107.541 94.3594 107.346C93.9362 107.15 93.7246 106.882 93.7246 106.54C93.7246 106.475 93.9362 105.979 94.3594 105.051L95.7021 101.95C96.6462 99.7692 97.7529 96.8639 99.0225 93.2344L102.27 84.0547C102.351 83.8268 102.611 83.7048 103.051 83.6885L103.686 83.6641C104.467 83.6641 104.857 83.9489 104.857 84.5186C104.857 84.7952 104.434 86.016 103.588 88.1807C102.742 90.3454 102.196 92.0137 101.952 93.1855L101.879 93.918C101.879 94.1296 101.92 94.2516 102.001 94.2842C102.05 94.2679 102.253 93.9098 102.611 93.21L103.246 91.9648C103.344 91.8184 103.441 91.623 103.539 91.3789C103.897 90.7116 104.32 90.3779 104.809 90.3779C105.655 90.3942 106.094 90.7441 106.127 91.4277V91.501Z" fill="#49220C"/>
<path d="M91.2588 87.9854L100.023 87.79C100.202 87.79 100.398 87.9528 100.609 88.2783C100.821 88.5876 100.935 89.0107 100.951 89.5479C100.935 89.9059 100.471 90.0931 99.5596 90.1094C96.8577 90.1745 93.5863 90.5 89.7451 91.0859C89.4684 91.8835 89.0208 93.0309 88.4023 94.5283C85.6842 101.104 84.3252 105.718 84.3252 108.371C84.3252 109.689 84.5775 110.959 85.082 112.18C85.9609 114.23 87.2712 115.256 89.0127 115.256C90.3636 115.256 91.4948 114.906 92.4062 114.206C93.334 113.522 94.4245 112.391 95.6777 110.812C96.0684 110.308 96.4753 110.129 96.8984 110.275C97.3053 110.454 97.5088 110.804 97.5088 111.325C97.5088 112.823 96.6462 114.068 94.9209 115.061C93.1956 116.07 91.3402 116.574 89.3545 116.574C87.3851 116.574 85.6761 115.85 84.2275 114.401C82.7952 112.953 82.0791 111.024 82.0791 108.615C82.0791 107.004 82.2826 105.279 82.6895 103.439C83.0964 101.6 83.8369 99.3135 84.9111 96.5791C85.9854 93.8285 86.6852 91.9974 87.0107 91.0859C83.6416 91.0859 81.7617 91.0452 81.3711 90.9639C80.1667 90.7035 79.5563 90.1908 79.54 89.4258C79.5563 89.1816 79.7435 89.027 80.1016 88.9619L88.0361 88.3027L93.2607 79.5137C93.863 78.5046 94.4082 78 94.8965 78C95.0918 78 95.3197 78.0326 95.5801 78.0977C96.5404 78.3092 97.0205 78.6592 97.0205 79.1475C97.0205 79.6195 96.5322 80.3519 95.5557 81.3447C94.5791 82.3376 93.9769 82.9723 93.749 83.249C92.984 84.193 92.154 85.7718 91.2588 87.9854Z" fill="#49220C"/>
<path d="M82.6406 89.792C82.6406 92.152 81.9896 93.3646 80.6875 93.4297C80.362 93.4297 80.0527 93.3483 79.7598 93.1855C79.89 96.0501 79.9551 98.8415 79.9551 101.56C79.9551 104.278 79.4424 106.206 78.417 107.346C77.8311 107.997 77.0742 108.322 76.1465 108.322C75.235 108.339 74.5433 108.021 74.0713 107.37C73.5993 106.735 73.3633 106.109 73.3633 105.49C73.3958 104.725 73.8841 104.335 74.8281 104.318C75.4303 104.318 75.6908 104.733 75.6094 105.563C75.528 106.394 75.7233 106.809 76.1953 106.809C77.0742 106.809 77.6113 105.694 77.8066 103.464C77.9043 102.438 77.945 101.014 77.9287 99.1914C77.9287 97.3685 77.7822 96.4489 77.4893 96.4326C77.359 96.4326 77.18 96.6523 76.9521 97.0918C76.7243 97.515 76.1709 98.3939 75.292 99.7285C74.4294 101.063 73.6807 102.056 73.0459 102.707C72.4111 103.358 71.9961 103.716 71.8008 103.781C71.3451 103.944 71.0846 103.798 71.0195 103.342C71.0358 102.854 71.2881 102.284 71.7764 101.633C73.5342 99.3053 75.2269 96.6198 76.8545 93.5762C77.2288 92.8763 77.416 92.4694 77.416 92.3555V88.8398C77.416 88.1725 77.7415 87.6598 78.3926 87.3018C78.6693 87.1553 78.9297 87.082 79.1738 87.082C80.1829 87.0983 81.1188 87.3994 81.9814 87.9854C82.3883 88.2783 82.5999 88.6038 82.6162 88.9619C82.6325 89.32 82.6406 89.5967 82.6406 89.792ZM79.5645 91.4277C80.1178 91.3301 80.4352 91.1429 80.5166 90.8662C80.6143 90.5732 80.6631 90.2884 80.6631 90.0117C80.6631 89.7188 80.6468 89.499 80.6143 89.3525C80.126 89.3525 79.7923 89.6943 79.6133 90.3779C79.5482 90.6058 79.5156 90.8174 79.5156 91.0127C79.5156 91.208 79.5319 91.3464 79.5645 91.4277Z" fill="#49220C"/>
<path d="M63.3535 86.2275C64.0208 86.4717 64.3626 86.7972 64.3789 87.2041C64.3789 87.3506 64.265 87.7493 64.0371 88.4004C64.0371 88.4004 63.7279 89.2874 63.1094 91.0615C60.9284 97.3115 59.6995 101.446 59.4229 103.464C60.6273 101.625 62.0758 99.0042 63.7686 95.6025C65.4775 92.1846 66.5111 90.1419 66.8691 89.4746C67.2272 88.8073 67.4958 88.2376 67.6748 87.7656C67.8701 87.2936 68.0492 87.0332 68.2119 86.9844C68.3747 86.9193 68.6758 86.8867 69.1152 86.8867C69.7663 86.8867 70.0918 87.1878 70.0918 87.79C70.043 88.0993 69.693 89.1165 69.042 90.8418C68.4072 92.5508 67.7155 94.8457 66.9668 97.7266C66.2344 100.591 65.8682 102.609 65.8682 103.781C65.8844 104.937 65.9984 105.531 66.21 105.563C66.9261 105.563 68.2119 104.546 70.0674 102.512C71.9391 100.461 73.3063 98.6136 74.1689 96.9697C74.527 96.3187 74.8688 95.985 75.1943 95.9688C75.3571 96.0013 75.4466 96.1315 75.4629 96.3594C75.4629 97.7266 74.5514 99.5088 72.7285 101.706C70.9219 103.903 69.3675 105.45 68.0654 106.345L67.5771 106.662C67.0238 106.955 66.6169 107.102 66.3564 107.102H65.9414C64.5091 106.857 63.7767 105.653 63.7441 103.488C63.7441 102.414 63.9069 101.307 64.2324 100.168L64.7695 98.1904C63.1745 101.69 61.8398 104.099 60.7656 105.417C59.7077 106.719 58.7474 107.37 57.8848 107.37C57.2337 107.338 56.9082 106.752 56.9082 105.612C56.9082 103.724 57.5755 100.559 58.9102 96.1152C60.7982 89.849 61.9863 86.5368 62.4746 86.1787C62.5723 86.1299 62.6862 86.1055 62.8164 86.1055C62.9466 86.1055 63.1257 86.1462 63.3535 86.2275Z" fill="#49220C"/>
<path d="M47.9482 108.371C47.9482 109.689 48.2087 110.959 48.7295 112.18C49.6084 114.23 50.9105 115.256 52.6357 115.256C53.9867 115.256 55.1178 114.906 56.0293 114.206C56.957 113.522 58.0475 112.391 59.3008 110.812C59.6914 110.308 60.0983 110.137 60.5215 110.3C60.9447 110.446 61.1562 110.78 61.1562 111.301C61.1562 112.831 60.2448 114.141 58.4219 115.231C56.6152 116.322 54.89 116.867 53.2461 116.867C48.3796 116.867 45.9463 113.986 45.9463 108.225C45.9463 105.702 46.4183 103.073 47.3623 100.339L47.6064 99.6309C50.6501 90.9069 53.0101 85.0557 54.6865 82.0771C55.8584 79.9287 57.1279 78.8545 58.4951 78.8545C60.432 78.8708 61.4167 79.5706 61.4492 80.9541C61.4492 81.8167 60.8714 83.1839 59.7158 85.0557C58.5602 86.9111 56.2409 90.1582 52.7578 94.7969C51.8789 95.7897 51.0977 96.9128 50.4141 98.166C48.7702 101.258 47.9482 104.66 47.9482 108.371ZM52.4404 92.0625C52.6846 92.0462 53.8076 90.2884 55.8096 86.7891C57.8278 83.2734 58.8288 81.4587 58.8125 81.3447C58.7962 81.2145 58.7311 81.1494 58.6172 81.1494C58.5033 81.1331 58.43 81.1413 58.3975 81.1738C57.8604 81.4993 56.721 83.2327 54.9795 86.374C53.2542 89.499 52.3916 91.3545 52.3916 91.9404C52.3916 91.9893 52.4079 92.0299 52.4404 92.0625Z" fill="#49220C"/>
<path d="M37.6943 108.371C37.6943 109.689 37.9548 110.959 38.4756 112.18C39.3545 114.23 40.6566 115.256 42.3818 115.256C43.7327 115.256 44.8639 114.906 45.7754 114.206C46.7031 113.522 47.7936 112.391 49.0469 110.812C49.4375 110.308 49.8444 110.137 50.2676 110.3C50.6908 110.446 50.9023 110.78 50.9023 111.301C50.9023 112.831 49.9909 114.141 48.168 115.231C46.3613 116.322 44.6361 116.867 42.9922 116.867C38.1257 116.867 35.6924 113.986 35.6924 108.225C35.6924 105.702 36.1644 103.073 37.1084 100.339L37.3525 99.6309C40.3962 90.9069 42.7562 85.0557 44.4326 82.0771C45.6045 79.9287 46.874 78.8545 48.2412 78.8545C50.1781 78.8708 51.1628 79.5706 51.1953 80.9541C51.1953 81.8167 50.6175 83.1839 49.4619 85.0557C48.3063 86.9111 45.987 90.1582 42.5039 94.7969C41.625 95.7897 40.8438 96.9128 40.1602 98.166C38.5163 101.258 37.6943 104.66 37.6943 108.371ZM42.1865 92.0625C42.4307 92.0462 43.5537 90.2884 45.5557 86.7891C47.5739 83.2734 48.5749 81.4587 48.5586 81.3447C48.5423 81.2145 48.4772 81.1494 48.3633 81.1494C48.2493 81.1331 48.1761 81.1413 48.1436 81.1738C47.6064 81.4993 46.4671 83.2327 44.7256 86.374C43.0003 89.499 42.1377 91.3545 42.1377 91.9404C42.1377 91.9893 42.154 92.0299 42.1865 92.0625Z" fill="#49220C"/>
<path d="M35.6924 80.6124C35.7575 80.3682 35.8389 79.9694 35.9365 79.4161C36.0505 78.8627 36.2295 78.4883 36.4736 78.293C36.7178 78.0977 37.1572 78.0082 37.792 78.0245C38.443 78.0407 38.7686 78.1954 38.7686 78.4883C38.7848 78.7813 37.8734 82.6306 36.0342 90.0362C34.2113 97.4418 32.9824 102.178 32.3477 104.245C31.7292 106.312 31.1595 107.818 30.6387 108.762C30.1178 109.706 29.4098 110.568 28.5146 111.35C27.6357 112.131 27.001 112.513 26.6104 112.497C26.2197 112.481 26.0163 112.399 26 112.253C26 112.106 26.0977 111.887 26.293 111.594C28.1647 108.745 29.8249 104.408 31.2734 98.5811L35.6924 80.6124Z" fill="#49220C"/>
<defs>
<linearGradient id="paint0_linear_176_630" x1="96.5" y1="0" x2="96.5" y2="193" gradientUnits="userSpaceOnUse">
<stop stop-color="#B0C9D9"/>
<stop stop-color="#B0C9D9"/>
<stop offset="0.26" stop-color="#A4B5BF"/>
<stop offset="0.51" stop-color="#F2CEAE"/>
<stop offset="0.765" stop-color="#D9CAC1"/>
<stop offset="1" stop-color="#BFBCBA"/>
</linearGradient>
</defs>
</svg>
