<?xml version="1.0" encoding="UTF-8"?><svg id="Layer_1" xmlns="http://www.w3.org/2000/svg" width="192" height="183.69" viewBox="0 0 192 183.69"><defs><style>.cls-1{fill:#49220c;stroke-width:0px;}</style></defs><path class="cls-1" d="m114.92,45.41c-.48-.04-.98-.08-1.46-.11-.09,0-.25,0-.39-.02-1.58-.13-3.24-.23-4.89-.3-1.14-.06-2.28-.11-3.42-.15-1.25-.05-2.5-.08-3.77-.1l.03-2c1.29.02,2.56.05,3.81.1,1.15.04,2.3.09,3.44.15,1.67.07,3.35.17,4.98.3.1,0,.18.02.27.02.56.03,1.06.07,1.56.11l-.16,1.99Z"/><path class="cls-1" d="m73.1,45.85l-.21-1.99c5.15-.54,10.56-.9,16.07-1.07l.06,2c-5.46.17-10.82.52-15.93,1.05Z"/><path class="cls-1" d="m96.36,120.69c-33.33,0-61.31-6.1-68.05-14.83-1.5-1.82-2.31-4.08-2.31-6.49v-33.11c0-.67.07-1.33.2-2l.02-.11c.13-.63.33-1.25.58-1.86,1.03-7.14,13.41-13.25,34.03-16.78l.34,1.97c-19.16,3.28-31.56,9.08-32.39,15.13v.14l-.08.2c-.22.5-.39,1.01-.5,1.52l-.02.09c-.12.57-.18,1.13-.18,1.69v33.11c0,1.94.65,3.76,1.87,5.24,6.3,8.17,34.26,14.08,66.49,14.08,40.46,0,67.64-8.82,67.64-17.06,0-.23-.03-.49-.08-.79l-.03-.16.02-.16c.06-.42.09-.8.09-1.15v-33.11c0-.53-.05-1.04-.14-1.5l-.02-.32.03-.13c.09-.34.13-.68.13-1.05v-.06s0-.08,0-.08c-.21-6.77-14.79-13.19-37.13-16.37l.28-1.98c24.02,3.42,38.53,10.23,38.85,18.24,0,.09.01.17.01.26,0,.46-.05.9-.14,1.33.09.53.14,1.1.14,1.68v33.11c0,.4-.03.82-.09,1.27.06.36.09.68.09.99,0,11.93-35.41,19.06-69.64,19.06Z"/><path class="cls-1" d="m114.92,45.42l-1.48-.12c-.07,0-.23,0-.37-.02-1.6-.12-3.24-.22-4.9-.3-1.14-.06-2.27-.11-3.42-.15-1.24-.04-2.51-.07-3.78-.1l.05-2c1.27.03,2.55.06,3.8.1,1.16.04,2.3.09,3.45.15,1.67.08,3.33.18,4.97.3.1,0,.19.02.28.02l1.56.12-.16,1.99Z"/><path class="cls-1" d="m73.1,45.78l-.2-1.99c5.17-.52,10.58-.86,16.07-1l.05,2c-5.45.15-10.81.48-15.93,1Z"/><path class="cls-1" d="m96,83.07c-36.9,0-66.89-7.93-69.76-18.45l-.04-.15c-.13-.54-.2-1.08-.2-1.6,0-7.39,13.02-13.95,34.84-17.53l.32,1.97c-20.15,3.31-33.16,9.41-33.16,15.55,0,.39.06.8.17,1.21l.03.13c2.83,9.46,32.52,16.85,67.8,16.85,40.3,0,67.69-9.33,67.99-18.03v-.13c0-6.68-14.57-13.02-37.13-16.19l.28-1.98c24.33,3.41,38.86,10.19,38.86,18.14,0,.08,0,.18-.01.27-.46,11.17-31.18,19.92-69.99,19.92Z"/><path class="cls-1" d="m86.32,155.94c-.52,0-1.05-.01-1.58-.03-8.88-.37-17.25-3.86-23.06-9.62-9.11,3.09-19.89,3.39-30.45.85-15.38-3.72-27.33-12.77-31.18-23.64l1.88-.67c3.57,10.08,15.25,18.86,29.76,22.36,10.42,2.51,21.04,2.15,29.91-1l.61-.22.45.46c5.47,5.66,13.55,9.11,22.15,9.47,10.57.42,20.48-3.73,26.52-11.13l.65-.79.78.66c4.24,3.62,10.34,5.03,18.12,4.18,9.26-1.01,13.55-3.89,16.41-11.02l.51-1.28,1.06.88c7.56,6.32,19.66,8.1,30.83,4.54,5.21-1.66,8.61-4.72,10.37-9.35l1.87.71c-1.97,5.17-5.88,8.72-11.63,10.55-11.3,3.6-23.56,1.98-31.67-4.09-3.15,6.89-8.18,10.02-17.53,11.04-7.9.86-14.24-.49-18.85-4.01-6.16,7.05-15.7,11.14-25.94,11.14Z"/><path class="cls-1" d="m88.97,107.69c-.4,0-.79-.01-1.19-.04-6.83-.47-16.67-8.58-21.13-15.61-6.87,3.72-17.36,5.39-25.18.5-10.26-6.41-12.74-11.41-15.45-24.16l1.96-.42c2.66,12.51,4.77,16.76,14.55,22.88,7.45,4.65,17.64,2.74,23.96-1.01l.87-.52.51.88c3.82,6.6,13.83,15.04,20.05,15.46,7.49.53,14.54-4.49,18.89-13.38l.74-1.52.97,1.38c2.99,4.26,7.27,5.92,12.72,4.94,6.57-1.19,9.64-4.69,11.72-13.36l.51-2.13,1.27,1.78c5.37,7.48,13.92,9.62,21.79,5.43,3.74-1.99,6.19-5.72,7.48-11.4l1.95.45c-1.43,6.28-4.21,10.45-8.5,12.72-8.21,4.36-17.07,2.6-23.09-4.42-2.3,7.99-6,11.66-12.79,12.9-5.62,1.02-10.33-.53-13.72-4.48-4.53,8.32-11.45,13.13-18.91,13.13Z"/><polygon class="cls-1" points="188.58 113.93 188.57 113.93 188.57 111.93 188.58 113.93"/><polygon class="cls-1" points="99.69 82.71 99.68 82.71 99.68 80.71 99.69 82.71"/><path class="cls-1" d="m98.69,84.04v-2.33h1s-.67-.71-.67-.71h0s-.01-.02-.01-.02l.7-.67.57.53.47.2v.67s-1,0-1,0l.7.71-.69.69h-.01s0,0,0,0l-.03-.03-1.02.97Zm1.05-2.33h0,0Zm0,0h0Zm-.02,0h.02-.02Zm-.03,0h.03-.03Zm-.94,0h.94-.94Z"/><path class="cls-1" d="m96.49,183.69c-45.77,0-84.17-8.05-93.38-19.57-2-2.34-3.11-5.34-3.11-8.43v-44c0-.81.07-1.6.22-2.36l-.21-.34.36-.36c.18-.75.42-1.46.73-2.16,1.23-8.39,14.59-14.07,25.62-17.36l.57,1.92c-14.81,4.43-23.41,10.03-24.22,15.78v.15l-.09.21c-.3.66-.53,1.34-.7,2.07l-.03.14c-.17.73-.25,1.51-.25,2.31v44c0,2.61.94,5.16,2.65,7.16,8.74,10.93,47.36,18.84,91.84,18.84,50.69,0,93.51-10.53,93.51-23,0-.34-.04-.71-.12-1.08l-.04-.17.03-.17c.09-.63.13-1.11.13-1.57v-44c0-.73-.07-1.42-.2-2.07l-.02-.33.03-.14c.13-.48.19-.96.19-1.46,0-.04,0-.07,0-.11v-.12c-.21-6.03-9.42-12.13-25.28-16.71l.56-1.92c16.99,4.91,26.47,11.51,26.71,18.58,0,.05.01.16.01.28,0,.6-.06,1.18-.2,1.75.13.71.2,1.47.2,2.25v44c0,.5-.04,1.04-.13,1.68.08.45.13.89.13,1.32,0,14.02-41.95,25-95.51,25Z"/><polygon class="cls-1" points="98.69 84.04 98.69 81.71 99.69 81.71 99.68 81.71 98.97 81 99.01 80.99 99 80.98 99.7 80.31 100.27 80.84 100.75 81.03 100.75 81.71 99.75 81.71 100.45 82.41 99.76 83.1 99.75 83.09 99.74 83.1 99.71 83.07 98.69 84.04"/><polygon class="cls-1" points="98.68 81.71 98.68 81.7 100.68 81.7 98.68 81.71"/><path class="cls-1" d="m96,133.69c-50.47,0-91.5-10.37-95.64-24.14l-.35-.56.16-.17c-.11-.54-.17-1.08-.17-1.64,0-9.02,14.53-15.04,26.73-18.49l.55,1.92c-16.06,4.55-25.27,10.59-25.27,16.57,0,.53.07,1.06.21,1.56l.07.11v.12s.08.27.08.27c4.31,12.61,45.17,22.44,93.64,22.44s93.51-11.12,93.99-24.28c.01-.14,0-.18,0-.22,0-5.98-9.21-12.01-25.27-16.57l.55-1.92c12.19,3.46,26.73,9.47,26.73,18.49,0,.11,0,.23-.01.34-.7,14.7-42.8,26.16-95.99,26.16Z"/><path class="cls-1" d="m70.62,64.69h-7.25c-1.86,0-3.38-1.51-3.38-3.38V24.06c0-1.86,1.51-3.38,3.38-3.38h7.25c1.86,0,3.38,1.51,3.38,3.38v37.25c0,1.86-1.51,3.38-3.38,3.38Zm-7.25-42c-.76,0-1.38.62-1.38,1.38v37.25c0,.76.62,1.38,1.38,1.38h7.25c.76,0,1.38-.62,1.38-1.38V24.06c0-.76-.62-1.38-1.38-1.38h-7.25Z"/><path class="cls-1" d="m124.62,63.69h-7.25c-1.86,0-3.38-1.51-3.38-3.38V23.06c0-1.86,1.51-3.38,3.38-3.38h7.25c1.86,0,3.38,1.51,3.38,3.38v37.25c0,1.86-1.51,3.38-3.38,3.38Zm-7.25-42c-.76,0-1.38.62-1.38,1.38v37.25c0,.76.62,1.38,1.38,1.38h7.25c.76,0,1.38-.62,1.38-1.38V23.06c0-.76-.62-1.38-1.38-1.38h-7.25Z"/><path class="cls-1" d="m98.62,72.69h-7.25c-1.86,0-3.38-1.51-3.38-3.38v-37.25c0-1.86,1.51-3.38,3.38-3.38h7.25c1.86,0,3.38,1.51,3.38,3.38v37.25c0,1.86-1.51,3.38-3.38,3.38Zm-7.25-42c-.76,0-1.38.62-1.38,1.38v37.25c0,.76.62,1.38,1.38,1.38h7.25c.76,0,1.38-.62,1.38-1.38v-37.25c0-.76-.62-1.38-1.38-1.38h-7.25Z"/><path class="cls-1" d="m95.49,30.04c-3.09,0-5.51-3.3-5.51-7.51,0-2.78,1.71-13.53,5.51-13.53s5.51,10.75,5.51,13.53c0,4.21-2.42,7.51-5.51,7.51Zm0-19.04c-1.18,0-3.51,7.01-3.51,11.53,0,2.99,1.61,5.51,3.51,5.51s3.51-2.52,3.51-5.51c0-4.52-2.33-11.53-3.51-11.53Z"/><path class="cls-1" d="m67.49,22.04c-3.09,0-5.51-3.3-5.51-7.51,0-2.78,1.71-13.53,5.51-13.53s5.51,10.75,5.51,13.53c0,4.21-2.42,7.51-5.51,7.51Zm0-19.04c-1.18,0-3.51,7.01-3.51,11.53,0,2.99,1.61,5.51,3.51,5.51s3.51-2.52,3.51-5.51c0-4.52-2.33-11.53-3.51-11.53Z"/><path class="cls-1" d="m120.49,21.04c-3.09,0-5.51-3.3-5.51-7.51C114.98,10.75,116.68,0,120.49,0s5.51,10.75,5.51,13.53c0,4.21-2.42,7.51-5.51,7.51Zm0-19.04c-1.18,0-3.51,7.01-3.51,11.53,0,2.99,1.61,5.51,3.51,5.51s3.51-2.52,3.51-5.51c0-4.52-2.33-11.53-3.51-11.53Z"/></svg>