<?xml version="1.0" encoding="UTF-8"?><svg id="Layer_1" xmlns="http://www.w3.org/2000/svg" width="352" height="246" viewBox="0 0 352 246"><defs><style>.cls-1{fill:#49220c;stroke-width:0px;}</style></defs><path class="cls-1" d="m133.46,235.48H8.16c-4.5,0-8.16-3.66-8.16-8.16V43.74c0-4.5,3.66-8.16,8.16-8.16h131.25v2.33H8.16c-3.21,0-5.83,2.61-5.83,5.83v183.58c0,3.21,2.61,5.83,5.83,5.83h125.3v2.33Z"/><path class="cls-1" d="m343.84,235.48h-117.44v-2.33h117.44c3.21,0,5.83-2.61,5.83-5.83V43.74c0-3.21-2.61-5.83-5.83-5.83h-123.37v-2.33h123.37c4.5,0,8.16,3.66,8.16,8.16v183.58c0,4.5-3.66,8.16-8.16,8.16Z"/><path class="cls-1" d="m231.91,38.21h-10.97l-.22-.09c-.14-.06-.29-.12-.43-.18l-.26-.11c-12.73-5.16-26.22-7.78-40.09-7.78s-27.36,2.62-40.09,7.78c-.24.09-.47.19-.69.28l-.22.09h-18.84c-.94,0-1.86-.11-2.73-.32-2.97-.74-4.88-2.59-4.88-4.72v-14.21c0-1.96,3.22-4.78,22.31-16.31,2.78-1.69,6.47-2.62,10.38-2.62h62.01c3.85,0,10.66,1.02,13.73,3.29,6.37,4.71,11.64,9.15,15.52,12.49h0c1.41,1.22,3.09,3.05,3.09,4.83v12.52c0,2.13-1.92,3.98-4.88,4.72-.88.22-1.8.33-2.73.33Zm-10.5-2.33h10.5c.75,0,1.48-.09,2.17-.26,1.83-.46,3.11-1.46,3.11-2.45v-12.52c0-.52-.71-1.7-2.28-3.06-3.85-3.32-9.07-7.72-15.38-12.38-2.29-1.69-8.23-2.83-12.34-2.83h-62.01c-3.44,0-6.78.83-9.17,2.28-6.08,3.67-20.28,12.24-21.18,14.4v14.13c0,.99,1.28,2,3.11,2.45.69.17,1.42.26,2.17.26h18.37c.17-.07.35-.14.52-.21,12.99-5.27,26.78-7.95,40.95-7.95s27.95,2.68,40.97,7.95l.26.11c.08.03.16.07.24.1Zm-106.61-16.8h0Z"/><path class="cls-1" d="m179.93,230.19c-50.93,0-92.37-41.43-92.37-92.37s41.43-92.36,92.37-92.36,92.37,41.43,92.37,92.36-41.43,92.37-92.37,92.37Zm0-182.4c-49.64,0-90.03,40.39-90.03,90.03s40.39,90.03,90.03,90.03,90.03-40.39,90.03-90.03-40.39-90.03-90.03-90.03Z"/><path class="cls-1" d="m179.93,171.04c-18.86,0-34.19-15.34-34.19-34.19s15.34-34.19,34.19-34.19,34.19,15.34,34.19,34.19-15.34,34.19-34.19,34.19Zm0-66.06c-17.57,0-31.86,14.29-31.86,31.86s14.29,31.86,31.86,31.86,31.86-14.29,31.86-31.86-14.29-31.86-31.86-31.86Z"/><path class="cls-1" d="m179.93,245.97c-16.44,0-32.25-3.57-46.97-10.6-25.98-12.41-46.37-35.06-55.94-62.15-4.12-11.66-6.21-23.9-6.21-36.37,0-22.02,6.53-43.24,18.88-61.36,12.05-17.69,28.85-31.36,48.57-39.51.23-.1.48-.2.73-.3,12.99-5.27,26.78-7.95,40.95-7.95s27.95,2.68,40.97,7.95l.26.11c.15.06.3.12.45.19,19.72,8.16,36.51,21.82,48.56,39.51,12.35,18.13,18.88,39.34,18.88,61.36s-5.98,41.39-17.29,58.97c-11.02,17.12-26.53,30.8-44.86,39.55-14.72,7.04-30.53,10.6-46.97,10.6Zm0-215.92c-13.87,0-27.36,2.62-40.09,7.78-.24.09-.47.19-.69.28-40.11,16.59-66.01,55.34-66.01,98.73,0,12.21,2.05,24.19,6.08,35.6,9.37,26.51,29.32,48.68,54.74,60.82,14.41,6.89,29.88,10.38,45.97,10.38s31.56-3.49,45.97-10.38c36.95-17.65,60.83-55.49,60.83-96.42,0-43.39-25.91-82.14-66-98.72h-.01c-.14-.07-.29-.12-.43-.18l-.26-.11c-12.73-5.16-26.22-7.78-40.09-7.78Zm0,200.14c-50.93,0-92.37-41.43-92.37-92.37s41.43-92.36,92.37-92.36,92.37,41.43,92.37,92.36-41.43,92.37-92.37,92.37Zm0-182.4c-49.64,0-90.03,40.39-90.03,90.03s40.39,90.03,90.03,90.03,90.03-40.39,90.03-90.03-40.39-90.03-90.03-90.03Z"/><rect class="cls-1" x=".87" y="97.21" width="78.09" height="2.33" transform="translate(-.36 .15) rotate(-.21)"/><rect class="cls-1" x="281.77" y="97.5" width="69.93" height="2.33" transform="translate(-.41 1.32) rotate(-.24)"/><rect class="cls-1" x="1.46" y="171.81" width="76.93" height="2.33" transform="translate(-.68 .16) rotate(-.22)"/><rect class="cls-1" x="281.77" y="172.1" width="69.35" height="2.33" transform="translate(-.72 1.31) rotate(-.24)"/><path class="cls-1" d="m54.78,37.62h-25.06c-4.34,0-7.87-3.53-7.87-7.87s3.53-7.87,7.87-7.87h25.06c4.34,0,7.87,3.53,7.87,7.87s-3.53,7.87-7.87,7.87Zm-25.06-13.4c-3.05,0-5.54,2.48-5.54,5.54s2.48,5.54,5.54,5.54h25.06c3.05,0,5.54-2.48,5.54-5.54s-2.48-5.54-5.54-5.54h-25.06Z"/><path class="cls-1" d="m321.17,66.18h-34.68c-3.25,0-5.89-2.64-5.89-5.89v-5.71c0-3.25,2.64-5.89,5.89-5.89h34.68c3.25,0,5.89,2.64,5.89,5.89v5.71c0,3.25-2.64,5.89-5.89,5.89Zm-34.68-15.15c-1.96,0-3.56,1.59-3.56,3.56v5.71c0,1.96,1.59,3.56,3.56,3.56h34.68c1.96,0,3.56-1.59,3.56-3.56v-5.71c0-1.96-1.6-3.56-3.56-3.56h-34.68Z"/></svg>