<svg width="345" height="345" viewBox="0 0 345 345" fill="none" xmlns="http://www.w3.org/2000/svg">
<circle cx="172.5" cy="172.5" r="172.5" fill="url(#paint0_linear_194_242)"/>
<path d="M284.935 207V206.039L288.221 205.512H288.934L292.282 206.039V207H284.935ZM287.136 207C287.156 206.525 287.167 205.905 287.167 205.14C287.187 204.355 287.198 203.549 287.198 202.722C287.218 201.875 287.229 201.12 287.229 200.459V199.002C287.229 198.423 287.218 197.917 287.198 197.483C287.198 197.049 287.187 196.646 287.167 196.274C287.167 195.881 287.156 195.478 287.136 195.065L284.718 194.724V193.825L289.027 192.089L289.43 192.368L289.709 196.46V196.553V200.459C289.709 201.12 289.709 201.875 289.709 202.722C289.729 203.549 289.74 204.355 289.74 205.14C289.76 205.905 289.781 206.525 289.802 207H287.136ZM289.616 198.599L289.182 196.584H289.523C289.874 195.613 290.287 194.796 290.763 194.135C291.259 193.474 291.796 192.967 292.375 192.616C292.974 192.265 293.573 192.089 294.173 192.089C294.627 192.089 295.051 192.192 295.444 192.399C295.836 192.585 296.126 192.874 296.312 193.267C296.291 193.908 296.126 194.414 295.816 194.786C295.526 195.137 295.092 195.313 294.514 195.313C294.183 195.313 293.863 195.251 293.553 195.127C293.243 194.982 292.953 194.776 292.685 194.507L291.879 193.763L293.305 193.515C292.416 193.949 291.662 194.59 291.042 195.437C290.442 196.264 289.967 197.318 289.616 198.599Z" fill="#49220C"/>
<path d="M276.685 207.403C275.301 207.403 274.081 207.114 273.027 206.535C271.994 205.936 271.178 205.078 270.578 203.962C270 202.846 269.71 201.503 269.71 199.932C269.71 198.361 270.02 196.987 270.64 195.809C271.281 194.631 272.118 193.722 273.151 193.081C274.205 192.42 275.352 192.089 276.592 192.089C277.646 192.089 278.587 192.316 279.413 192.771C280.261 193.226 280.932 193.877 281.428 194.724C281.945 195.571 282.203 196.605 282.203 197.824C282.203 198.175 282.183 198.496 282.141 198.785C282.1 199.074 282.048 199.312 281.986 199.498H270.826V198.382H277.925C278.69 198.382 279.186 198.237 279.413 197.948C279.661 197.638 279.785 197.256 279.785 196.801C279.785 196.057 279.651 195.427 279.382 194.91C279.134 194.393 278.773 194.001 278.297 193.732C277.822 193.443 277.254 193.298 276.592 193.298C275.89 193.298 275.208 193.505 274.546 193.918C273.885 194.331 273.348 194.993 272.934 195.902C272.521 196.791 272.314 198 272.314 199.529C272.314 200.81 272.521 201.895 272.934 202.784C273.348 203.673 273.926 204.355 274.67 204.83C275.435 205.285 276.334 205.512 277.367 205.512C278.318 205.512 279.155 205.347 279.878 205.016C280.602 204.665 281.253 204.138 281.831 203.435L282.42 203.9C282.028 204.623 281.563 205.254 281.025 205.791C280.509 206.308 279.899 206.711 279.196 207C278.494 207.269 277.657 207.403 276.685 207.403Z" fill="#49220C"/>
<path d="M251.052 207V206.039L254.338 205.512H255.02L258.058 206.039V207H251.052ZM253.315 207C253.357 206.525 253.377 205.905 253.377 205.14C253.398 204.355 253.408 203.549 253.408 202.722C253.429 201.875 253.439 201.12 253.439 200.459V186.633L250.928 186.261V185.331L255.547 184.029L255.95 184.277L255.826 189.144V195.437L255.888 195.716V200.459C255.888 201.12 255.888 201.875 255.888 202.722C255.909 203.549 255.919 204.355 255.919 205.14C255.94 205.905 255.961 206.525 255.981 207H253.315ZM260.445 207V206.039L263.7 205.512H264.382L267.451 206.039V207H260.445ZM262.646 207C262.688 206.525 262.708 205.905 262.708 205.14C262.729 204.355 262.739 203.549 262.739 202.722C262.76 201.875 262.77 201.12 262.77 200.459V197.762C262.77 196.357 262.574 195.396 262.181 194.879C261.789 194.362 261.138 194.104 260.228 194.104C259.732 194.104 259.247 194.187 258.771 194.352C258.296 194.497 257.81 194.734 257.314 195.065C256.818 195.375 256.281 195.788 255.702 196.305L255.206 195.344H255.485C255.981 194.745 256.55 194.197 257.19 193.701C257.831 193.205 258.503 192.812 259.205 192.523C259.929 192.234 260.652 192.089 261.375 192.089C262.677 192.089 263.649 192.513 264.289 193.36C264.93 194.207 265.25 195.613 265.25 197.576V200.459C265.25 201.12 265.25 201.875 265.25 202.722C265.271 203.549 265.281 204.355 265.281 205.14C265.302 205.905 265.323 206.525 265.343 207H262.646Z" fill="#49220C"/>
<path d="M234.453 214.595C233.069 214.595 231.932 214.43 231.043 214.099C230.155 213.789 229.504 213.345 229.09 212.766C228.677 212.187 228.47 211.536 228.47 210.813C228.47 210.296 228.594 209.811 228.842 209.356C229.111 208.922 229.535 208.488 230.113 208.054C230.713 207.641 231.508 207.238 232.5 206.845L232.655 207.031C232.283 207.362 231.953 207.692 231.663 208.023C231.395 208.374 231.188 208.726 231.043 209.077C230.899 209.449 230.826 209.883 230.826 210.379C230.826 211.061 230.992 211.629 231.322 212.084C231.674 212.539 232.149 212.869 232.748 213.076C233.348 213.283 234.05 213.386 234.856 213.386C235.993 213.386 236.944 213.231 237.708 212.921C238.494 212.611 239.072 212.198 239.444 211.681C239.837 211.164 240.033 210.596 240.033 209.976C240.033 209.253 239.785 208.664 239.289 208.209C238.814 207.754 238.018 207.527 236.902 207.527H233.368C233.12 207.527 232.852 207.517 232.562 207.496C232.294 207.475 232.035 207.444 231.787 207.403V207.31C231.023 207.186 230.423 206.917 229.989 206.504C229.576 206.07 229.369 205.512 229.369 204.83C229.369 204.272 229.555 203.714 229.927 203.156C230.299 202.577 230.919 201.906 231.787 201.141V200.862L232.686 201.327C232.232 201.782 231.901 202.195 231.694 202.567C231.508 202.939 231.415 203.301 231.415 203.652C231.415 204.21 231.591 204.623 231.942 204.892C232.314 205.161 232.872 205.295 233.616 205.295H237.336C238.452 205.295 239.372 205.45 240.095 205.76C240.819 206.049 241.356 206.483 241.707 207.062C242.079 207.641 242.265 208.343 242.265 209.17C242.265 209.852 242.1 210.513 241.769 211.154C241.439 211.815 240.943 212.404 240.281 212.921C239.641 213.438 238.824 213.841 237.832 214.13C236.861 214.44 235.735 214.595 234.453 214.595ZM234.67 202.195C233.658 202.195 232.728 202.009 231.88 201.637C231.054 201.265 230.403 200.707 229.927 199.963C229.452 199.198 229.214 198.258 229.214 197.142C229.214 196.047 229.452 195.127 229.927 194.383C230.423 193.618 231.085 193.05 231.911 192.678C232.759 192.285 233.689 192.089 234.701 192.089C235.28 192.089 235.828 192.151 236.344 192.275C236.861 192.378 237.336 192.554 237.77 192.802C238.204 193.029 238.587 193.329 238.917 193.701L238.979 193.763C239.351 194.176 239.63 194.662 239.816 195.22C240.023 195.778 240.126 196.408 240.126 197.111C240.126 198.206 239.878 199.136 239.382 199.901C238.907 200.645 238.256 201.213 237.429 201.606C236.603 201.999 235.683 202.195 234.67 202.195ZM234.608 201.141C235.27 201.141 235.828 200.976 236.282 200.645C236.758 200.294 237.119 199.818 237.367 199.219C237.615 198.599 237.739 197.876 237.739 197.049C237.739 196.243 237.615 195.551 237.367 194.972C237.14 194.393 236.799 193.949 236.344 193.639C235.89 193.329 235.342 193.174 234.701 193.174C234.081 193.174 233.534 193.339 233.058 193.67C232.604 194.001 232.252 194.466 232.004 195.065C231.756 195.664 231.632 196.367 231.632 197.173C231.632 197.979 231.746 198.682 231.973 199.281C232.221 199.88 232.562 200.345 232.996 200.676C233.451 200.986 233.988 201.141 234.608 201.141ZM237.987 194.29L237.956 193.546H238.142L242.017 192.089L242.42 192.368V194.29H237.987Z" fill="#49220C"/>
<path d="M210.249 207V206.039L213.504 205.512H214.186L217.255 206.039V207H210.249ZM212.481 207C212.502 206.525 212.512 205.905 212.512 205.14C212.533 204.355 212.543 203.549 212.543 202.722C212.564 201.875 212.574 201.12 212.574 200.459V199.002C212.574 198.423 212.564 197.917 212.543 197.483C212.543 197.049 212.533 196.646 212.512 196.274C212.512 195.881 212.502 195.478 212.481 195.065L210.063 194.724V193.825L214.372 192.089L214.775 192.368L215.054 195.809V195.84V200.459C215.054 201.12 215.054 201.875 215.054 202.722C215.075 203.549 215.085 204.355 215.085 205.14C215.106 205.905 215.127 206.525 215.147 207H212.481ZM219.518 207V206.039L222.773 205.512H223.455L226.524 206.039V207H219.518ZM221.75 207C221.771 206.525 221.781 205.905 221.781 205.14C221.802 204.355 221.812 203.549 221.812 202.722C221.833 201.875 221.843 201.12 221.843 200.459V197.762C221.843 196.357 221.637 195.396 221.223 194.879C220.831 194.362 220.18 194.104 219.27 194.104C218.774 194.104 218.289 194.187 217.813 194.352C217.338 194.497 216.852 194.734 216.356 195.065C215.86 195.375 215.333 195.778 214.775 196.274L214.403 195.313H214.62C215.116 194.714 215.674 194.176 216.294 193.701C216.935 193.205 217.607 192.812 218.309 192.523C219.033 192.234 219.735 192.089 220.417 192.089C221.719 192.089 222.691 192.513 223.331 193.36C223.972 194.207 224.292 195.613 224.292 197.576V200.459C224.292 201.12 224.292 201.875 224.292 202.722C224.313 203.549 224.334 204.355 224.354 205.14C224.375 205.905 224.396 206.525 224.416 207H221.75Z" fill="#49220C"/>
<path d="M201.104 207V206.039L204.359 205.512H205.041L208.11 206.039V207H201.104ZM203.336 207C203.357 206.525 203.367 205.905 203.367 205.14C203.388 204.355 203.398 203.549 203.398 202.722C203.419 201.875 203.429 201.12 203.429 200.459V199.033C203.429 198.165 203.419 197.452 203.398 196.894C203.398 196.315 203.377 195.706 203.336 195.065L200.949 194.724V193.825L205.63 192.089L206.033 192.368L205.94 196.491V200.459C205.94 201.12 205.94 201.875 205.94 202.722C205.961 203.549 205.971 204.355 205.971 205.14C205.992 205.905 206.012 206.525 206.033 207H203.336ZM204.545 188.896C203.987 188.896 203.522 188.731 203.15 188.4C202.778 188.049 202.592 187.594 202.592 187.036C202.592 186.478 202.778 186.023 203.15 185.672C203.522 185.321 203.987 185.145 204.545 185.145C205.082 185.145 205.537 185.321 205.909 185.672C206.302 186.023 206.498 186.478 206.498 187.036C206.498 187.594 206.302 188.049 205.909 188.4C205.537 188.731 205.082 188.896 204.545 188.896Z" fill="#49220C"/>
<path d="M182.852 207V206.039L186.107 205.512H186.789L189.858 206.039V207H182.852ZM185.084 207C185.105 206.525 185.115 205.905 185.115 205.14C185.136 204.355 185.146 203.549 185.146 202.722C185.167 201.875 185.177 201.12 185.177 200.459V199.002C185.177 198.423 185.167 197.917 185.146 197.483C185.146 197.049 185.136 196.646 185.115 196.274C185.115 195.881 185.105 195.478 185.084 195.065L182.666 194.724V193.825L186.975 192.089L187.378 192.368L187.657 195.809V195.84V200.459C187.657 201.12 187.657 201.875 187.657 202.722C187.678 203.549 187.688 204.355 187.688 205.14C187.709 205.905 187.729 206.525 187.75 207H185.084ZM192.121 207V206.039L195.376 205.512H196.058L199.127 206.039V207H192.121ZM194.353 207C194.374 206.525 194.384 205.905 194.384 205.14C194.405 204.355 194.415 203.549 194.415 202.722C194.436 201.875 194.446 201.12 194.446 200.459V197.762C194.446 196.357 194.239 195.396 193.826 194.879C193.433 194.362 192.782 194.104 191.873 194.104C191.377 194.104 190.891 194.187 190.416 194.352C189.941 194.497 189.455 194.734 188.959 195.065C188.463 195.375 187.936 195.778 187.378 196.274L187.006 195.313H187.223C187.719 194.714 188.277 194.176 188.897 193.701C189.538 193.205 190.209 192.812 190.912 192.523C191.635 192.234 192.338 192.089 193.02 192.089C194.322 192.089 195.293 192.513 195.934 193.36C196.575 194.207 196.895 195.613 196.895 197.576V200.459C196.895 201.12 196.895 201.875 196.895 202.722C196.916 203.549 196.936 204.355 196.957 205.14C196.978 205.905 196.998 206.525 197.019 207H194.353Z" fill="#49220C"/>
<path d="M174.672 207.403C173.783 207.403 172.988 207.3 172.285 207.093C171.603 206.907 170.89 206.628 170.146 206.256L170.115 202.691H171.479L172.409 206.535H171.2V205.171C171.717 205.543 172.254 205.812 172.812 205.977C173.37 206.142 174 206.225 174.703 206.225C175.468 206.225 176.098 206.122 176.594 205.915C177.111 205.688 177.493 205.388 177.741 205.016C177.989 204.644 178.113 204.22 178.113 203.745C178.113 203.042 177.855 202.484 177.338 202.071C176.842 201.658 176.129 201.286 175.199 200.955L173.928 200.459C173.225 200.19 172.595 199.88 172.037 199.529C171.479 199.157 171.035 198.713 170.704 198.196C170.394 197.679 170.239 197.059 170.239 196.336C170.239 195.571 170.435 194.869 170.828 194.228C171.241 193.587 171.83 193.071 172.595 192.678C173.36 192.285 174.3 192.089 175.416 192.089C176.243 192.089 176.987 192.192 177.648 192.399C178.33 192.585 178.991 192.885 179.632 193.298L179.508 196.553H178.206L177.462 193.236H178.609V194.414C178.113 194.042 177.596 193.763 177.059 193.577C176.542 193.37 175.995 193.267 175.416 193.267C174.445 193.267 173.711 193.474 173.215 193.887C172.74 194.3 172.502 194.838 172.502 195.499C172.502 196.222 172.729 196.77 173.184 197.142C173.659 197.514 174.383 197.886 175.354 198.258L176.284 198.63C177.214 198.961 177.979 199.343 178.578 199.777C179.198 200.19 179.653 200.666 179.942 201.203C180.252 201.74 180.407 202.35 180.407 203.032C180.407 203.817 180.19 204.541 179.756 205.202C179.343 205.863 178.702 206.401 177.834 206.814C176.987 207.207 175.933 207.403 174.672 207.403Z" fill="#49220C"/>
<path d="M166.794 192.492L154.487 207.527L153.588 206.845L165.926 191.81L166.794 192.492ZM160.253 207.403C159.075 207.403 157.959 207.124 156.905 206.566C155.851 205.987 154.993 205.14 154.332 204.024C153.671 202.887 153.34 201.482 153.34 199.808C153.34 198.113 153.671 196.698 154.332 195.561C154.993 194.404 155.851 193.536 156.905 192.957C157.959 192.378 159.075 192.089 160.253 192.089C161.431 192.089 162.547 192.378 163.601 192.957C164.655 193.515 165.513 194.373 166.174 195.53C166.835 196.667 167.166 198.082 167.166 199.777C167.166 201.451 166.835 202.856 166.174 203.993C165.513 205.13 164.655 205.987 163.601 206.566C162.547 207.124 161.431 207.403 160.253 207.403ZM160.253 206.194C161.162 206.194 161.937 205.956 162.578 205.481C163.219 204.985 163.704 204.262 164.035 203.311C164.386 202.36 164.562 201.182 164.562 199.777C164.562 198.351 164.386 197.163 164.035 196.212C163.704 195.261 163.219 194.538 162.578 194.042C161.937 193.546 161.162 193.298 160.253 193.298C159.344 193.298 158.569 193.546 157.928 194.042C157.287 194.538 156.791 195.272 156.44 196.243C156.109 197.194 155.944 198.382 155.944 199.808C155.944 201.213 156.109 202.391 156.44 203.342C156.791 204.272 157.287 204.985 157.928 205.481C158.569 205.956 159.344 206.194 160.253 206.194Z" fill="#49220C"/>
<path d="M143.822 207V206.039L147.139 205.512H147.821L151.169 206.039V207H143.822ZM146.178 207C146.219 206.339 146.24 205.646 146.24 204.923C146.26 204.179 146.271 203.435 146.271 202.691C146.291 201.926 146.302 201.182 146.302 200.459V186.633L143.791 186.261V185.331L148.503 184.029L148.875 184.277L148.751 188.958V200.459C148.751 201.182 148.751 201.926 148.751 202.691C148.771 203.435 148.782 204.179 148.782 204.923C148.802 205.646 148.823 206.339 148.844 207H146.178Z" fill="#49220C"/>
<path d="M136.247 207.403C134.862 207.403 133.643 207.114 132.589 206.535C131.555 205.936 130.739 205.078 130.14 203.962C129.561 202.846 129.272 201.503 129.272 199.932C129.272 198.361 129.582 196.987 130.202 195.809C130.842 194.631 131.679 193.722 132.713 193.081C133.767 192.42 134.914 192.089 136.154 192.089C137.208 192.089 138.148 192.316 138.975 192.771C139.822 193.226 140.494 193.877 140.99 194.724C141.506 195.571 141.765 196.605 141.765 197.824C141.765 198.175 141.744 198.496 141.703 198.785C141.661 199.074 141.61 199.312 141.548 199.498H130.388V198.382H137.487C138.251 198.382 138.747 198.237 138.975 197.948C139.223 197.638 139.347 197.256 139.347 196.801C139.347 196.057 139.212 195.427 138.944 194.91C138.696 194.393 138.334 194.001 137.859 193.732C137.383 193.443 136.815 193.298 136.154 193.298C135.451 193.298 134.769 193.505 134.108 193.918C133.446 194.331 132.909 194.993 132.496 195.902C132.082 196.791 131.876 198 131.876 199.529C131.876 200.81 132.082 201.895 132.496 202.784C132.909 203.673 133.488 204.355 134.232 204.83C134.996 205.285 135.895 205.512 136.929 205.512C137.879 205.512 138.716 205.347 139.44 205.016C140.163 204.665 140.814 204.138 141.393 203.435L141.982 203.9C141.589 204.623 141.124 205.254 140.587 205.791C140.07 206.308 139.46 206.711 138.758 207C138.055 207.269 137.218 207.403 136.247 207.403Z" fill="#49220C"/>
<path d="M120.509 207.155L114.433 192.461H117.347L121.997 204.737H121.377L121.532 204.303L125.717 192.461H127.205L121.656 207.155H120.509ZM113.317 193.484V192.461H120.509V193.484L116.975 193.98H116.231L113.317 193.484ZM122.834 193.484V192.461H128.352V193.484L126.244 193.949H125.717L122.834 193.484Z" fill="#49220C"/>
<path d="M103.966 207.403C102.85 207.403 101.899 207.083 101.114 206.442C100.329 205.801 99.936 204.861 99.936 203.621C99.936 203.042 100.06 202.484 100.308 201.947C100.577 201.41 101.062 200.903 101.765 200.428C102.488 199.953 103.542 199.508 104.927 199.095C105.402 198.93 105.888 198.775 106.384 198.63C106.88 198.485 107.397 198.341 107.934 198.196C108.471 198.031 109.04 197.876 109.639 197.731V198.692C108.833 198.919 108.099 199.147 107.438 199.374C106.777 199.581 106.157 199.787 105.578 199.994C104.669 200.304 103.997 200.645 103.563 201.017C103.129 201.389 102.85 201.761 102.726 202.133C102.602 202.484 102.54 202.825 102.54 203.156C102.54 204.003 102.778 204.603 103.253 204.954C103.728 205.305 104.307 205.481 104.989 205.481C105.361 205.481 105.712 205.429 106.043 205.326C106.394 205.223 106.808 205.016 107.283 204.706C107.779 204.375 108.409 203.9 109.174 203.28L109.577 204.737H108.647C108.068 205.336 107.541 205.843 107.066 206.256C106.591 206.649 106.105 206.938 105.609 207.124C105.113 207.31 104.565 207.403 103.966 207.403ZM111.096 207.279C110.249 207.279 109.577 207.021 109.081 206.504C108.606 205.967 108.368 205.233 108.368 204.303V204.179V197.173C108.368 196.16 108.265 195.375 108.058 194.817C107.872 194.259 107.562 193.877 107.128 193.67C106.694 193.443 106.146 193.329 105.485 193.329C105.113 193.329 104.71 193.37 104.276 193.453C103.842 193.536 103.356 193.68 102.819 193.887L103.997 192.988L103.284 195.592C103.16 196.047 102.964 196.398 102.695 196.646C102.447 196.894 102.127 197.018 101.734 197.018C101.321 197.018 101 196.915 100.773 196.708C100.546 196.481 100.411 196.171 100.37 195.778C100.659 194.641 101.331 193.742 102.385 193.081C103.439 192.42 104.71 192.089 106.198 192.089C107.252 192.089 108.12 192.265 108.802 192.616C109.484 192.967 109.99 193.525 110.321 194.29C110.672 195.055 110.848 196.067 110.848 197.328V204.024C110.848 204.685 110.941 205.15 111.127 205.419C111.334 205.688 111.592 205.822 111.902 205.822C112.171 205.822 112.398 205.76 112.584 205.636C112.77 205.512 112.966 205.326 113.173 205.078L113.7 205.667C113.369 206.225 112.987 206.638 112.553 206.907C112.14 207.155 111.654 207.279 111.096 207.279Z" fill="#49220C"/>
<path d="M90.5335 214.595C89.1489 214.595 88.0122 214.43 87.1235 214.099C86.2349 213.789 85.5839 213.345 85.1705 212.766C84.7572 212.187 84.5505 211.536 84.5505 210.813C84.5505 210.296 84.6745 209.811 84.9225 209.356C85.1912 208.922 85.6149 208.488 86.1935 208.054C86.7929 207.641 87.5885 207.238 88.5805 206.845L88.7355 207.031C88.3635 207.362 88.0329 207.692 87.7435 208.023C87.4749 208.374 87.2682 208.726 87.1235 209.077C86.9789 209.449 86.9065 209.883 86.9065 210.379C86.9065 211.061 87.0719 211.629 87.4025 212.084C87.7539 212.539 88.2292 212.869 88.8285 213.076C89.4279 213.283 90.1305 213.386 90.9365 213.386C92.0732 213.386 93.0239 213.231 93.7885 212.921C94.5739 212.611 95.1525 212.198 95.5245 211.681C95.9172 211.164 96.1135 210.596 96.1135 209.976C96.1135 209.253 95.8655 208.664 95.3695 208.209C94.8942 207.754 94.0985 207.527 92.9825 207.527H89.4485C89.2005 207.527 88.9319 207.517 88.6425 207.496C88.3739 207.475 88.1155 207.444 87.8675 207.403V207.31C87.1029 207.186 86.5035 206.917 86.0695 206.504C85.6562 206.07 85.4495 205.512 85.4495 204.83C85.4495 204.272 85.6355 203.714 86.0075 203.156C86.3795 202.577 86.9995 201.906 87.8675 201.141V200.862L88.7665 201.327C88.3119 201.782 87.9812 202.195 87.7745 202.567C87.5885 202.939 87.4955 203.301 87.4955 203.652C87.4955 204.21 87.6712 204.623 88.0225 204.892C88.3945 205.161 88.9525 205.295 89.6965 205.295H93.4165C94.5325 205.295 95.4522 205.45 96.1755 205.76C96.8989 206.049 97.4362 206.483 97.7875 207.062C98.1595 207.641 98.3455 208.343 98.3455 209.17C98.3455 209.852 98.1802 210.513 97.8495 211.154C97.5189 211.815 97.0229 212.404 96.3615 212.921C95.7209 213.438 94.9045 213.841 93.9125 214.13C92.9412 214.44 91.8149 214.595 90.5335 214.595ZM90.7505 202.195C89.7379 202.195 88.8079 202.009 87.9605 201.637C87.1339 201.265 86.4829 200.707 86.0075 199.963C85.5322 199.198 85.2945 198.258 85.2945 197.142C85.2945 196.047 85.5322 195.127 86.0075 194.383C86.5035 193.618 87.1649 193.05 87.9915 192.678C88.8389 192.285 89.7689 192.089 90.7815 192.089C91.3602 192.089 91.9079 192.151 92.4245 192.275C92.9412 192.378 93.4165 192.554 93.8505 192.802C94.2845 193.029 94.6669 193.329 94.9975 193.701L95.0595 193.763C95.4315 194.176 95.7105 194.662 95.8965 195.22C96.1032 195.778 96.2065 196.408 96.2065 197.111C96.2065 198.206 95.9585 199.136 95.4625 199.901C94.9872 200.645 94.3362 201.213 93.5095 201.606C92.6829 201.999 91.7632 202.195 90.7505 202.195ZM90.6885 201.141C91.3499 201.141 91.9079 200.976 92.3625 200.645C92.8379 200.294 93.1995 199.818 93.4475 199.219C93.6955 198.599 93.8195 197.876 93.8195 197.049C93.8195 196.243 93.6955 195.551 93.4475 194.972C93.2202 194.393 92.8792 193.949 92.4245 193.639C91.9699 193.329 91.4222 193.174 90.7815 193.174C90.1615 193.174 89.6139 193.339 89.1385 193.67C88.6839 194.001 88.3325 194.466 88.0845 195.065C87.8365 195.664 87.7125 196.367 87.7125 197.173C87.7125 197.979 87.8262 198.682 88.0535 199.281C88.3015 199.88 88.6425 200.345 89.0765 200.676C89.5312 200.986 90.0685 201.141 90.6885 201.141ZM94.0675 194.29L94.0365 193.546H94.2225L98.0975 192.089L98.5005 192.368V194.29H94.0675Z" fill="#49220C"/>
<path d="M66.8716 214.595V213.665L70.2196 213.107H70.9016L74.5286 213.665V214.595H66.8716ZM69.2586 214.595C69.2792 213.934 69.2896 213.231 69.2896 212.487C69.3102 211.743 69.3206 210.989 69.3206 210.224C69.3412 209.459 69.3516 208.726 69.3516 208.023V199.002C69.3516 198.423 69.3412 197.917 69.3206 197.483C69.3206 197.049 69.3102 196.646 69.2896 196.274C69.2896 195.881 69.2792 195.478 69.2586 195.065L66.8406 194.724V193.825L71.1496 192.089L71.5526 192.368L71.7386 195.003L71.8316 195.096V204.613L71.7696 204.768V207.992C71.7696 208.695 71.7696 209.428 71.7696 210.193C71.7902 210.978 71.8006 211.743 71.8006 212.487C71.8212 213.231 71.8419 213.934 71.8626 214.595H69.2586ZM75.8616 207.403C75.3036 207.403 74.7456 207.31 74.1876 207.124C73.6502 206.938 73.1232 206.638 72.6066 206.225C72.0899 205.791 71.5939 205.202 71.1186 204.458H70.5606L70.8396 203.063C71.6042 204.034 72.3482 204.737 73.0716 205.171C73.7949 205.584 74.5492 205.791 75.3346 205.791C76.0992 205.791 76.7916 205.574 77.4116 205.14C78.0522 204.706 78.5586 204.055 78.9306 203.187C79.3026 202.298 79.4886 201.182 79.4886 199.839C79.4886 197.814 79.1166 196.284 78.3726 195.251C77.6286 194.197 76.6882 193.67 75.5516 193.67C75.1176 193.67 74.6526 193.763 74.1566 193.949C73.6812 194.135 73.1646 194.435 72.6066 194.848C72.0692 195.241 71.4802 195.778 70.8396 196.46L70.5916 195.127H71.1806C71.6559 194.466 72.1622 193.908 72.6996 193.453C73.2576 192.998 73.8259 192.657 74.4046 192.43C75.0039 192.203 75.6239 192.089 76.2646 192.089C77.3599 192.089 78.3416 192.389 79.2096 192.988C80.0982 193.567 80.8009 194.414 81.3176 195.53C81.8549 196.646 82.1236 198.01 82.1236 199.622C82.1236 201.213 81.8446 202.598 81.2866 203.776C80.7286 204.933 79.9742 205.832 79.0236 206.473C78.0936 207.093 77.0396 207.403 75.8616 207.403Z" fill="#49220C"/>
<path d="M57.7773 207.403C56.5993 207.403 55.4833 207.124 54.4293 206.566C53.3753 205.987 52.5176 205.14 51.8563 204.024C51.1949 202.887 50.8643 201.482 50.8643 199.808C50.8643 198.113 51.1949 196.698 51.8563 195.561C52.5176 194.404 53.3753 193.536 54.4293 192.957C55.4833 192.378 56.5993 192.089 57.7773 192.089C58.9553 192.089 60.0713 192.378 61.1253 192.957C62.1793 193.515 63.0369 194.373 63.6983 195.53C64.3596 196.667 64.6903 198.082 64.6903 199.777C64.6903 201.451 64.3596 202.856 63.6983 203.993C63.0369 205.13 62.1793 205.987 61.1253 206.566C60.0713 207.124 58.9553 207.403 57.7773 207.403ZM57.7773 206.194C58.6453 206.194 59.3893 205.956 60.0093 205.481C60.6293 204.985 61.1046 204.262 61.4353 203.311C61.7659 202.36 61.9313 201.182 61.9313 199.777C61.9313 198.351 61.7659 197.163 61.4353 196.212C61.1046 195.261 60.6293 194.538 60.0093 194.042C59.3893 193.546 58.6453 193.298 57.7773 193.298C56.8886 193.298 56.1343 193.546 55.5143 194.042C54.8943 194.538 54.4189 195.272 54.0883 196.243C53.7783 197.194 53.6233 198.382 53.6233 199.808C53.6233 201.213 53.7783 202.391 54.0883 203.342C54.4189 204.272 54.8943 204.985 55.5143 205.481C56.1343 205.956 56.8886 206.194 57.7773 206.194Z" fill="#49220C"/>
<path d="M202.166 164V163.039L205.421 162.512H206.103L209.172 163.039V164H202.166ZM204.398 164C204.419 163.525 204.429 162.905 204.429 162.14C204.45 161.355 204.46 160.549 204.46 159.722C204.481 158.875 204.491 158.12 204.491 157.459V156.002C204.491 155.423 204.481 154.917 204.46 154.483C204.46 154.049 204.45 153.646 204.429 153.274C204.429 152.881 204.419 152.478 204.398 152.065L201.98 151.724V150.825L206.289 149.089L206.692 149.368L206.971 152.809V152.84V157.459C206.971 158.12 206.971 158.875 206.971 159.722C206.992 160.549 207.002 161.355 207.002 162.14C207.023 162.905 207.044 163.525 207.064 164H204.398ZM211.435 164V163.039L214.69 162.512H215.372L218.441 163.039V164H211.435ZM213.667 164C213.688 163.525 213.698 162.905 213.698 162.14C213.719 161.355 213.729 160.549 213.729 159.722C213.75 158.875 213.76 158.12 213.76 157.459V154.762C213.76 153.357 213.554 152.396 213.14 151.879C212.748 151.362 212.097 151.104 211.187 151.104C210.691 151.104 210.206 151.187 209.73 151.352C209.255 151.497 208.769 151.734 208.273 152.065C207.777 152.375 207.25 152.778 206.692 153.274L206.32 152.313H206.537C207.033 151.714 207.591 151.176 208.211 150.701C208.852 150.205 209.524 149.812 210.226 149.523C210.95 149.234 211.652 149.089 212.334 149.089C213.636 149.089 214.608 149.513 215.248 150.36C215.889 151.207 216.209 152.613 216.209 154.576V157.459C216.209 158.12 216.209 158.875 216.209 159.722C216.23 160.549 216.251 161.355 216.271 162.14C216.292 162.905 216.313 163.525 216.333 164H213.667Z" fill="#49220C"/>
<path d="M193.021 164V163.039L196.276 162.512H196.958L200.027 163.039V164H193.021ZM195.253 164C195.274 163.525 195.284 162.905 195.284 162.14C195.305 161.355 195.315 160.549 195.315 159.722C195.336 158.875 195.346 158.12 195.346 157.459V156.033C195.346 155.165 195.336 154.452 195.315 153.894C195.315 153.315 195.294 152.706 195.253 152.065L192.866 151.724V150.825L197.547 149.089L197.95 149.368L197.857 153.491V157.459C197.857 158.12 197.857 158.875 197.857 159.722C197.878 160.549 197.888 161.355 197.888 162.14C197.909 162.905 197.929 163.525 197.95 164H195.253ZM196.462 145.896C195.904 145.896 195.439 145.731 195.067 145.4C194.695 145.049 194.509 144.594 194.509 144.036C194.509 143.478 194.695 143.023 195.067 142.672C195.439 142.321 195.904 142.145 196.462 142.145C196.999 142.145 197.454 142.321 197.826 142.672C198.219 143.023 198.415 143.478 198.415 144.036C198.415 144.594 198.219 145.049 197.826 145.4C197.454 145.731 196.999 145.896 196.462 145.896Z" fill="#49220C"/>
<path d="M165.778 164V163.039L169.033 162.512H169.715L172.784 163.039V164H165.778ZM168.01 164C168.03 163.525 168.041 162.905 168.041 162.14C168.061 161.355 168.072 160.549 168.072 159.722C168.092 158.875 168.103 158.12 168.103 157.459V156.002C168.103 155.423 168.092 154.917 168.072 154.483C168.072 154.049 168.061 153.646 168.041 153.274C168.041 152.881 168.03 152.478 168.01 152.065L165.592 151.724V150.825L169.901 149.089L170.304 149.368L170.583 152.778V152.871V157.459C170.583 158.12 170.583 158.875 170.583 159.722C170.603 160.549 170.614 161.355 170.614 162.14C170.634 162.905 170.655 163.525 170.676 164H168.01ZM174.923 164V163.039L178.178 162.512H178.86L181.929 163.039V164H174.923ZM177.155 164C177.175 163.525 177.186 162.905 177.186 162.14C177.206 161.355 177.217 160.549 177.217 159.722C177.237 158.875 177.248 158.12 177.248 157.459V154.762C177.248 153.377 177.051 152.427 176.659 151.91C176.287 151.373 175.646 151.104 174.737 151.104C174.241 151.104 173.755 151.187 173.28 151.352C172.804 151.497 172.329 151.734 171.854 152.065C171.378 152.396 170.862 152.799 170.304 153.274L169.87 152.406H170.118C170.593 151.786 171.13 151.228 171.73 150.732C172.35 150.236 173.011 149.843 173.714 149.554C174.416 149.244 175.129 149.089 175.853 149.089C177.155 149.089 178.116 149.513 178.736 150.36C179.376 151.207 179.697 152.613 179.697 154.576V157.459C179.697 158.12 179.697 158.875 179.697 159.722C179.717 160.549 179.738 161.355 179.759 162.14C179.779 162.905 179.8 163.525 179.821 164H177.155ZM184.068 164V163.039L187.323 162.512H188.005L191.074 163.039V164H184.068ZM186.3 164C186.32 163.525 186.331 162.905 186.331 162.14C186.351 161.355 186.362 160.549 186.362 159.722C186.382 158.875 186.393 158.12 186.393 157.459V154.731C186.393 153.305 186.186 152.344 185.773 151.848C185.38 151.352 184.729 151.104 183.82 151.104C183.365 151.104 182.9 151.176 182.425 151.321C181.97 151.466 181.495 151.703 180.999 152.034C180.523 152.344 180.007 152.768 179.449 153.305L178.922 152.437H179.139C179.655 151.755 180.224 151.166 180.844 150.67C181.464 150.153 182.125 149.761 182.828 149.492C183.551 149.223 184.274 149.089 184.998 149.089C186.238 149.089 187.188 149.502 187.85 150.329C188.532 151.135 188.873 152.478 188.873 154.359V157.459C188.873 158.12 188.873 158.875 188.873 159.722C188.893 160.549 188.904 161.355 188.904 162.14C188.924 162.905 188.945 163.525 188.966 164H186.3Z" fill="#49220C"/>
<path d="M150.596 164.403C149.212 164.403 147.992 164.114 146.938 163.535C145.905 162.936 145.089 162.078 144.489 160.962C143.911 159.846 143.621 158.503 143.621 156.932C143.621 155.361 143.931 153.987 144.551 152.809C145.192 151.631 146.029 150.722 147.062 150.081C148.116 149.42 149.263 149.089 150.503 149.089C151.557 149.089 152.498 149.316 153.324 149.771C154.172 150.226 154.843 150.877 155.339 151.724C155.856 152.571 156.114 153.605 156.114 154.824C156.114 155.175 156.094 155.496 156.052 155.785C156.011 156.074 155.959 156.312 155.897 156.498H144.737V155.382H151.836C152.601 155.382 153.097 155.237 153.324 154.948C153.572 154.638 153.696 154.256 153.696 153.801C153.696 153.057 153.562 152.427 153.293 151.91C153.045 151.393 152.684 151.001 152.208 150.732C151.733 150.443 151.165 150.298 150.503 150.298C149.801 150.298 149.119 150.505 148.457 150.918C147.796 151.331 147.259 151.993 146.845 152.902C146.432 153.791 146.225 155 146.225 156.529C146.225 157.81 146.432 158.895 146.845 159.784C147.259 160.673 147.837 161.355 148.581 161.83C149.346 162.285 150.245 162.512 151.278 162.512C152.229 162.512 153.066 162.347 153.789 162.016C154.513 161.665 155.164 161.138 155.742 160.435L156.331 160.9C155.939 161.623 155.474 162.254 154.936 162.791C154.42 163.308 153.81 163.711 153.107 164C152.405 164.269 151.568 164.403 150.596 164.403Z" fill="#49220C"/>
<path d="M133.796 164.465C132.66 164.465 131.564 164.31 130.51 164C129.477 163.69 128.609 163.308 127.906 162.853L128.123 158.389H129.642L130.572 163.349L128.712 162.512V161.303C129.353 161.737 129.921 162.099 130.417 162.388C130.913 162.657 131.409 162.853 131.905 162.977C132.422 163.101 133.032 163.163 133.734 163.163C134.685 163.163 135.512 163.018 136.215 162.729C136.938 162.44 137.496 161.995 137.888 161.396C138.302 160.797 138.508 160.053 138.508 159.164C138.508 158.461 138.353 157.872 138.043 157.397C137.754 156.922 137.32 156.508 136.741 156.157C136.183 155.785 135.491 155.434 134.664 155.103L133.486 154.607C132.515 154.194 131.626 153.718 130.82 153.181C130.035 152.623 129.415 151.962 128.96 151.197C128.526 150.432 128.309 149.513 128.309 148.438C128.309 147.239 128.599 146.227 129.177 145.4C129.777 144.553 130.583 143.902 131.595 143.447C132.629 142.992 133.776 142.765 135.036 142.765C136.07 142.765 137 142.91 137.826 143.199C138.653 143.468 139.387 143.85 140.027 144.346L139.841 148.5H138.353L137.33 143.695L139.19 144.625L139.221 145.958C138.477 145.214 137.775 144.718 137.113 144.47C136.452 144.201 135.718 144.067 134.912 144.067C134.127 144.067 133.414 144.201 132.773 144.47C132.133 144.739 131.626 145.152 131.254 145.71C130.882 146.247 130.696 146.94 130.696 147.787C130.696 148.469 130.841 149.058 131.13 149.554C131.44 150.05 131.854 150.494 132.37 150.887C132.908 151.259 133.548 151.59 134.292 151.879L135.47 152.375C136.69 152.85 137.702 153.377 138.508 153.956C139.314 154.535 139.914 155.196 140.306 155.94C140.72 156.684 140.926 157.573 140.926 158.606C140.926 159.825 140.627 160.879 140.027 161.768C139.428 162.636 138.591 163.308 137.516 163.783C136.462 164.238 135.222 164.465 133.796 164.465Z" fill="#49220C"/>
<defs>
<linearGradient id="paint0_linear_194_242" x1="172.5" y1="0" x2="172.5" y2="345" gradientUnits="userSpaceOnUse">
<stop stop-color="#B0C9D9"/>
<stop stop-color="#B0C9D9"/>
<stop offset="0.26" stop-color="#A4B5BF"/>
<stop offset="0.51" stop-color="#F2CEAE"/>
<stop offset="0.765" stop-color="#D9CAC1"/>
<stop offset="1" stop-color="#BFBCBA"/>
</linearGradient>
</defs>
</svg>
