<svg width="915" height="224" viewBox="0 0 915 224" fill="none" xmlns="http://www.w3.org/2000/svg">
<path fill-rule="evenodd" clip-rule="evenodd" d="M639.999 133.888C640.157 134.77 640.36 135.934 640.393 136.981C640.725 147.754 640.438 159.913 638.865 170.733C638.416 173.815 636.897 176.481 635.274 178.72C634.069 180.381 632.624 182.041 631.313 183.547C630.889 184.034 630.479 184.505 630.096 184.954C626.533 189.135 625.188 191.67 626.004 194.229C626.592 196.071 625.576 198.04 623.734 198.627C621.893 199.214 619.924 198.197 619.336 196.355C617.195 189.644 621.557 184.18 624.769 180.411C625.262 179.833 625.742 179.281 626.207 178.747C627.458 177.31 628.601 175.996 629.606 174.609C630.956 172.747 631.727 171.172 631.938 169.722C633.432 159.452 633.722 147.735 633.396 137.195C633.382 136.742 633.281 136.079 633.109 135.116C633.091 135.015 633.071 134.909 633.052 134.8C632.909 134.01 632.733 133.037 632.655 132.181C632.609 131.683 632.58 131.073 632.644 130.451C632.702 129.889 632.875 128.901 633.562 127.99C634.403 126.876 635.661 126.333 636.931 126.337C637.984 126.341 638.885 126.713 639.502 127.03C641.222 127.913 641.901 130.023 641.018 131.743C640.737 132.292 640.33 132.735 639.85 133.055C639.879 133.215 639.909 133.384 639.941 133.561C639.96 133.667 639.979 133.776 639.999 133.888ZM636.239 133.226C636.239 133.225 636.249 133.229 636.269 133.239C636.25 133.231 636.24 133.227 636.239 133.226Z" fill="#49220C"/>
<path fill-rule="evenodd" clip-rule="evenodd" d="M682.149 184.701C683.569 186.013 683.657 188.227 682.346 189.647C678.914 193.363 674.021 194.816 669.353 195.532C666.208 196.014 662.68 196.212 659.355 196.399C657.824 196.485 656.335 196.568 654.947 196.676C650.241 197.042 646.384 197.684 643.57 199.196C641.04 200.557 639.184 202.703 638.579 206.856C638.301 208.769 636.525 210.094 634.612 209.815C632.7 209.536 631.375 207.759 631.653 205.846C632.574 199.514 635.758 195.447 640.255 193.03C644.469 190.765 649.63 190.067 654.402 189.697C656.136 189.562 657.805 189.469 659.424 189.38C662.543 189.207 665.471 189.044 668.29 188.612C672.497 187.967 675.416 186.831 677.203 184.896C678.515 183.476 680.729 183.389 682.149 184.701Z" fill="#49220C"/>
<path fill-rule="evenodd" clip-rule="evenodd" d="M767.623 114.588C766.297 115.588 765.54 116.195 765.283 116.478C763.365 118.589 761.544 120.751 759.675 122.97C759.126 123.622 758.573 124.278 758.012 124.941C755.57 127.822 753.017 130.754 750.197 133.53C742.635 140.973 734.74 148.168 726.899 155.315C724.701 157.317 722.508 159.316 720.328 161.315C710.332 170.481 700.56 179.696 691.604 189.552C690.305 190.982 688.091 191.088 686.661 189.787C685.23 188.487 685.124 186.273 686.423 184.843C695.605 174.739 705.574 165.345 715.597 156.154C717.813 154.122 720.03 152.102 722.241 150.086C730.067 142.954 737.83 135.879 745.286 128.539C747.871 125.995 750.257 123.262 752.672 120.413C753.2 119.789 753.733 119.157 754.269 118.52C756.152 116.284 758.086 113.987 760.102 111.769C760.902 110.888 762.295 109.837 763.389 109.011L763.406 108.999C763.544 108.894 763.682 108.791 763.819 108.687C764.409 108.243 764.984 107.81 765.519 107.393C765.312 106.976 765.185 106.51 765.16 106.016C765.062 104.085 766.547 102.441 768.477 102.344C769.464 102.294 770.678 102.312 771.763 102.726C772.353 102.951 773.15 103.385 773.756 104.228C774.41 105.139 774.58 106.158 774.487 107.027C774.337 108.441 773.496 109.491 773.114 109.945C772.609 110.543 771.995 111.116 771.412 111.62C770.379 112.513 769.113 113.466 768.032 114.28C767.892 114.385 767.756 114.487 767.623 114.588ZM767.856 105.305C767.858 105.305 767.845 105.327 767.809 105.372C767.836 105.328 767.854 105.306 767.856 105.305Z" fill="#49220C"/>
<path fill-rule="evenodd" clip-rule="evenodd" d="M722.79 47.5392C717.893 50.7417 713.237 55.0986 710.905 58.4601C709.803 60.0479 707.623 60.4413 706.035 59.3388C704.447 58.2362 704.052 56.0552 705.154 54.4673C708.131 50.1768 713.527 45.231 718.958 41.6794C721.694 39.8909 724.588 38.3556 727.342 37.4403C729.978 36.5639 733.083 36.0544 735.841 37.146C741.988 39.5787 746.325 44.1135 749.925 48.6181C751.108 50.0984 752.281 51.669 753.409 53.1783C753.973 53.9336 754.526 54.6735 755.063 55.379C756.726 57.5646 758.337 59.5621 760.059 61.2891C764.272 65.5164 768.959 68.6225 773.877 71.8822C776.014 73.2987 778.195 74.7443 780.401 76.3235C787.464 81.382 794.16 87.5031 797.491 97.6424C798.095 99.4791 797.095 101.457 795.259 102.06C793.423 102.662 791.445 101.662 790.842 99.8254C788.191 91.7594 782.905 86.7257 776.327 82.0146C774.549 80.7416 772.622 79.463 770.624 78.1374C765.469 74.7183 759.843 70.9865 755.103 66.2302C753.045 64.1654 751.207 61.8693 749.494 59.6168C748.876 58.8047 748.284 58.0128 747.703 57.2343C746.621 55.7863 745.575 54.3849 744.458 52.9876C741.074 48.7531 737.677 45.4002 733.268 43.6551C732.815 43.4756 731.662 43.382 729.552 44.0834C727.559 44.7459 725.22 45.9506 722.79 47.5392Z" fill="#49220C"/>
<path fill-rule="evenodd" clip-rule="evenodd" d="M740.026 60.9902C741.938 61.2693 743.263 63.0462 742.985 64.9591C742.737 66.6651 741.626 67.8459 740.977 68.4494C740.223 69.1508 739.336 69.7512 738.575 70.223C737.857 70.6689 737.118 71.0796 736.537 71.4027C736.491 71.4286 736.445 71.454 736.4 71.4787C736.086 71.6537 735.837 71.7935 735.635 71.9128C735.463 72.0139 735.386 72.0655 735.366 72.0782C735.361 72.0818 735.36 72.0822 735.364 72.0796C729.456 76.5256 724.074 81.6086 718.525 86.8495C718.07 87.2792 717.614 87.71 717.157 88.1415C711.175 93.7827 704.958 99.5373 697.915 104.405C697.679 104.567 697.31 104.817 696.825 105.145C693.059 107.695 682.312 114.971 673.084 122.771C667.835 127.209 663.345 131.599 660.881 135.221C659.628 137.065 659.158 138.342 659.089 139.085C659.049 139.507 659.092 139.639 659.485 139.914C661.067 141.025 661.45 143.208 660.341 144.79C659.231 146.373 657.048 146.755 655.466 145.644C652.932 143.866 651.857 141.254 652.119 138.435C652.351 135.938 653.6 133.479 655.093 131.283C658.122 126.828 663.233 121.931 668.564 117.424C678.127 109.34 689.259 101.81 692.931 99.3265C693.385 99.0193 693.725 98.7892 693.934 98.6449C700.49 94.1147 706.358 88.7013 712.353 83.0474C712.823 82.6044 713.294 82.1598 713.766 81.7141C719.259 76.5242 724.918 71.1782 731.154 66.4853C731.662 66.1024 732.394 65.6958 732.916 65.4051L733.107 65.2988C733.712 64.9621 734.313 64.6277 734.884 64.2733C735.507 63.8871 735.947 63.5661 736.209 63.3227C736.209 63.3226 736.208 63.3228 736.209 63.3227C736.741 61.7564 738.33 60.7427 740.026 60.9902ZM736.358 63.1647C736.36 63.1647 736.35 63.179 736.324 63.2079C736.344 63.1791 736.357 63.1647 736.358 63.1647Z" fill="#49220C"/>
<path fill-rule="evenodd" clip-rule="evenodd" d="M749.208 72.6115C750.756 71.4547 752.949 71.7725 754.107 73.3214C756.616 76.6798 756.632 80.618 755.685 84.1262C754.75 87.5937 752.779 91.0851 750.596 94.2276C746.604 99.9763 741.343 105.332 738.466 108.26C738.189 108.542 737.934 108.802 737.705 109.037C729.469 117.474 720.342 125.224 711.362 132.848C709.954 134.043 708.55 135.236 707.154 136.427C696.785 145.272 686.788 154.105 678.341 164.054C677.09 165.527 674.881 165.707 673.408 164.455C671.934 163.203 671.754 160.994 673.004 159.521C681.851 149.103 692.232 139.953 702.61 131.1C704.028 129.89 705.446 128.686 706.859 127.486C715.856 119.846 724.706 112.33 732.695 104.145C732.932 103.903 733.188 103.642 733.462 103.363C736.371 100.398 741.217 95.4595 744.847 90.2324C746.838 87.3645 748.296 84.6412 748.927 82.3004C749.548 80.0002 749.267 78.5366 748.5 77.5104C747.343 75.9616 747.66 73.7682 749.208 72.6115Z" fill="#49220C"/>
<path fill-rule="evenodd" clip-rule="evenodd" d="M660.365 132.429C660.825 132.801 661.173 133.231 661.413 133.558C662.428 134.94 662.28 136.819 661.147 138.025C661.183 138.355 661.225 138.711 661.274 139.089C661.398 140.066 661.544 141.071 661.694 142.097C661.794 142.791 661.897 143.494 661.995 144.204C662.211 145.774 662.435 147.552 662.392 148.751C662.116 156.55 659.431 164.916 657.082 171.666C656.91 172.16 656.605 172.657 656.484 172.856L656.476 172.869C656.28 173.189 656.034 173.564 655.76 173.958C655.218 174.736 654.492 175.697 653.719 176.543C653.333 176.966 652.89 177.411 652.413 177.802C651.982 178.156 651.306 178.65 650.457 178.935C649.545 179.241 647.908 179.439 646.463 178.247C645.254 177.251 644.958 175.874 644.863 175.144C644.797 174.64 644.685 174.416 644.644 174.348C644.614 174.298 644.601 174.29 644.58 174.276L644.578 174.276C644.449 174.195 644.035 174.041 643.005 174.032C642.527 174.028 642.023 174.053 641.444 174.087C641.385 174.09 641.325 174.094 641.263 174.098C640.765 174.128 640.174 174.163 639.63 174.165C639.047 174.168 638.201 174.141 637.356 173.892C636.452 173.627 635.186 172.989 634.468 171.537C634.093 170.78 634.082 170.09 634.088 169.805C634.095 169.459 634.146 169.169 634.185 168.982C634.265 168.605 634.386 168.253 634.485 167.988C634.69 167.437 634.981 166.797 635.289 166.157C635.916 164.856 636.779 163.221 637.634 161.622C637.897 161.132 638.158 160.645 638.414 160.168C639.011 159.058 639.578 158.002 640.06 157.079C640.403 156.422 640.683 155.87 640.887 155.443C641.067 155.065 641.124 154.914 641.126 154.915C641.127 154.915 641.127 154.915 641.126 154.916C642.503 149.713 641.969 144.476 641.36 138.513C641.285 137.781 641.209 137.039 641.136 136.284C640.948 134.36 642.356 132.649 644.279 132.462C646.203 132.275 647.915 133.684 648.102 135.608C648.172 136.324 648.248 137.055 648.326 137.798C648.935 143.631 649.625 150.232 647.873 156.785C647.719 157.36 647.419 158.009 647.205 158.458C646.947 158.999 646.621 159.64 646.264 160.322C645.763 161.283 645.163 162.398 644.558 163.526C644.306 163.994 644.054 164.464 643.806 164.927C643.416 165.656 643.039 166.366 642.691 167.032C642.814 167.031 642.938 167.031 643.063 167.032C644.463 167.044 646.469 167.212 648.267 168.327C648.961 168.758 649.557 169.286 650.054 169.9C650.247 169.62 650.401 169.383 650.506 169.212C650.522 169.186 650.536 169.163 650.547 169.143C652.887 162.406 655.165 155.046 655.397 148.501C655.414 148.028 655.3 146.897 655.061 145.157C654.978 144.561 654.882 143.899 654.783 143.216C654.625 142.126 654.459 140.983 654.33 139.973C654.134 138.437 653.929 136.58 654.068 135.301C654.104 134.966 654.19 134.377 654.468 133.765C654.731 133.184 655.539 131.837 657.325 131.563C658.9 131.322 660.01 132.141 660.365 132.429ZM650.604 169.045C650.603 169.047 650.602 169.049 650.601 169.051C650.615 169.022 650.618 169.018 650.604 169.045ZM647.884 172.457C647.884 172.456 647.89 172.452 647.902 172.444C647.89 172.453 647.884 172.457 647.884 172.457ZM655.734 137.651C655.734 137.651 655.738 137.655 655.745 137.665C655.738 137.656 655.734 137.652 655.734 137.651Z" fill="#49220C"/>
<path fill-rule="evenodd" clip-rule="evenodd" d="M679.097 157.328C681.01 157.607 682.335 159.384 682.057 161.297C681.891 162.437 681.331 163.318 680.906 163.871C680.449 164.464 679.906 164.988 679.389 165.432C678.352 166.32 677.078 167.171 675.886 167.905C674.673 168.653 673.429 169.349 672.411 169.911C672.197 170.03 671.998 170.139 671.814 170.241C671.058 170.657 670.561 170.931 670.294 171.099C669.435 171.64 667.68 172.506 665.912 173.36C665.021 173.791 664.111 174.226 663.201 174.661C662.643 174.928 662.084 175.195 661.53 175.461C662.198 176.679 662.558 178.009 662.674 179.156C663.004 182.424 663.471 184.412 664.314 186.022C665.136 187.592 666.481 189.114 669.139 191.087C671.873 193.116 675.961 194.147 680.683 194.335C685.333 194.52 690.164 193.869 693.962 192.958C695.842 192.507 697.731 193.665 698.183 195.545C698.634 197.425 697.477 199.314 695.598 199.765C691.306 200.795 685.823 201.545 680.408 201.33C675.063 201.118 669.333 199.946 664.969 196.708C661.848 194.391 659.606 192.118 658.113 189.266C656.641 186.453 656.067 183.39 655.71 179.857C655.69 179.655 655.633 179.398 655.537 179.144C655.51 179.071 655.482 179.006 655.454 178.947C655.25 178.997 655.054 179.041 654.869 179.076C654.694 179.109 654.457 179.147 654.196 179.164L654.187 179.165C654.027 179.176 653.399 179.218 652.688 178.974C652.291 178.838 651.522 178.495 650.933 177.663C650.266 176.72 650.198 175.678 650.358 174.903C650.496 174.234 650.793 173.768 650.944 173.554C651.116 173.31 651.286 173.131 651.396 173.023C651.769 172.657 652.197 172.386 652.396 172.262C653.347 171.668 655.149 170.771 656.974 169.885C657.978 169.398 659.117 168.853 660.231 168.321C661.156 167.878 662.065 167.444 662.864 167.057C664.791 166.126 666.115 165.457 666.561 165.176C667.021 164.886 667.771 164.473 668.538 164.052C668.7 163.962 668.864 163.872 669.026 163.783C670.027 163.23 671.15 162.6 672.213 161.945C673.297 161.277 674.21 160.649 674.833 160.115C675.04 159.937 675.178 159.801 675.264 159.709C675.78 158.115 677.384 157.078 679.097 157.328ZM675.376 159.574C675.377 159.574 675.372 159.582 675.36 159.597C675.37 159.582 675.376 159.574 675.376 159.574ZM655.243 178.606C655.243 178.606 655.244 178.607 655.246 178.61C655.244 178.608 655.243 178.606 655.243 178.606ZM653.566 172.197C653.566 172.197 653.569 172.197 653.573 172.196C653.568 172.197 653.566 172.197 653.566 172.197ZM656.048 178.237C656.033 178.248 656.025 178.254 656.024 178.254C656.024 178.254 656.031 178.248 656.048 178.237Z" fill="#49220C"/>
<path fill-rule="evenodd" clip-rule="evenodd" d="M644.255 133.758C646.168 134.037 647.493 135.814 647.215 137.727L647.012 139.12C646.734 141.033 644.958 142.357 643.045 142.078C641.132 141.799 639.807 140.022 640.086 138.109L640.288 136.717C640.566 134.804 642.343 133.479 644.255 133.758Z" fill="#49220C"/>
<path fill-rule="evenodd" clip-rule="evenodd" d="M658.303 134.479C654.211 131.317 648.187 129.963 643.668 131.395C642.642 131.72 641.155 132.452 639.563 133.429C640.002 133.824 640.347 134.336 640.544 134.937C641.148 136.774 640.149 138.751 638.312 139.354C636.498 139.949 634.976 140.349 633.74 140.533C633.122 140.625 632.476 140.679 631.846 140.643C631.263 140.609 630.383 140.483 629.533 139.965C628.523 139.351 627.782 138.311 627.619 137.029C627.481 135.952 627.799 135.065 628.031 134.559C628.495 133.548 629.278 132.663 629.927 132.011C631.324 130.608 633.332 129.09 635.336 127.815C637.323 126.55 639.591 125.343 641.551 124.722C648.614 122.483 656.988 124.62 662.58 128.939C665.428 131.139 667.8 134.089 668.829 137.646C669.885 141.299 669.425 145.261 667.146 149.113C667.006 149.349 666.868 149.574 666.734 149.787C666.91 149.845 667.092 149.906 667.282 149.969C676.966 153.202 686.275 158.253 693.295 166.43C695.832 169.387 697.465 172.185 698.198 175.019C698.948 177.921 698.679 180.561 697.913 183.026C697.181 185.382 695.961 187.668 694.801 189.821C694.738 189.938 694.675 190.055 694.612 190.172C693.468 192.292 692.309 194.441 691.288 196.922C690.553 198.71 688.507 199.562 686.72 198.825C684.932 198.089 684.08 196.043 684.815 194.255C685.98 191.426 687.297 188.984 688.421 186.902C688.494 186.766 688.567 186.631 688.638 186.498C689.851 184.247 690.731 182.549 691.228 180.947C691.692 179.454 691.781 178.163 691.421 176.77C691.043 175.309 690.095 173.448 687.984 170.989C682.05 164.075 673.996 159.59 665.068 156.609C664.699 156.486 664.34 156.368 663.995 156.254C662.966 155.916 662.067 155.62 661.432 155.363C661.012 155.193 660.382 154.917 659.813 154.476C659.162 153.971 658.329 153.034 658.199 151.596C658.09 150.382 658.562 149.445 658.774 149.057C659.014 148.618 659.319 148.194 659.525 147.909C659.581 147.833 659.637 147.756 659.694 147.678C660.119 147.092 660.589 146.447 661.122 145.546C662.478 143.253 662.593 141.275 662.105 139.589C661.59 137.807 660.297 136.019 658.303 134.479Z" fill="#49220C"/>
<path fill-rule="evenodd" clip-rule="evenodd" d="M713.358 46.7551C714.516 48.3032 714.201 50.4967 712.654 51.6545C700.794 60.5279 688.128 77.095 680.06 90.1947C675.961 96.8499 671.707 103.346 667.476 109.805C660.255 120.829 653.104 131.747 646.916 143.169C645.996 144.869 643.872 145.499 642.172 144.578C640.473 143.656 639.841 141.532 640.762 139.832C647.06 128.204 654.53 116.792 661.881 105.561C666.072 99.158 670.225 92.8135 674.1 86.5215C682.332 73.1558 695.55 55.707 708.459 46.0484C710.007 44.8906 712.2 45.207 713.358 46.7551Z" fill="#49220C"/>
<path d="M571.869 131.201C573.162 131.007 575.943 128.222 580.211 122.846C584.479 117.47 586.613 113.261 586.613 110.217C586.613 109.763 586.451 109.245 586.128 108.662C584.835 109.957 582.119 113.649 577.98 119.737C573.906 125.825 571.869 129.647 571.869 131.201ZM610.474 145.676C613.708 142.179 615.518 141.564 615.906 143.831C615.906 144.673 615.389 146.065 614.354 148.008C611.186 153.902 606.336 160.152 599.805 166.758C589.458 177.25 580.308 182.496 572.354 182.496C568.604 182.496 565.403 181.428 562.751 179.291C557.772 175.21 555.283 168.118 555.283 158.015C555.283 152.25 557.028 144.154 560.52 133.727C564.077 123.235 569.509 113.746 576.816 105.262C580.049 101.117 583.412 99.0443 586.904 99.0443C588.585 99.0443 590.331 99.4005 592.142 100.113C596.41 101.862 598.544 104.679 598.544 108.565C598.544 109.148 598.35 110.087 597.962 111.382C595.31 116.628 591.042 122.684 585.158 129.549C579.273 136.415 573.292 141.888 567.213 145.968C565.144 153.481 564.109 159.342 564.109 163.552C564.109 167.762 564.206 170.45 564.4 171.616C564.982 174.336 567.149 175.696 570.899 175.696C574.65 175.696 578.982 173.98 583.897 170.547C588.812 167.05 594.049 162.451 599.611 156.752C605.172 151.052 608.308 147.846 609.019 147.134C609.795 146.421 610.28 145.936 610.474 145.676Z" fill="#49220C"/>
<path d="M552.761 61.2527C555.541 63.1957 556.931 65.5273 556.931 68.2476C556.996 70.903 556.058 72.9755 554.119 74.4652C549.463 77.8331 545.906 81.1362 543.449 84.3745C540.991 87.6129 538.825 92.6323 536.95 99.4329C535.139 106.169 533.361 111.577 531.615 115.657C532.197 115.139 534.202 114.491 537.629 113.714C541.056 112.937 543.869 112.548 546.068 112.548C552.728 112.548 556.026 114.524 555.961 118.474C555.897 121.713 553.472 126.117 548.687 131.687C543.901 137.257 536.756 143.053 527.25 149.077C526.862 151.473 526.668 156.136 526.668 163.066C526.668 169.932 527.25 176.441 528.414 182.594C530.807 195.806 534.687 202.412 540.054 202.412C541.476 202.348 543.158 201.603 545.098 200.178C547.038 198.753 548.266 198.041 548.784 198.041C549.366 198.041 550.142 198.332 551.112 198.915C552.146 199.498 552.664 200.437 552.664 201.732C552.534 206.136 549.01 208.306 542.091 208.241C535.236 208.241 529.869 205.392 525.989 199.692C521.268 192.697 518.197 180.618 516.774 163.455C516.322 157.626 515.934 154.711 515.61 154.711C515.287 155.424 513.994 159.148 511.73 165.884C509.467 172.62 507.365 175.987 505.425 175.987C505.167 175.987 504.779 175.89 504.261 175.696C501.998 174.789 500.867 173.591 500.867 172.101C500.867 170.547 501.352 168.572 502.321 166.175C503.291 163.714 504.003 161.771 504.455 160.346C504.908 158.921 506.783 153.967 510.081 145.482C527.088 101.441 539.957 73.5261 548.687 61.7385C549.786 60.6374 551.144 60.4755 552.761 61.2527ZM544.225 123.04C544.225 122.328 543.707 121.972 542.673 121.972C541.703 121.907 539.472 122.555 535.98 123.915C532.488 125.275 529.287 127.315 526.377 130.035C524.954 131.395 524.211 133.5 524.146 136.35C524.34 137.84 525.116 138.779 526.474 139.167C528.091 139.103 531.453 136.868 536.562 132.464C541.735 127.995 544.289 124.854 544.225 123.04Z" fill="#49220C"/>
<path d="M505.425 61.2527C508.206 63.1957 509.596 65.5273 509.596 68.2476C509.661 70.903 508.723 72.9755 506.783 74.4652C502.127 77.8331 498.571 81.1362 496.114 84.3745C493.656 87.6129 491.49 92.6323 489.615 99.4329C487.804 106.169 486.026 111.577 484.28 115.657C484.862 115.139 486.866 114.491 490.294 113.714C493.721 112.937 496.534 112.548 498.733 112.548C505.393 112.548 508.691 114.524 508.626 118.474C508.562 121.713 506.137 126.117 501.351 131.687C496.566 137.257 489.421 143.053 479.915 149.077C479.527 151.473 479.333 156.136 479.333 163.066C479.333 169.932 479.915 176.441 481.079 182.594C483.472 195.806 487.351 202.412 492.719 202.412C494.141 202.348 495.823 201.603 497.763 200.178C499.703 198.753 500.931 198.041 501.448 198.041C502.03 198.041 502.806 198.332 503.776 198.915C504.811 199.498 505.328 200.437 505.328 201.732C505.199 206.136 501.675 208.306 494.756 208.241C487.901 208.241 482.534 205.392 478.654 199.692C473.933 192.697 470.862 180.618 469.439 163.455C468.986 157.626 468.598 154.711 468.275 154.711C467.952 155.424 466.658 159.148 464.395 165.884C462.132 172.62 460.03 175.987 458.09 175.987C457.832 175.987 457.444 175.89 456.926 175.696C454.663 174.789 453.531 173.591 453.531 172.101C453.531 170.547 454.016 168.572 454.986 166.175C455.956 163.714 456.668 161.771 457.12 160.346C457.573 158.921 459.448 153.967 462.746 145.482C479.753 101.441 492.622 73.5261 501.351 61.7385C502.451 60.6374 503.809 60.4755 505.425 61.2527ZM496.89 123.04C496.89 122.328 496.372 121.972 495.338 121.972C494.368 121.907 492.137 122.555 488.645 123.915C485.153 125.275 481.952 127.315 479.042 130.035C477.619 131.395 476.876 133.5 476.811 136.35C477.005 137.84 477.781 138.779 479.139 139.167C480.756 139.103 484.118 136.868 489.227 132.464C494.4 127.995 496.954 124.854 496.89 123.04Z" fill="#49220C"/>
<path d="M441.213 89.232C440.889 89.1025 440.081 88.5844 438.788 87.6776C437.236 86.5766 436.46 85.767 436.46 85.2489C436.46 83.5002 438.885 79.3875 443.735 72.9108C448.584 66.4341 451.333 62.5481 451.979 61.2527C453.596 59.6335 455.827 60.4431 458.672 63.6815C460.936 66.4017 461.647 68.6038 460.806 70.2877C460.354 71.9717 457.605 75.5338 452.561 80.9743C447.517 86.4147 443.735 89.1673 441.213 89.232ZM464.395 150.243C462.003 156.978 457.25 163.844 450.136 170.838C441.73 179.129 434.681 183.274 428.991 183.274C421.296 183.274 416.478 178.902 414.538 170.158C413.956 167.503 413.665 164.621 413.665 161.512C413.6 151.473 415.508 139.847 419.388 126.635C424.238 109.925 428.829 101.57 433.162 101.57C435.296 101.57 436.848 102.088 437.818 103.125C438.852 104.096 439.37 104.809 439.37 105.262C439.37 107.334 437.268 112.451 433.065 120.612C428.862 128.708 426.243 134.601 425.208 138.293C424.238 141.92 423.494 146.68 422.977 152.574C422.524 158.403 422.298 162.16 422.298 163.844C422.298 169.543 422.977 173.105 424.335 174.53C425.758 175.955 427.471 176.7 429.476 176.765C435.166 176.765 441.956 171.81 449.845 161.901C453.661 157.043 456.635 152.574 458.769 148.494C459.739 146.939 460.742 146.162 461.776 146.162C463.522 146.421 464.492 147.296 464.686 148.785C464.686 148.98 464.589 149.465 464.395 150.243Z" fill="#49220C"/>
<path d="M390.871 117.697L390.677 118.96L390.483 120.126C390.483 121.68 388.219 127.898 383.693 138.779C379.101 149.66 376.838 157.367 376.903 161.901C377.032 169.608 378.907 173.494 382.529 173.559C386.15 173.559 391.453 169.511 398.436 161.415C406.843 151.7 411.984 144.381 413.859 139.459C415.734 134.601 417.189 132.173 418.224 132.173C419.065 132.237 419.517 133.144 419.582 134.893C419.582 136.577 419.388 137.872 419 138.779L418.03 141.402C415.249 148.526 410.885 155.942 404.935 163.649C396.335 174.984 388.672 180.651 381.947 180.651C379.813 180.651 377.873 180.1 376.127 178.999C371.73 176.214 369.531 170.968 369.531 163.261C369.531 160.735 370.081 156.849 371.18 151.603C372.344 146.357 372.894 143.539 372.829 143.151C372.829 142.697 372.247 142.211 371.083 141.693C368.755 140.657 367.203 140.527 366.427 141.305C365.78 142.211 362.903 149.206 357.794 162.289C352.75 175.372 349.291 181.914 347.415 181.914C346.833 181.914 345.734 181.525 344.117 180.748C342.436 179.971 341.596 178.902 341.596 177.542C341.596 177.283 342.436 175.307 344.117 171.616L349.452 159.278C353.203 150.599 357.6 139.038 362.644 124.595L375.545 88.0662C375.868 87.1595 376.903 86.6738 378.649 86.609L381.171 86.5118C384.275 86.5118 385.827 87.6453 385.827 89.9121C385.827 91.0131 384.145 95.8707 380.783 104.485C377.42 113.099 375.254 119.737 374.284 124.401L373.993 127.315C373.993 128.157 374.155 128.643 374.478 128.772C374.672 128.708 375.48 127.283 376.903 124.498L379.425 119.543C379.813 118.96 380.201 118.183 380.589 117.211C382.011 114.556 383.693 113.228 385.633 113.228C388.995 113.293 390.741 114.685 390.871 117.406V117.697Z" fill="#49220C"/>
<path d="M317.152 131.201C318.445 131.007 321.226 128.222 325.494 122.846C329.762 117.47 331.896 113.261 331.896 110.217C331.896 109.763 331.734 109.245 331.411 108.662C330.117 109.957 327.401 113.649 323.263 119.737C319.189 125.825 317.152 129.647 317.152 131.201ZM355.757 145.676C358.991 142.179 360.801 141.564 361.189 143.831C361.189 144.673 360.672 146.065 359.637 148.008C356.469 153.902 351.619 160.152 345.087 166.758C334.741 177.25 325.591 182.496 317.637 182.496C313.886 182.496 310.685 181.428 308.034 179.291C303.055 175.21 300.565 168.118 300.565 158.015C300.565 152.25 302.311 144.154 305.803 133.727C309.36 123.235 314.792 113.746 322.099 105.262C325.332 101.117 328.695 99.0443 332.187 99.0443C333.868 99.0443 335.614 99.4005 337.425 100.113C341.693 101.862 343.826 104.679 343.826 108.565C343.826 109.148 343.632 110.087 343.244 111.382C340.593 116.628 336.325 122.684 330.441 129.549C324.556 136.415 318.575 141.888 312.496 145.968C310.427 153.481 309.392 159.342 309.392 163.552C309.392 167.762 309.489 170.45 309.683 171.616C310.265 174.336 312.431 175.696 316.182 175.696C319.933 175.696 324.265 173.98 329.18 170.547C334.094 167.05 339.332 162.451 344.893 156.752C350.455 151.052 353.591 147.846 354.302 147.134C355.078 146.421 355.563 145.936 355.757 145.676Z" fill="#49220C"/>
<path d="M326.658 51.5377C314.63 71.3564 302.376 99.8862 289.895 137.127C289.895 137.127 288.57 140.884 285.919 148.397C278.999 167.503 275.507 180.068 275.443 186.091C275.572 187.127 276.607 188.552 278.547 190.366C280.422 191.855 281.36 193.28 281.36 194.64C281.23 198.332 279.84 200.372 277.189 200.761C275.572 200.761 274.117 200.178 272.824 199.012C270.237 196.616 268.944 192.73 268.944 187.354C268.944 177.38 271.046 166.434 275.249 154.517C279.517 142.535 282.039 135.087 282.815 132.173L272.824 145.288C263.9 157.011 255.784 166.434 248.477 173.559C247.895 173.882 246.214 175.21 243.433 177.542C240.717 179.809 237.419 180.942 233.54 180.942C232.44 180.942 231.438 180.748 230.533 180.359C227.364 179.064 225.78 176.149 225.78 171.616C225.78 169.284 227.914 164.232 232.182 156.46C236.449 148.688 243.757 138.584 254.103 126.149C264.514 113.714 271.595 106.719 275.346 105.165C279.161 103.61 283.203 102.833 287.471 102.833C289.152 101.667 290.93 99.9834 292.805 97.7813C294.681 95.5792 296.912 91.758 299.498 86.3175L304.542 75.631C305.642 73.4289 307.581 69.2838 310.362 63.1957C313.143 57.0429 315.341 52.3473 316.958 49.1089C323.619 35.7669 329.147 29.0959 333.545 29.0959C337.877 29.1607 340.108 31.298 340.238 35.5078C340.238 38.6814 338.912 42.1465 336.261 45.9029C333.609 49.6594 330.408 51.5377 326.658 51.5377ZM278.935 118.669C279.581 116.726 279.905 115.43 279.905 114.783C279.905 114.07 279.775 113.649 279.517 113.52C279.064 113.52 277.059 115.236 273.503 118.669C259.406 131.881 247.895 146.162 238.971 161.512C236.902 165.139 235.868 167.438 235.868 168.41C235.868 169.381 236.094 169.932 236.546 170.061C237.128 170.061 238.034 169.64 239.262 168.798C243.854 165.689 250.902 158.597 260.408 147.522C269.914 136.447 276.089 126.829 278.935 118.669Z" fill="#49220C"/>
<path d="M202.5 131.201C203.793 131.007 206.574 128.222 210.842 122.846C215.11 117.47 217.244 113.261 217.244 110.217C217.244 109.763 217.082 109.245 216.759 108.662C215.466 109.957 212.75 113.649 208.611 119.737C204.537 125.825 202.5 129.647 202.5 131.201ZM241.105 145.676C244.339 142.179 246.149 141.564 246.537 143.831C246.537 144.673 246.02 146.065 244.985 148.008C241.817 153.902 236.967 160.152 230.436 166.758C220.089 177.25 210.939 182.496 202.985 182.496C199.235 182.496 196.034 181.428 193.382 179.291C188.403 175.21 185.913 168.118 185.913 158.015C185.913 152.25 187.659 144.154 191.151 133.727C194.708 123.235 200.14 113.746 207.447 105.262C210.68 101.117 214.043 99.0443 217.535 99.0443C219.216 99.0443 220.962 99.4005 222.773 100.113C227.041 101.862 229.175 104.679 229.175 108.565C229.175 109.148 228.981 110.087 228.593 111.382C225.941 116.628 221.673 122.684 215.789 129.549C209.904 136.415 203.923 141.888 197.844 145.968C195.775 153.481 194.74 159.342 194.74 163.552C194.74 167.762 194.837 170.45 195.031 171.616C195.613 174.336 197.78 175.696 201.53 175.696C205.281 175.696 209.613 173.98 214.528 170.547C219.442 167.05 224.68 162.451 230.242 156.752C235.803 151.052 238.939 147.846 239.65 147.134C240.426 146.421 240.911 145.936 241.105 145.676Z" fill="#49220C"/>
<path d="M163.701 117.697L163.507 118.96L163.313 120.126C163.313 121.68 161.05 127.898 156.523 138.779C151.932 149.66 149.668 157.367 149.733 161.901C149.862 169.608 151.738 173.494 155.359 173.559C158.98 173.559 164.283 169.511 171.267 161.415C179.673 151.7 184.814 144.381 186.689 139.459C188.565 134.601 190.02 132.173 191.054 132.173C191.895 132.237 192.348 133.144 192.412 134.893C192.412 136.577 192.218 137.872 191.83 138.779L190.86 141.402C188.08 148.526 183.715 155.942 177.766 163.649C169.165 174.984 161.502 180.651 154.777 180.651C152.643 180.651 150.703 180.1 148.957 178.999C144.56 176.214 142.361 170.968 142.361 163.261C142.361 160.735 142.911 156.849 144.01 151.603C145.174 146.357 145.724 143.539 145.659 143.151C145.659 142.697 145.077 142.211 143.913 141.693C141.585 140.657 140.033 140.527 139.257 141.305C138.611 142.211 135.733 149.206 130.625 162.289C125.581 175.372 122.121 181.914 120.246 181.914C119.664 181.914 118.564 181.525 116.948 180.748C115.266 179.971 114.426 178.902 114.426 177.542C114.426 177.283 115.266 175.307 116.948 171.616L122.283 159.278C126.033 150.599 130.431 139.038 135.474 124.595L148.375 88.0662C148.699 87.1595 149.733 86.6738 151.479 86.609L154.001 86.5118C157.105 86.5118 158.657 87.6453 158.657 89.9121C158.657 91.0131 156.976 95.8707 153.613 104.485C150.25 113.099 148.084 119.737 147.114 124.401L146.823 127.315C146.823 128.157 146.985 128.643 147.308 128.772C147.502 128.708 148.311 127.283 149.733 124.498L152.255 119.543C152.643 118.96 153.031 118.183 153.419 117.211C154.842 114.556 156.523 113.228 158.463 113.228C161.826 113.293 163.572 114.685 163.701 117.406V117.697Z" fill="#49220C"/>
<path d="M77.3725 176.182C73.2339 182.594 68.5457 187.548 63.3078 191.046C58.0699 194.608 53.8019 196.389 50.504 196.389C47.2061 196.389 45.5571 195.709 45.5571 194.349C45.5571 193.895 45.9774 193.572 46.8181 193.377C47.5941 193.183 48.0144 193.054 48.0791 192.989C60.7535 190.204 70.615 177.574 77.6635 155.1C79.2155 150.178 81.1231 142.891 83.3864 133.241L90.0793 104.679H87.7513C86.7813 104.614 86.264 104.096 86.1993 103.125C86.1993 100.34 87.331 98.008 89.5943 96.1297C90.4996 95.4173 91.4372 94.9639 92.4072 94.7696C96.4165 77.9302 98.9708 68.4419 100.07 66.3045C101.234 64.1025 102.527 62.8719 103.95 62.6128C105.373 62.3538 106.86 62.2242 108.412 62.2242C110.223 62.2242 111.096 63.0986 111.031 64.8473C111.031 66.2722 110.902 67.438 110.643 68.3447C123.705 67.9561 136.929 67.6647 150.315 67.4704C152.32 67.4704 153.872 68.8305 154.971 71.5507C155.294 72.3926 155.488 73.1051 155.553 73.688C155.488 75.0481 153.031 75.7281 148.181 75.7281C137.899 75.8577 124.514 76.5053 108.024 77.6712L103.853 94.381C117.821 93.9924 128.911 93.7981 137.123 93.7981C139.128 93.7981 140.648 95.1258 141.682 97.7813C142.006 98.688 142.2 99.4329 142.264 100.016C142.2 101.376 139.29 102.121 133.534 102.25C127.779 102.315 117.077 102.898 101.428 103.999L96.7721 122.652C90.2409 148.364 83.7744 166.208 77.3725 176.182Z" fill="#49220C"/>
<path fill-rule="evenodd" clip-rule="evenodd" d="M293.309 215.118C241.865 209.744 178.76 207.023 121.153 207.878C70.9336 208.623 34.1466 213.558 4.94953 221.788C3.08903 222.312 1.15568 221.229 0.63127 219.368C0.106864 217.508 1.18998 215.574 3.05049 215.05C33.0163 206.604 70.4495 201.63 121.05 200.879C178.912 200.02 242.295 202.751 294.036 208.156C344.402 213.417 397.215 217.067 454.097 216.427C496.322 215.953 534.28 213.097 572.628 210.212C592.998 208.679 613.478 207.139 634.765 205.942C636.695 205.834 638.348 207.31 638.456 209.24C638.565 211.17 637.088 212.823 635.158 212.931C614.147 214.112 593.789 215.643 573.47 217.17C534.968 220.065 496.602 222.95 454.176 223.427C396.943 224.07 343.846 220.397 293.309 215.118Z" fill="#49220C"/>
</svg>
