<?xml version="1.0" encoding="UTF-8"?><svg id="Layer_1" xmlns="http://www.w3.org/2000/svg" width="343" height="476" viewBox="0 0 343 476"><defs><style>.cls-1{fill:#49220c;stroke-width:0px;}</style></defs><path class="cls-1" d="m171.5,358.5C76.93,358.5,0,278.09,0,179.25S76.93,0,171.5,0s171.5,80.41,171.5,179.25-76.93,179.25-171.5,179.25Zm0-354.5C79.14,4,4,82.62,4,179.25s75.14,175.25,167.5,175.25,167.5-78.62,167.5-175.25S263.86,4,171.5,4Z"/><path class="cls-1" d="m172.39,404.33c-53.46,0-58.89-9.55-58.89-50.38,0-2.33.74-4.09,2.21-5.24,3.55-2.79,10.25-1.14,20.4,1.34,9.97,2.44,22.38,5.48,36.28,5.48s27.18-3.26,37.85-5.89c11.33-2.79,18.82-4.63,22.59-1.67,1.44,1.13,2.17,2.82,2.17,5.02s.02,4.37.03,6.43c.12,15.28.21,26.32-7.19,33.78-7.83,7.9-23.9,11.12-55.46,11.12Zm-51.51-53.08c-1.22,0-2.15.18-2.7.61-.17.13-.68.53-.68,2.1,0,38.78,4.4,46.38,54.89,46.38,30.37,0,45.62-2.88,52.62-9.93,6.22-6.28,6.15-16.08,6.03-30.93-.02-2.07-.03-4.22-.03-6.46,0-1.37-.46-1.74-.64-1.87-2.24-1.75-10.46.27-19.17,2.41-10.88,2.67-24.42,6-38.81,6s-27.58-3.24-37.23-5.6c-5.61-1.37-10.99-2.69-14.28-2.69Z"/><path class="cls-1" d="m172.99,437.93c-22.97,0-33.37-1.76-39.72-6.74-6.87-5.38-8.12-13.97-8.12-28.95,0-1.8.61-3.27,1.82-4.39,3.46-3.21,11.14-2.62,22.77-1.75,6.56.5,14.01,1.06,22.21,1.06,7.44,0,14.86-.42,21.4-.79,14.31-.81,24.65-1.4,28.63,2.37,1.15,1.09,1.76,2.51,1.76,4.13s.02,3.13.03,4.59c.1,9.98.17,17.18-4.86,22.27-5.92,5.98-18.36,8.21-45.9,8.21Zm-36-38.52c-3.56,0-6.2.35-7.3,1.37-.27.25-.54.61-.54,1.46,0,26.9,3.25,31.69,43.85,31.69,25.99,0,38.06-1.97,43.06-7.02,3.86-3.9,3.8-10.07,3.7-19.41-.02-1.48-.03-3.02-.03-4.63,0-.52-.15-.89-.5-1.22-2.73-2.58-13.87-1.95-25.66-1.28-6.6.37-14.07.8-21.63.8-8.36,0-15.88-.57-22.51-1.07-4.65-.35-8.98-.68-12.44-.68Z"/><path class="cls-1" d="m173.73,463.15c-31.41,0-36.94-3.95-36.94-26.41,0-1.41.51-2.63,1.48-3.53,2.74-2.55,8.71-2.12,17.76-1.47,5,.36,10.66.77,16.9.77,5.66,0,11.3-.3,16.29-.57,11.51-.62,19.11-1.03,22.23,1.92.93.88,1.43,2.04,1.43,3.34,0,1.16.01,2.26.02,3.32.08,7.27.13,12.52-3.67,16.36-4.53,4.57-14.15,6.28-35.49,6.28Zm-27.5-27.92c-2.59,0-4.52.23-5.24.9-.08.08-.2.19-.2.6,0,18.13,1.21,22.41,32.94,22.41,19.61,0,29.07-1.47,32.64-5.09,2.63-2.66,2.59-6.97,2.52-13.51-.01-1.07-.02-2.19-.02-3.37,0-.23-.06-.32-.18-.43-1.87-1.77-10.71-1.29-19.26-.83-5.03.27-10.73.58-16.5.58-6.38,0-12.12-.41-17.18-.78-3.47-.25-6.84-.49-9.51-.49Z"/><path class="cls-1" d="m173.73,476c-10.53,0-20.81-8.63-20.81-13.65,0-1.01.38-1.9,1.1-2.55,1.83-1.67,5.29-1.35,10.53-.88,2.79.25,5.94.54,9.19.54,2.59,0,5.18-.12,7.46-.23,6.18-.28,10.27-.47,12.25,1.42.72.69,1.1,1.58,1.1,2.6,0,4.8-10.08,12.75-20.81,12.75Zm-16.76-13.33c.69,2.31,7.95,9.33,16.76,9.33s16.31-6.51,16.79-8.55c-1.22-.58-5.77-.38-9.14-.22-2.33.11-4.96.23-7.65.23-3.43,0-6.68-.29-9.55-.55-2.57-.23-5.99-.54-7.21-.23Zm33.57.58h2-2Z"/><path class="cls-1" d="m170.67,357.53l-.65-.66c-.87-.91-.87-1.03.02-12.8.73-9.67,1.97-26.13,2.75-47.38-3.31-15.11-6.29-32.28-6.29-50.32,0-13.44,1.09-25.87,2.56-36.97-1-6.2-2.06-12.07-3.04-17.55-3.74-20.79-6.22-34.52-1.32-40.65,1.58-1.98,3.84-3.04,6.71-3.17,3.04-.15,5.39.71,6.97,2.53,4.19,4.8,2.28,15.11-.87,32.19-1.4,7.61-3.05,16.56-4.4,26.6,2.36,14.76,4.39,31.36,4.39,48.96,0,13.84-.28,26.61-.69,38.02,1.11,5.06,2.26,9.88,3.34,14.43,4.78,20.08,8.23,34.58,2.57,41.97-2.35,3.07-6,4.63-11.16,4.78l-.89.03Zm5.49-46.27c-.72,14.4-1.58,25.73-2.13,33.11-.28,3.7-.53,7.04-.62,8.98,2.83-.37,4.85-1.38,6.14-3.06,4.51-5.88,1.07-20.33-3.28-38.62-.03-.14-.07-.28-.1-.42Zm-4.8-85.79c-.54,6.64-.86,13.62-.86,20.9,0,11.05,1.15,21.79,2.81,31.94.12-6.37.19-13.05.19-20.01,0-11.43-.87-22.46-2.14-32.84Zm.69-73.46c-.15,0-.3,0-.46.01-1.72.08-2.91.61-3.76,1.67-3.77,4.72-1.16,19.16,2.13,37.45.33,1.82.67,3.69,1,5.6.88-5.33,1.79-10.26,2.62-14.72,2.63-14.24,4.7-25.49,1.78-28.84-.45-.51-1.27-1.17-3.31-1.17Z"/></svg>