<svg width="193" height="193" viewBox="0 0 193 193" fill="none" xmlns="http://www.w3.org/2000/svg">
<circle cx="96.5" cy="96.5" r="96.5" fill="url(#paint0_linear_173_572)"/>
<path d="M138.701 99.998C141.598 96.9219 143.69 93.569 144.976 89.9395C145.464 88.5723 145.781 87.2539 145.928 85.9844C145.537 85.4473 144.951 85.1787 144.17 85.1787C143.389 85.1787 142.827 85.3659 142.485 85.7402L141.338 90.208C140.247 94.5374 139.368 97.8008 138.701 99.998ZM133.501 115.989C132.492 117.568 131.328 118.805 130.01 119.7C128.675 120.612 127.593 121.067 126.763 121.067C125.916 121.067 125.493 120.896 125.493 120.555C125.493 120.408 125.688 120.294 126.079 120.213H126.128C127.43 119.92 128.667 119.065 129.839 117.649C130.099 117.34 130.319 117.031 130.498 116.722C132.467 113.597 134.225 108.868 135.771 102.537L138.506 91.0137C139.759 85.6751 140.532 82.6396 140.825 81.9072C141.118 81.1748 141.444 80.7598 141.802 80.6621C142.095 80.5645 142.469 80.5156 142.925 80.5156C143.381 80.5156 143.641 80.6458 143.706 80.9062C143.722 80.9876 143.73 81.0853 143.73 81.1992C143.73 81.2969 143.665 81.5898 143.535 82.0781C143.405 82.5664 143.34 82.8919 143.34 83.0547C143.535 83.0221 143.836 83.0059 144.243 83.0059C146.017 83.0059 147.214 83.4779 147.832 84.4219C148.076 84.8125 148.198 85.252 148.198 85.7402C148.198 88.1165 147.36 90.9079 145.684 94.1143C144.007 97.3206 142.347 99.6888 140.703 101.219C139.759 102.081 138.97 102.521 138.335 102.537C136.805 108.852 135.194 113.336 133.501 115.989Z" fill="#49220C"/>
<path d="M133.892 84.8613C133.078 84.9915 132.028 87.026 130.742 90.9648C129.456 94.9036 128.813 97.2311 128.813 97.9473C128.813 98.6634 128.879 99.0215 129.009 99.0215C129.692 99.0215 130.758 97.5566 132.207 94.627C133.656 91.681 134.38 88.9873 134.38 86.5459C134.38 85.4391 134.217 84.8776 133.892 84.8613ZM133.501 81.834C133.957 81.834 134.347 81.9642 134.673 82.2246C135.243 82.7129 135.527 83.6569 135.527 85.0566C135.527 91.4531 134.388 96.2464 132.109 99.4365L131.768 99.9492C130.352 102 129.212 103.025 128.35 103.025C127.292 102.911 126.681 102.138 126.519 100.706C126.519 99.5179 126.999 97.109 127.959 93.4795C128.936 89.8499 130.05 86.7087 131.304 84.0557C132.02 82.5908 132.752 81.8503 133.501 81.834Z" fill="#49220C"/>
<path d="M119.561 87.498C119.577 87.4818 119.886 87.1074 120.489 86.375C121.091 85.6589 121.514 85.1706 121.758 84.9102L122.222 84.4219C122.547 84.1126 123.036 83.9661 123.687 83.9824C124.338 83.9824 124.68 84.3079 124.712 84.959C124.712 85.138 124.598 85.5368 124.37 86.1553C124.142 86.7738 123.833 87.9294 123.443 89.6221C122.466 93.7236 121.978 97.0439 121.978 99.583C121.978 100.608 122.124 101.137 122.417 101.17C122.922 101.17 123.703 100.527 124.761 99.2412C125.721 98.0856 127.235 95.4326 129.302 91.2822C129.611 90.7451 129.969 90.4766 130.376 90.4766C130.588 90.5254 130.71 90.7044 130.742 91.0137C130.742 91.8275 130.523 92.7878 130.083 93.8945C129.253 96.0267 128 98.0286 126.323 99.9004C124.663 101.772 123.296 102.708 122.222 102.708C120.643 102.692 119.837 101.398 119.805 98.8262C119.805 96.7103 120.155 93.7074 120.855 89.8174C119.813 90.1592 118.877 90.9811 118.047 92.2832C117.233 93.5853 116.387 95.4733 115.508 97.9473C114.597 100.503 113.97 101.943 113.628 102.269C113.238 102.562 112.806 102.7 112.334 102.684C111.846 102.684 111.594 102.513 111.577 102.171C111.561 101.829 112.399 99.3958 114.092 94.8711C115.785 90.3464 117.697 85.6751 119.829 80.8574C121.978 76.0397 123.207 72.8822 123.516 71.3848C123.63 70.929 124.053 70.693 124.785 70.6768C125.03 70.6768 125.274 70.7093 125.518 70.7744C126.201 70.9535 126.543 71.2708 126.543 71.7266C126.543 71.8893 126.494 72.0684 126.397 72.2637L126.055 72.8496C124.818 75.0469 122.653 79.9297 119.561 87.498Z" fill="#49220C"/>
<path d="M114.971 84.9346C114.971 87.3597 114.32 88.5723 113.018 88.5723C112.692 88.5723 112.383 88.4909 112.09 88.3281C112.22 91.1927 112.285 93.6667 112.285 95.75C112.285 100.91 111.056 103.489 108.599 103.489C108.029 103.489 107.5 103.335 107.012 103.025C106.117 102.472 105.669 101.674 105.669 100.633C105.685 99.8678 106.182 99.4772 107.158 99.4609C107.435 99.4772 107.622 99.5749 107.72 99.7539C107.817 99.9167 107.882 100.324 107.915 100.975C107.964 101.626 108.167 101.951 108.525 101.951C109.648 101.935 110.218 100.258 110.234 96.9219L109.746 83.9824C109.746 83.6406 109.836 83.3395 110.015 83.0791C110.373 82.542 110.877 82.2734 111.528 82.2734C112.179 82.2734 112.749 82.363 113.237 82.542C114.393 82.9977 114.971 83.7952 114.971 84.9346ZM113.018 85.1543L112.944 84.4951C112.765 84.4951 112.603 84.5521 112.456 84.666C112.049 84.959 111.846 85.3252 111.846 85.7646C111.846 86.2041 111.862 86.4727 111.895 86.5703C112.611 86.4564 112.985 85.9844 113.018 85.1543Z" fill="#49220C"/>
<path d="M104.351 84.8613C103.537 84.9915 102.487 87.026 101.201 90.9648C99.9154 94.9036 99.2725 97.2311 99.2725 97.9473C99.2725 98.6634 99.3376 99.0215 99.4678 99.0215C100.151 99.0215 101.217 97.5566 102.666 94.627C104.115 91.681 104.839 88.9873 104.839 86.5459C104.839 85.4391 104.676 84.8776 104.351 84.8613ZM103.96 81.834C104.416 81.834 104.806 81.9642 105.132 82.2246C105.701 82.7129 105.986 83.6569 105.986 85.0566C105.986 91.4531 104.847 96.2464 102.568 99.4365L102.227 99.9492C100.811 102 99.6712 103.025 98.8086 103.025C97.7507 102.911 97.1403 102.138 96.9775 100.706C96.9775 99.5179 97.4577 97.109 98.418 93.4795C99.3945 89.8499 100.509 86.7087 101.763 84.0557C102.479 82.5908 103.211 81.8503 103.96 81.834Z" fill="#49220C"/>
<path d="M93.0225 83.1279L101.787 82.9326C101.966 82.9326 102.161 83.0954 102.373 83.4209C102.585 83.7301 102.699 84.1533 102.715 84.6904C102.699 85.0485 102.235 85.2357 101.323 85.252C98.6214 85.3171 95.3499 85.6426 91.5088 86.2285C91.2321 87.026 90.7845 88.1735 90.166 89.6709C87.4479 96.2464 86.0889 100.861 86.0889 103.514C86.0889 104.832 86.3411 106.102 86.8457 107.322C87.7246 109.373 89.0348 110.398 90.7764 110.398C92.1273 110.398 93.2585 110.049 94.1699 109.349C95.0977 108.665 96.1882 107.534 97.4414 105.955C97.832 105.451 98.2389 105.271 98.6621 105.418C99.069 105.597 99.2725 105.947 99.2725 106.468C99.2725 107.965 98.4098 109.21 96.6846 110.203C94.9593 111.212 93.1038 111.717 91.1182 111.717C89.1488 111.717 87.4398 110.993 85.9912 109.544C84.5589 108.095 83.8428 106.167 83.8428 103.758C83.8428 102.146 84.0462 100.421 84.4531 98.582C84.86 96.7428 85.6006 94.4561 86.6748 91.7217C87.749 88.971 88.4489 87.14 88.7744 86.2285C85.4053 86.2285 83.5254 86.1878 83.1348 86.1064C81.9303 85.846 81.32 85.3333 81.3037 84.5684C81.32 84.3242 81.5072 84.1696 81.8652 84.1045L89.7998 83.4453L95.0244 74.6562C95.6266 73.6471 96.1719 73.1426 96.6602 73.1426C96.8555 73.1426 97.0833 73.1751 97.3438 73.2402C98.304 73.4518 98.7842 73.8018 98.7842 74.29C98.7842 74.762 98.2959 75.4945 97.3193 76.4873C96.3428 77.4801 95.7406 78.1149 95.5127 78.3916C94.7477 79.3356 93.9176 80.9144 93.0225 83.1279Z" fill="#49220C"/>
<path d="M81.5479 84.8613C80.734 84.9915 79.6842 87.026 78.3984 90.9648C77.1126 94.9036 76.4697 97.2311 76.4697 97.9473C76.4697 98.6634 76.5348 99.0215 76.665 99.0215C77.3486 99.0215 78.4147 97.5566 79.8633 94.627C81.3118 91.681 82.0361 88.9873 82.0361 86.5459C82.0361 85.4391 81.8734 84.8776 81.5479 84.8613ZM81.1572 81.834C81.613 81.834 82.0036 81.9642 82.3291 82.2246C82.8988 82.7129 83.1836 83.6569 83.1836 85.0566C83.1836 91.4531 82.0443 96.2464 79.7656 99.4365L79.4238 99.9492C78.0078 102 76.8685 103.025 76.0059 103.025C74.9479 102.911 74.3376 102.138 74.1748 100.706C74.1748 99.5179 74.6549 97.109 75.6152 93.4795C76.5918 89.8499 77.7067 86.7087 78.96 84.0557C79.6761 82.5908 80.4085 81.8503 81.1572 81.834Z" fill="#49220C"/>
<path d="M67.217 87.498C67.2333 87.4818 67.5426 87.1074 68.1448 86.375C68.747 85.6589 69.1702 85.1706 69.4143 84.9102L69.8782 84.4219C70.2037 84.1126 70.692 83.9661 71.343 83.9824C71.994 83.9824 72.3358 84.3079 72.3684 84.959C72.3684 85.138 72.2545 85.5368 72.0266 86.1553C71.7987 86.7738 71.4895 87.9294 71.0989 89.6221C70.1223 93.7236 69.634 97.0439 69.634 99.583C69.634 100.608 69.7805 101.137 70.0735 101.17C70.578 101.17 71.3593 100.527 72.4172 99.2412C73.3775 98.0856 74.8912 95.4326 76.9582 91.2822C77.2675 90.7451 77.6256 90.4766 78.0325 90.4766C78.244 90.5254 78.3661 90.7044 78.3987 91.0137C78.3987 91.8275 78.1789 92.7878 77.7395 93.8945C76.9094 96.0267 75.6562 98.0286 73.9797 99.9004C72.3196 101.772 70.9524 102.708 69.8782 102.708C68.2994 102.692 67.4937 101.398 67.4612 98.8262C67.4612 96.7103 67.8111 93.7074 68.511 89.8174C67.4693 90.1592 66.5334 90.9811 65.7034 92.2832C64.8896 93.5853 64.0432 95.4733 63.1643 97.9473C62.2528 100.503 61.6262 101.943 61.2844 102.269C60.8938 102.562 60.4625 102.7 59.9905 102.684C59.5022 102.684 59.2499 102.513 59.2336 102.171C59.2174 101.829 60.0556 99.3958 61.7483 94.8711C63.441 90.3464 65.3534 85.6751 67.4856 80.8574C69.634 76.0397 70.8629 72.8822 71.1721 71.3848C71.286 70.929 71.7092 70.693 72.4416 70.6768C72.6858 70.6768 72.9299 70.7093 73.1741 70.7744C73.8577 70.9535 74.1995 71.2708 74.1995 71.7266C74.1995 71.8893 74.1506 72.0684 74.053 72.2637L73.7112 72.8496C72.4742 75.0469 70.3095 79.9297 67.217 87.498Z" fill="#49220C"/>
<path d="M53.1297 92.4297C55.9454 89.5 57.9799 86.2936 59.2332 82.8105C59.7052 81.5085 60.0144 80.2633 60.1609 79.0752C59.8029 78.5544 59.2332 78.3021 58.4519 78.3184C57.687 78.3184 57.1336 78.4893 56.7918 78.8311C56.5639 79.6774 56.0675 81.6061 55.3025 84.6172C54.5376 87.612 53.8133 90.2161 53.1297 92.4297ZM56.2547 73.9482L57.1824 73.8262C57.6707 73.8262 57.9474 73.9727 58.0125 74.2656C58.0288 74.347 57.9718 74.6644 57.8416 75.2178C57.7114 75.7549 57.6463 76.1048 57.6463 76.2676C57.8416 76.235 58.1264 76.2188 58.5008 76.2188C60.1446 76.2188 61.284 76.6419 61.9187 77.4883C62.1954 77.8789 62.3338 78.3265 62.3338 78.8311C62.3338 81.1097 61.5118 83.7952 59.868 86.8877C58.2404 89.9639 56.6209 92.2181 55.0096 93.6504C54.1144 94.4316 53.3657 94.8304 52.7635 94.8467C51.2986 100.853 49.7361 105.141 48.076 107.713C47.0994 109.227 45.9682 110.407 44.6824 111.253C43.3803 112.116 42.3712 112.547 41.6551 112.547C40.9226 112.547 40.5157 112.474 40.4344 112.327C40.3367 112.181 40.2879 112.067 40.2879 111.985C40.2716 111.92 40.3693 111.863 40.5808 111.814C40.7924 111.766 40.8982 111.733 40.8982 111.717C42.1515 111.408 43.3559 110.586 44.5115 109.251C46.5623 106.777 48.4829 101.976 50.2732 94.8467L53.0808 83.3965C54.2527 78.5299 54.977 75.7712 55.2537 75.1201C55.5304 74.4528 55.8478 74.0703 56.2058 73.9727C56.2384 73.9727 56.2547 73.9645 56.2547 73.9482Z" fill="#49220C"/>
<defs>
<linearGradient id="paint0_linear_173_572" x1="96.5" y1="0" x2="96.5" y2="193" gradientUnits="userSpaceOnUse">
<stop stop-color="#B0C9D9"/>
<stop stop-color="#B0C9D9"/>
<stop offset="0.26" stop-color="#A4B5BF"/>
<stop offset="0.51" stop-color="#F2CEAE"/>
<stop offset="0.765" stop-color="#D9CAC1"/>
<stop offset="1" stop-color="#BFBCBA"/>
</linearGradient>
</defs>
</svg>
