<svg width="193" height="193" viewBox="0 0 193 193" fill="none" xmlns="http://www.w3.org/2000/svg">
<circle cx="96.5" cy="96.5" r="96.5" fill="url(#paint0_linear_173_595)"/>
<path d="M175.45 90.8613C174.636 90.9915 173.587 93.026 172.301 96.9648C171.015 100.904 170.372 103.231 170.372 103.947C170.372 104.663 170.437 105.021 170.567 105.021C171.251 105.021 172.317 103.557 173.766 100.627C175.214 97.681 175.938 94.9873 175.938 92.5459C175.938 91.4391 175.776 90.8776 175.45 90.8613ZM175.06 87.834C175.515 87.834 175.906 87.9642 176.231 88.2246C176.801 88.7129 177.086 89.6569 177.086 91.0566C177.086 97.4531 175.947 102.246 173.668 105.437L173.326 105.949C171.91 108 170.771 109.025 169.908 109.025C168.85 108.911 168.24 108.138 168.077 106.706C168.077 105.518 168.557 103.109 169.518 99.4795C170.494 95.8499 171.609 92.7087 172.862 90.0557C173.578 88.5908 174.311 87.8503 175.06 87.834Z" fill="#49220C"/>
<path d="M164.049 92.6436L164 92.9609L163.951 93.2539C163.951 93.6445 163.382 95.207 162.242 97.9414C161.087 100.676 160.517 102.613 160.533 103.752C160.566 105.689 161.038 106.665 161.949 106.682C162.861 106.682 164.195 105.664 165.953 103.63C168.069 101.188 169.363 99.3493 169.835 98.1123C170.307 96.8916 170.673 96.2812 170.934 96.2812C171.145 96.2975 171.259 96.5254 171.275 96.9648C171.275 97.388 171.227 97.7135 171.129 97.9414L170.885 98.6006C170.185 100.391 169.086 102.255 167.589 104.191C165.424 107.04 163.495 108.464 161.803 108.464C161.266 108.464 160.777 108.326 160.338 108.049C159.231 107.349 158.678 106.031 158.678 104.094C158.678 103.459 158.816 102.482 159.093 101.164C159.386 99.8457 159.524 99.1377 159.508 99.04C159.508 98.9261 159.361 98.804 159.068 98.6738C158.482 98.4134 158.092 98.3809 157.896 98.5762C157.734 98.804 157.009 100.562 155.724 103.85C154.454 107.137 153.583 108.781 153.111 108.781C152.965 108.781 152.688 108.684 152.281 108.488C151.858 108.293 151.646 108.024 151.646 107.683C151.646 107.618 151.858 107.121 152.281 106.193L153.624 103.093C154.568 100.912 155.675 98.0065 156.944 94.377L160.191 85.1973C160.273 84.9694 160.533 84.8473 160.973 84.8311L161.607 84.8066C162.389 84.8066 162.779 85.0915 162.779 85.6611C162.779 85.9378 162.356 87.1585 161.51 89.3232C160.663 91.488 160.118 93.1562 159.874 94.3281L159.801 95.0605C159.801 95.2721 159.841 95.3942 159.923 95.4268C159.972 95.4105 160.175 95.0524 160.533 94.3525L161.168 93.1074C161.266 92.9609 161.363 92.7656 161.461 92.5215C161.819 91.8542 162.242 91.5205 162.73 91.5205C163.577 91.5368 164.016 91.8867 164.049 92.5703V92.6436Z" fill="#49220C"/>
<path d="M144.078 105.998C146.975 102.922 149.067 99.569 150.353 95.9395C150.841 94.5723 151.158 93.2539 151.305 91.9844C150.914 91.4473 150.328 91.1787 149.547 91.1787C148.766 91.1787 148.204 91.3659 147.862 91.7402L146.715 96.208C145.624 100.537 144.745 103.801 144.078 105.998ZM138.878 121.989C137.869 123.568 136.705 124.805 135.387 125.7C134.052 126.612 132.97 127.067 132.14 127.067C131.293 127.067 130.87 126.896 130.87 126.555C130.87 126.408 131.065 126.294 131.456 126.213H131.505C132.807 125.92 134.044 125.065 135.216 123.649C135.476 123.34 135.696 123.031 135.875 122.722C137.844 119.597 139.602 114.868 141.148 108.537L143.883 97.0137C145.136 91.6751 145.909 88.6396 146.202 87.9072C146.495 87.1748 146.821 86.7598 147.179 86.6621C147.472 86.5645 147.846 86.5156 148.302 86.5156C148.757 86.5156 149.018 86.6458 149.083 86.9062C149.099 86.9876 149.107 87.0853 149.107 87.1992C149.107 87.2969 149.042 87.5898 148.912 88.0781C148.782 88.5664 148.717 88.8919 148.717 89.0547C148.912 89.0221 149.213 89.0059 149.62 89.0059C151.394 89.0059 152.59 89.4779 153.209 90.4219C153.453 90.8125 153.575 91.252 153.575 91.7402C153.575 94.1165 152.737 96.9079 151.061 100.114C149.384 103.321 147.724 105.689 146.08 107.219C145.136 108.081 144.347 108.521 143.712 108.537C142.182 114.852 140.571 119.336 138.878 121.989Z" fill="#49220C"/>
<path d="M122.301 96.0371C122.626 95.9883 123.326 95.2884 124.4 93.9375C125.475 92.5866 126.012 91.5286 126.012 90.7637C126.012 90.6497 125.971 90.5195 125.89 90.373C125.564 90.6986 124.881 91.6263 123.839 93.1562C122.813 94.6862 122.301 95.6465 122.301 96.0371ZM132.018 99.6748C132.831 98.7959 133.287 98.6413 133.385 99.2109C133.385 99.4225 133.255 99.7725 132.994 100.261C132.197 101.742 130.976 103.312 129.332 104.973C126.728 107.609 124.425 108.928 122.423 108.928C121.479 108.928 120.673 108.659 120.006 108.122C118.753 107.097 118.126 105.314 118.126 102.775C118.126 101.327 118.565 99.2923 119.444 96.6719C120.34 94.0352 121.707 91.6507 123.546 89.5186C124.36 88.4769 125.206 87.9561 126.085 87.9561C126.508 87.9561 126.948 88.0456 127.403 88.2246C128.478 88.6641 129.015 89.3721 129.015 90.3486C129.015 90.4951 128.966 90.7311 128.868 91.0566C128.201 92.375 127.127 93.8968 125.646 95.6221C124.164 97.3473 122.659 98.7227 121.129 99.748C120.608 101.636 120.348 103.109 120.348 104.167C120.348 105.225 120.372 105.9 120.421 106.193C120.567 106.877 121.113 107.219 122.057 107.219C123.001 107.219 124.091 106.787 125.328 105.925C126.565 105.046 127.883 103.89 129.283 102.458C130.683 101.026 131.472 100.22 131.651 100.041C131.847 99.862 131.969 99.7399 132.018 99.6748Z" fill="#49220C"/>
<path d="M112.535 92.6436L112.486 92.9609L112.438 93.2539C112.438 93.6445 111.868 95.207 110.729 97.9414C109.573 100.676 109.003 102.613 109.02 103.752C109.052 105.689 109.524 106.665 110.436 106.682C111.347 106.682 112.682 105.664 114.439 103.63C116.555 101.188 117.849 99.3493 118.321 98.1123C118.793 96.8916 119.16 96.2812 119.42 96.2812C119.632 96.2975 119.745 96.5254 119.762 96.9648C119.762 97.388 119.713 97.7135 119.615 97.9414L119.371 98.6006C118.671 100.391 117.573 102.255 116.075 104.191C113.91 107.04 111.982 108.464 110.289 108.464C109.752 108.464 109.264 108.326 108.824 108.049C107.717 107.349 107.164 106.031 107.164 104.094C107.164 103.459 107.302 102.482 107.579 101.164C107.872 99.8457 108.01 99.1377 107.994 99.04C107.994 98.9261 107.848 98.804 107.555 98.6738C106.969 98.4134 106.578 98.3809 106.383 98.5762C106.22 98.804 105.496 100.562 104.21 103.85C102.94 107.137 102.07 108.781 101.598 108.781C101.451 108.781 101.174 108.684 100.768 108.488C100.344 108.293 100.133 108.024 100.133 107.683C100.133 107.618 100.344 107.121 100.768 106.193L102.11 103.093C103.054 100.912 104.161 98.0065 105.431 94.377L108.678 85.1973C108.759 84.9694 109.02 84.8473 109.459 84.8311L110.094 84.8066C110.875 84.8066 111.266 85.0915 111.266 85.6611C111.266 85.9378 110.842 87.1585 109.996 89.3232C109.15 91.488 108.604 93.1562 108.36 94.3281L108.287 95.0605C108.287 95.2721 108.328 95.3942 108.409 95.4268C108.458 95.4105 108.661 95.0524 109.02 94.3525L109.654 93.1074C109.752 92.9609 109.85 92.7656 109.947 92.5215C110.305 91.8542 110.729 91.5205 111.217 91.5205C112.063 91.5368 112.503 91.8867 112.535 92.5703V92.6436Z" fill="#49220C"/>
<path d="M93.9805 96.0371C94.306 95.9883 95.0059 95.2884 96.0801 93.9375C97.1543 92.5866 97.6914 91.5286 97.6914 90.7637C97.6914 90.6497 97.6507 90.5195 97.5693 90.373C97.2438 90.6986 96.5602 91.6263 95.5186 93.1562C94.4932 94.6862 93.9805 95.6465 93.9805 96.0371ZM103.697 99.6748C104.511 98.7959 104.967 98.6413 105.064 99.2109C105.064 99.4225 104.934 99.7725 104.674 100.261C103.876 101.742 102.656 103.312 101.012 104.973C98.4076 107.609 96.1045 108.928 94.1025 108.928C93.1585 108.928 92.3529 108.659 91.6855 108.122C90.4323 107.097 89.8057 105.314 89.8057 102.775C89.8057 101.327 90.2451 99.2923 91.124 96.6719C92.0192 94.0352 93.3864 91.6507 95.2256 89.5186C96.0394 88.4769 96.8857 87.9561 97.7646 87.9561C98.1878 87.9561 98.6273 88.0456 99.083 88.2246C100.157 88.6641 100.694 89.3721 100.694 90.3486C100.694 90.4951 100.646 90.7311 100.548 91.0566C99.8805 92.375 98.8063 93.8968 97.3252 95.6221C95.8441 97.3473 94.3385 98.7227 92.8086 99.748C92.2878 101.636 92.0273 103.109 92.0273 104.167C92.0273 105.225 92.0518 105.9 92.1006 106.193C92.2471 106.877 92.7923 107.219 93.7363 107.219C94.6803 107.219 95.7708 106.787 97.0078 105.925C98.2448 105.046 99.5632 103.89 100.963 102.458C102.363 101.026 103.152 100.22 103.331 100.041C103.526 99.862 103.648 99.7399 103.697 99.6748Z" fill="#49220C"/>
<path d="M84.9223 85.4902C84.8409 85.4576 84.6374 85.3274 84.3119 85.0996C83.9213 84.8229 83.726 84.6194 83.726 84.4892C83.726 84.0498 84.3363 83.0162 85.557 81.3886C86.7777 79.761 87.4695 78.7845 87.6322 78.4589C88.0391 78.052 88.6007 78.2555 89.3168 79.0693C89.8865 79.7529 90.0655 80.3063 89.8539 80.7295C89.74 81.1526 89.0483 82.0478 87.7787 83.415C86.5092 84.7822 85.557 85.4739 84.9223 85.4902ZM90.7572 100.822C90.155 102.515 88.9587 104.24 87.1684 105.998C85.0525 108.081 83.2784 109.123 81.8461 109.123C79.9093 109.123 78.6967 108.024 78.2084 105.827C78.0619 105.16 77.9887 104.436 77.9887 103.654C77.9724 101.131 78.4525 98.2099 79.4291 94.8896C80.6498 90.6904 81.8054 88.5908 82.8959 88.5908C83.433 88.5908 83.8236 88.721 84.0678 88.9814C84.3282 89.2255 84.4584 89.4046 84.4584 89.5185C84.4584 90.0393 83.9294 91.3252 82.8715 93.3759C81.8136 95.4104 81.1544 96.8916 80.894 97.8193C80.6498 98.7308 80.4626 99.927 80.3324 101.408C80.2185 102.873 80.1615 103.817 80.1615 104.24C80.1615 105.672 80.3324 106.568 80.6742 106.926C81.0323 107.284 81.4636 107.471 81.9682 107.487C83.4005 107.487 85.1094 106.242 87.0951 103.752C88.0554 102.531 88.8041 101.408 89.3412 100.383C89.5854 99.9921 89.8376 99.7968 90.0981 99.7968C90.5375 99.8619 90.7817 100.082 90.8305 100.456C90.8305 100.505 90.8061 100.627 90.7572 100.822Z" fill="#49220C"/>
<path d="M66.002 90.2266L66.3438 90.1777C67.1901 90.194 67.6052 90.43 67.5889 90.8857C67.5726 91.0811 67.5238 91.2845 67.4424 91.4961C67.361 91.6914 67.0843 92.2936 66.6123 93.3027C66.0264 94.556 65.7904 95.4186 65.9043 95.8906V96.0371L67.7109 93.3027C68.8828 91.5286 69.7536 90.2428 70.3233 89.4453C70.486 89.2337 70.7627 89.1279 71.1533 89.1279C71.544 89.1279 71.8613 89.2337 72.1055 89.4453C72.3659 89.6406 72.5042 89.7952 72.5205 89.9092L72.374 90.2754C69.4443 97.388 67.9795 102.466 67.9795 105.51C67.9795 106.779 68.3945 107.536 69.2246 107.78C69.9896 107.992 70.7708 107.764 71.5684 107.097C73.7982 105.306 75.792 102.987 77.5498 100.139L78.0137 99.3574C78.1764 99.097 78.4287 98.9424 78.7705 98.8936C79.21 98.8936 79.4297 99.1296 79.4297 99.6016C79.4297 100.448 78.4938 101.97 76.6221 104.167C74.7666 106.348 73.3831 107.78 72.4717 108.464C71.5765 109.147 70.5918 109.489 69.5176 109.489C68.4596 109.489 67.5889 108.854 66.9053 107.585C66.4333 106.706 66.1973 105.689 66.1973 104.533C66.1973 103.378 66.4658 101.84 67.0029 99.9189C67.5563 97.9821 67.8574 96.8184 67.9063 96.4277C67.9551 96.0371 67.9714 95.8174 67.9551 95.7686C67.1901 96.7614 66.3112 98.153 65.3184 99.9434L63.3652 103.386C63.0723 103.858 62.7793 104.094 62.4863 104.094C61.6725 104.094 61.2656 103.597 61.2656 102.604C61.2656 102.149 61.583 101.278 62.2178 99.9922C62.8526 98.7064 63.1699 97.7786 63.1699 97.209C62.9421 97.5833 62.5514 98.2913 61.9981 99.333C60.7936 101.595 59.2067 103.711 57.2373 105.681C56.4886 106.413 55.7887 106.853 55.1377 106.999C54.1774 106.885 53.9007 106.633 54.3076 106.242C55.4144 105.168 56.3096 104.208 56.9932 103.361C58.4255 101.587 59.4509 99.5527 60.0693 97.2578C60.7041 94.9466 61.0622 93.5957 61.1436 93.2051C61.2249 92.8145 61.3796 92.1797 61.6074 91.3008L62.0957 89.5674C62.3399 88.5257 62.6165 87.8665 62.9258 87.5898C63.2513 87.3132 63.6257 87.1748 64.0488 87.1748C64.8464 87.1748 65.2451 87.4352 65.2451 87.9561C65.2451 88.4443 64.6266 89.958 63.3897 92.4971C62.1527 95.0199 61.3958 96.6719 61.1192 97.4531C61.2168 97.3392 61.5016 96.9079 61.9736 96.1592C62.4456 95.4105 62.7223 94.971 62.8037 94.8408C62.9014 94.7106 63.0804 94.4176 63.3408 93.9619C64.7243 91.4717 65.6113 90.2266 66.002 90.2266Z" fill="#49220C"/>
<path d="M50.2305 96.0371C50.556 95.9883 51.2559 95.2884 52.3301 93.9375C53.4043 92.5866 53.9414 91.5286 53.9414 90.7637C53.9414 90.6497 53.9007 90.5195 53.8193 90.373C53.4938 90.6986 52.8102 91.6263 51.7686 93.1562C50.7432 94.6862 50.2305 95.6465 50.2305 96.0371ZM59.9473 99.6748C60.7611 98.7959 61.2168 98.6413 61.3145 99.2109C61.3145 99.4225 61.1842 99.7725 60.9238 100.261C60.1263 101.742 58.9056 103.312 57.2617 104.973C54.6576 107.609 52.3545 108.928 50.3525 108.928C49.4085 108.928 48.6029 108.659 47.9355 108.122C46.6823 107.097 46.0557 105.314 46.0557 102.775C46.0557 101.327 46.4951 99.2923 47.374 96.6719C48.2692 94.0352 49.6364 91.6507 51.4756 89.5186C52.2894 88.4769 53.1357 87.9561 54.0146 87.9561C54.4378 87.9561 54.8773 88.0456 55.333 88.2246C56.4072 88.6641 56.9443 89.3721 56.9443 90.3486C56.9443 90.4951 56.8955 90.7311 56.7979 91.0566C56.1305 92.375 55.0563 93.8968 53.5752 95.6221C52.0941 97.3473 50.5885 98.7227 49.0586 99.748C48.5378 101.636 48.2773 103.109 48.2773 104.167C48.2773 105.225 48.3018 105.9 48.3506 106.193C48.4971 106.877 49.0423 107.219 49.9863 107.219C50.9303 107.219 52.0208 106.787 53.2578 105.925C54.4948 105.046 55.8132 103.89 57.2129 102.458C58.6126 101.026 59.402 100.22 59.5811 100.041C59.7764 99.862 59.8984 99.7399 59.9473 99.6748Z" fill="#49220C"/>
<path d="M40.4648 92.6436L40.416 92.9609L40.3672 93.2539C40.3672 93.6445 39.7975 95.207 38.6582 97.9414C37.5026 100.676 36.9329 102.613 36.9492 103.752C36.9818 105.689 37.4538 106.665 38.3652 106.682C39.2767 106.682 40.6113 105.664 42.3691 103.63C44.485 101.188 45.779 99.3493 46.251 98.1123C46.723 96.8916 47.0892 96.2812 47.3496 96.2812C47.5612 96.2975 47.6751 96.5254 47.6914 96.9648C47.6914 97.388 47.6426 97.7135 47.5449 97.9414L47.3008 98.6006C46.6009 100.391 45.5023 102.255 44.0049 104.191C41.8402 107.04 39.9115 108.464 38.2188 108.464C37.6816 108.464 37.1934 108.326 36.7539 108.049C35.6471 107.349 35.0938 106.031 35.0938 104.094C35.0938 103.459 35.2321 102.482 35.5088 101.164C35.8018 99.8457 35.9401 99.1377 35.9238 99.04C35.9238 98.9261 35.7773 98.804 35.4844 98.6738C34.8984 98.4134 34.5078 98.3809 34.3125 98.5762C34.1497 98.804 33.4255 100.562 32.1396 103.85C30.8701 107.137 29.9993 108.781 29.5273 108.781C29.3809 108.781 29.1042 108.684 28.6973 108.488C28.2741 108.293 28.0625 108.024 28.0625 107.683C28.0625 107.618 28.2741 107.121 28.6973 106.193L30.04 103.093C30.984 100.912 32.0908 98.0065 33.3604 94.377L36.6074 85.1973C36.6888 84.9694 36.9492 84.8473 37.3887 84.8311L38.0234 84.8066C38.8047 84.8066 39.1953 85.0915 39.1953 85.6611C39.1953 85.9378 38.7721 87.1585 37.9258 89.3232C37.0794 91.488 36.5342 93.1562 36.29 94.3281L36.2168 95.0605C36.2168 95.2721 36.2575 95.3942 36.3389 95.4268C36.3877 95.4105 36.5911 95.0524 36.9492 94.3525L37.584 93.1074C37.6816 92.9609 37.7793 92.7656 37.877 92.5215C38.235 91.8542 38.6582 91.5205 39.1465 91.5205C39.9928 91.5368 40.4323 91.8867 40.4648 92.5703V92.6436Z" fill="#49220C"/>
<path d="M22.1297 98.4297C24.9454 95.5 26.9799 92.2936 28.2332 88.8105C28.7052 87.5085 29.0144 86.2633 29.1609 85.0752C28.8029 84.5544 28.2332 84.3021 27.4519 84.3184C26.687 84.3184 26.1336 84.4893 25.7918 84.8311C25.5639 85.6774 25.0675 87.6061 24.3025 90.6172C23.5376 93.612 22.8133 96.2161 22.1297 98.4297ZM25.2547 79.9482L26.1824 79.8262C26.6707 79.8262 26.9474 79.9727 27.0125 80.2656C27.0288 80.347 26.9718 80.6644 26.8416 81.2178C26.7114 81.7549 26.6463 82.1048 26.6463 82.2676C26.8416 82.235 27.1264 82.2188 27.5008 82.2188C29.1446 82.2188 30.284 82.6419 30.9187 83.4883C31.1954 83.8789 31.3338 84.3265 31.3338 84.8311C31.3338 87.1097 30.5118 89.7952 28.868 92.8877C27.2404 95.9639 25.6209 98.2181 24.0096 99.6504C23.1144 100.432 22.3657 100.83 21.7635 100.847C20.2986 106.853 18.7361 111.141 17.076 113.713C16.0994 115.227 14.9682 116.407 13.6824 117.253C12.3803 118.116 11.3712 118.547 10.6551 118.547C9.92264 118.547 9.51574 118.474 9.43436 118.327C9.3367 118.181 9.28788 118.067 9.28788 117.985C9.2716 117.92 9.36926 117.863 9.58085 117.814C9.79243 117.766 9.89823 117.733 9.89823 117.717C11.1515 117.408 12.3559 116.586 13.5115 115.251C15.5623 112.777 17.4829 107.976 19.2732 100.847L22.0808 89.3965C23.2527 84.5299 23.977 81.7712 24.2537 81.1201C24.5304 80.4528 24.8478 80.0703 25.2058 79.9727C25.2384 79.9727 25.2547 79.9645 25.2547 79.9482Z" fill="#49220C"/>
<defs>
<linearGradient id="paint0_linear_173_595" x1="96.5" y1="0" x2="96.5" y2="193" gradientUnits="userSpaceOnUse">
<stop stop-color="#B0C9D9"/>
<stop stop-color="#B0C9D9"/>
<stop offset="0.26" stop-color="#A4B5BF"/>
<stop offset="0.51" stop-color="#F2CEAE"/>
<stop offset="0.765" stop-color="#D9CAC1"/>
<stop offset="1" stop-color="#BFBCBA"/>
</linearGradient>
</defs>
</svg>
