<svg width="1033" height="19" viewBox="0 0 1033 19" fill="none" xmlns="http://www.w3.org/2000/svg">
<path fill-rule="evenodd" clip-rule="evenodd" d="M474.319 10.5458C390.217 5.42421 287.111 2.83313 192.987 3.64763C110.823 4.35864 50.3845 9.06613 2.24321 16.9768C1.42574 17.1111 0.654163 16.5573 0.519836 15.7398C0.385509 14.9224 0.939301 14.1508 1.75677 14.0165C50.1009 6.07249 110.704 1.35955 192.961 0.647744C287.149 -0.167306 390.325 2.4252 474.501 7.55137C556.759 12.5607 643.084 16.0403 736.093 15.4308C805.093 14.9786 867.279 12.2518 929.924 9.50489C963.11 8.04972 996.425 6.5889 1030.95 5.45757C1031.78 5.43043 1032.47 6.07965 1032.5 6.90764C1032.53 7.73562 1031.88 8.42882 1031.05 8.45596C996.593 9.58503 963.308 11.0444 930.135 12.4988C867.451 15.2472 805.163 17.9782 736.112 18.4307C643.016 19.0408 556.62 15.5578 474.319 10.5458Z" fill="#49220C"/>
</svg>
