<svg width="144" height="9" viewBox="0 0 144 9" fill="none" xmlns="http://www.w3.org/2000/svg">
<path fill-rule="evenodd" clip-rule="evenodd" d="M66.0521 5.83311C54.6943 4.13853 40.7466 3.27896 28.0147 3.54889C16.9499 3.78347 8.90717 5.33511 2.56016 7.89034C1.79167 8.19973 0.917885 7.82755 0.608501 7.05906C0.299117 6.29057 0.671294 5.41679 1.43978 5.1074C8.22003 2.37776 16.6456 0.789251 27.9511 0.549563C40.8399 0.276309 54.9576 1.1446 66.4948 2.86595C77.6377 4.52846 89.3011 5.67865 101.854 5.4771C111.184 5.3273 119.527 4.4302 128.006 3.51864C132.535 3.03167 137.103 2.54056 141.88 2.15706C142.706 2.09077 143.429 2.70644 143.495 3.53221C143.561 4.35799 142.946 5.08115 142.12 5.14744C137.511 5.51746 133.018 5.99971 128.52 6.48256C119.947 7.40268 111.355 8.32493 101.902 8.47671C89.1343 8.68171 77.2981 7.511 66.0521 5.83311Z" fill="#49220C"/>
</svg>
